<?xml version="1.0" encoding="utf-8" standalone="no"?>
<!DOCTYPE svg PUBLIC "-//W3C//DTD SVG 1.1//EN"
  "http://www.w3.org/Graphics/SVG/1.1/DTD/svg11.dtd">
<svg xmlns:xlink="http://www.w3.org/1999/xlink" width="432pt" height="288pt" viewBox="0 0 432 288" xmlns="http://www.w3.org/2000/svg" version="1.1">
 <metadata>
  <rdf:RDF xmlns:dc="http://purl.org/dc/elements/1.1/" xmlns:cc="http://creativecommons.org/ns#" xmlns:rdf="http://www.w3.org/1999/02/22-rdf-syntax-ns#">
   <cc:Work>
    <dc:type rdf:resource="http://purl.org/dc/dcmitype/StillImage"/>
    <dc:date>2022-01-28T05:56:25.026572</dc:date>
    <dc:format>image/svg+xml</dc:format>
    <dc:creator>
     <cc:Agent>
      <dc:title>Matplotlib v3.5.1, https://matplotlib.org/</dc:title>
     </cc:Agent>
    </dc:creator>
   </cc:Work>
  </rdf:RDF>
 </metadata>
 <defs>
  <style type="text/css">*{stroke-linejoin: round; stroke-linecap: butt}</style>
 </defs>
 <g id="figure_1">
  <g id="patch_1">
   <path d="M 0 288 
L 432 288 
L 432 0 
L 0 0 
L 0 288 
z
" style="fill: none"/>
  </g>
  <g id="axes_1">
   <g id="patch_2">
    <path d="M 54 252 
L 388.8 252 
L 388.8 34.56 
L 54 34.56 
z
" style="fill: #ffffff"/>
   </g>
   <g id="matplotlib.axis_1">
    <g id="xtick_1">
     <g id="line2d_1">
      <defs>
       <path id="m441b684402" d="M 0 0 
L 0 3.5 
" style="stroke: #000000; stroke-width: 0.8"/>
      </defs>
      <g>
       <use xlink:href="#m441b684402" x="69.218182" y="252" style="stroke: #000000; stroke-width: 0.8"/>
      </g>
     </g>
     <g id="text_1">
      <!-- 0.0 -->
      <g transform="translate(59.676307 268.118125)scale(0.12 -0.12)">
       <defs>
        <path id="DejaVuSans-30" d="M 2034 4250 
Q 1547 4250 1301 3770 
Q 1056 3291 1056 2328 
Q 1056 1369 1301 889 
Q 1547 409 2034 409 
Q 2525 409 2770 889 
Q 3016 1369 3016 2328 
Q 3016 3291 2770 3770 
Q 2525 4250 2034 4250 
z
M 2034 4750 
Q 2819 4750 3233 4129 
Q 3647 3509 3647 2328 
Q 3647 1150 3233 529 
Q 2819 -91 2034 -91 
Q 1250 -91 836 529 
Q 422 1150 422 2328 
Q 422 3509 836 4129 
Q 1250 4750 2034 4750 
z
" transform="scale(0.015625)"/>
        <path id="DejaVuSans-2e" d="M 684 794 
L 1344 794 
L 1344 0 
L 684 0 
L 684 794 
z
" transform="scale(0.015625)"/>
       </defs>
       <use xlink:href="#DejaVuSans-30"/>
       <use xlink:href="#DejaVuSans-2e" x="63.623047"/>
       <use xlink:href="#DejaVuSans-30" x="95.410156"/>
      </g>
     </g>
    </g>
    <g id="xtick_2">
     <g id="line2d_2">
      <g>
       <use xlink:href="#m441b684402" x="130.396802" y="252" style="stroke: #000000; stroke-width: 0.8"/>
      </g>
     </g>
     <g id="text_2">
      <!-- 0.2 -->
      <g transform="translate(120.854927 268.118125)scale(0.12 -0.12)">
       <defs>
        <path id="DejaVuSans-32" d="M 1228 531 
L 3431 531 
L 3431 0 
L 469 0 
L 469 531 
Q 828 903 1448 1529 
Q 2069 2156 2228 2338 
Q 2531 2678 2651 2914 
Q 2772 3150 2772 3378 
Q 2772 3750 2511 3984 
Q 2250 4219 1831 4219 
Q 1534 4219 1204 4116 
Q 875 4013 500 3803 
L 500 4441 
Q 881 4594 1212 4672 
Q 1544 4750 1819 4750 
Q 2544 4750 2975 4387 
Q 3406 4025 3406 3419 
Q 3406 3131 3298 2873 
Q 3191 2616 2906 2266 
Q 2828 2175 2409 1742 
Q 1991 1309 1228 531 
z
" transform="scale(0.015625)"/>
       </defs>
       <use xlink:href="#DejaVuSans-30"/>
       <use xlink:href="#DejaVuSans-2e" x="63.623047"/>
       <use xlink:href="#DejaVuSans-32" x="95.410156"/>
      </g>
     </g>
    </g>
    <g id="xtick_3">
     <g id="line2d_3">
      <g>
       <use xlink:href="#m441b684402" x="191.575423" y="252" style="stroke: #000000; stroke-width: 0.8"/>
      </g>
     </g>
     <g id="text_3">
      <!-- 0.4 -->
      <g transform="translate(182.033548 268.118125)scale(0.12 -0.12)">
       <defs>
        <path id="DejaVuSans-34" d="M 2419 4116 
L 825 1625 
L 2419 1625 
L 2419 4116 
z
M 2253 4666 
L 3047 4666 
L 3047 1625 
L 3713 1625 
L 3713 1100 
L 3047 1100 
L 3047 0 
L 2419 0 
L 2419 1100 
L 313 1100 
L 313 1709 
L 2253 4666 
z
" transform="scale(0.015625)"/>
       </defs>
       <use xlink:href="#DejaVuSans-30"/>
       <use xlink:href="#DejaVuSans-2e" x="63.623047"/>
       <use xlink:href="#DejaVuSans-34" x="95.410156"/>
      </g>
     </g>
    </g>
    <g id="xtick_4">
     <g id="line2d_4">
      <g>
       <use xlink:href="#m441b684402" x="252.754043" y="252" style="stroke: #000000; stroke-width: 0.8"/>
      </g>
     </g>
     <g id="text_4">
      <!-- 0.6 -->
      <g transform="translate(243.212168 268.118125)scale(0.12 -0.12)">
       <defs>
        <path id="DejaVuSans-36" d="M 2113 2584 
Q 1688 2584 1439 2293 
Q 1191 2003 1191 1497 
Q 1191 994 1439 701 
Q 1688 409 2113 409 
Q 2538 409 2786 701 
Q 3034 994 3034 1497 
Q 3034 2003 2786 2293 
Q 2538 2584 2113 2584 
z
M 3366 4563 
L 3366 3988 
Q 3128 4100 2886 4159 
Q 2644 4219 2406 4219 
Q 1781 4219 1451 3797 
Q 1122 3375 1075 2522 
Q 1259 2794 1537 2939 
Q 1816 3084 2150 3084 
Q 2853 3084 3261 2657 
Q 3669 2231 3669 1497 
Q 3669 778 3244 343 
Q 2819 -91 2113 -91 
Q 1303 -91 875 529 
Q 447 1150 447 2328 
Q 447 3434 972 4092 
Q 1497 4750 2381 4750 
Q 2619 4750 2861 4703 
Q 3103 4656 3366 4563 
z
" transform="scale(0.015625)"/>
       </defs>
       <use xlink:href="#DejaVuSans-30"/>
       <use xlink:href="#DejaVuSans-2e" x="63.623047"/>
       <use xlink:href="#DejaVuSans-36" x="95.410156"/>
      </g>
     </g>
    </g>
    <g id="xtick_5">
     <g id="line2d_5">
      <g>
       <use xlink:href="#m441b684402" x="313.932663" y="252" style="stroke: #000000; stroke-width: 0.8"/>
      </g>
     </g>
     <g id="text_5">
      <!-- 0.8 -->
      <g transform="translate(304.390788 268.118125)scale(0.12 -0.12)">
       <defs>
        <path id="DejaVuSans-38" d="M 2034 2216 
Q 1584 2216 1326 1975 
Q 1069 1734 1069 1313 
Q 1069 891 1326 650 
Q 1584 409 2034 409 
Q 2484 409 2743 651 
Q 3003 894 3003 1313 
Q 3003 1734 2745 1975 
Q 2488 2216 2034 2216 
z
M 1403 2484 
Q 997 2584 770 2862 
Q 544 3141 544 3541 
Q 544 4100 942 4425 
Q 1341 4750 2034 4750 
Q 2731 4750 3128 4425 
Q 3525 4100 3525 3541 
Q 3525 3141 3298 2862 
Q 3072 2584 2669 2484 
Q 3125 2378 3379 2068 
Q 3634 1759 3634 1313 
Q 3634 634 3220 271 
Q 2806 -91 2034 -91 
Q 1263 -91 848 271 
Q 434 634 434 1313 
Q 434 1759 690 2068 
Q 947 2378 1403 2484 
z
M 1172 3481 
Q 1172 3119 1398 2916 
Q 1625 2713 2034 2713 
Q 2441 2713 2670 2916 
Q 2900 3119 2900 3481 
Q 2900 3844 2670 4047 
Q 2441 4250 2034 4250 
Q 1625 4250 1398 4047 
Q 1172 3844 1172 3481 
z
" transform="scale(0.015625)"/>
       </defs>
       <use xlink:href="#DejaVuSans-30"/>
       <use xlink:href="#DejaVuSans-2e" x="63.623047"/>
       <use xlink:href="#DejaVuSans-38" x="95.410156"/>
      </g>
     </g>
    </g>
    <g id="xtick_6">
     <g id="line2d_6">
      <g>
       <use xlink:href="#m441b684402" x="375.111284" y="252" style="stroke: #000000; stroke-width: 0.8"/>
      </g>
     </g>
     <g id="text_6">
      <!-- 1.0 -->
      <g transform="translate(365.569409 268.118125)scale(0.12 -0.12)">
       <defs>
        <path id="DejaVuSans-31" d="M 794 531 
L 1825 531 
L 1825 4091 
L 703 3866 
L 703 4441 
L 1819 4666 
L 2450 4666 
L 2450 531 
L 3481 531 
L 3481 0 
L 794 0 
L 794 531 
z
" transform="scale(0.015625)"/>
       </defs>
       <use xlink:href="#DejaVuSans-31"/>
       <use xlink:href="#DejaVuSans-2e" x="63.623047"/>
       <use xlink:href="#DejaVuSans-30" x="95.410156"/>
      </g>
     </g>
    </g>
    <g id="text_7">
     <!-- Threshold (above this probability, label as success) -->
     <g transform="translate(67.662188 283.731875)scale(0.12 -0.12)">
      <defs>
       <path id="DejaVuSans-54" d="M -19 4666 
L 3928 4666 
L 3928 4134 
L 2272 4134 
L 2272 0 
L 1638 0 
L 1638 4134 
L -19 4134 
L -19 4666 
z
" transform="scale(0.015625)"/>
       <path id="DejaVuSans-68" d="M 3513 2113 
L 3513 0 
L 2938 0 
L 2938 2094 
Q 2938 2591 2744 2837 
Q 2550 3084 2163 3084 
Q 1697 3084 1428 2787 
Q 1159 2491 1159 1978 
L 1159 0 
L 581 0 
L 581 4863 
L 1159 4863 
L 1159 2956 
Q 1366 3272 1645 3428 
Q 1925 3584 2291 3584 
Q 2894 3584 3203 3211 
Q 3513 2838 3513 2113 
z
" transform="scale(0.015625)"/>
       <path id="DejaVuSans-72" d="M 2631 2963 
Q 2534 3019 2420 3045 
Q 2306 3072 2169 3072 
Q 1681 3072 1420 2755 
Q 1159 2438 1159 1844 
L 1159 0 
L 581 0 
L 581 3500 
L 1159 3500 
L 1159 2956 
Q 1341 3275 1631 3429 
Q 1922 3584 2338 3584 
Q 2397 3584 2469 3576 
Q 2541 3569 2628 3553 
L 2631 2963 
z
" transform="scale(0.015625)"/>
       <path id="DejaVuSans-65" d="M 3597 1894 
L 3597 1613 
L 953 1613 
Q 991 1019 1311 708 
Q 1631 397 2203 397 
Q 2534 397 2845 478 
Q 3156 559 3463 722 
L 3463 178 
Q 3153 47 2828 -22 
Q 2503 -91 2169 -91 
Q 1331 -91 842 396 
Q 353 884 353 1716 
Q 353 2575 817 3079 
Q 1281 3584 2069 3584 
Q 2775 3584 3186 3129 
Q 3597 2675 3597 1894 
z
M 3022 2063 
Q 3016 2534 2758 2815 
Q 2500 3097 2075 3097 
Q 1594 3097 1305 2825 
Q 1016 2553 972 2059 
L 3022 2063 
z
" transform="scale(0.015625)"/>
       <path id="DejaVuSans-73" d="M 2834 3397 
L 2834 2853 
Q 2591 2978 2328 3040 
Q 2066 3103 1784 3103 
Q 1356 3103 1142 2972 
Q 928 2841 928 2578 
Q 928 2378 1081 2264 
Q 1234 2150 1697 2047 
L 1894 2003 
Q 2506 1872 2764 1633 
Q 3022 1394 3022 966 
Q 3022 478 2636 193 
Q 2250 -91 1575 -91 
Q 1294 -91 989 -36 
Q 684 19 347 128 
L 347 722 
Q 666 556 975 473 
Q 1284 391 1588 391 
Q 1994 391 2212 530 
Q 2431 669 2431 922 
Q 2431 1156 2273 1281 
Q 2116 1406 1581 1522 
L 1381 1569 
Q 847 1681 609 1914 
Q 372 2147 372 2553 
Q 372 3047 722 3315 
Q 1072 3584 1716 3584 
Q 2034 3584 2315 3537 
Q 2597 3491 2834 3397 
z
" transform="scale(0.015625)"/>
       <path id="DejaVuSans-6f" d="M 1959 3097 
Q 1497 3097 1228 2736 
Q 959 2375 959 1747 
Q 959 1119 1226 758 
Q 1494 397 1959 397 
Q 2419 397 2687 759 
Q 2956 1122 2956 1747 
Q 2956 2369 2687 2733 
Q 2419 3097 1959 3097 
z
M 1959 3584 
Q 2709 3584 3137 3096 
Q 3566 2609 3566 1747 
Q 3566 888 3137 398 
Q 2709 -91 1959 -91 
Q 1206 -91 779 398 
Q 353 888 353 1747 
Q 353 2609 779 3096 
Q 1206 3584 1959 3584 
z
" transform="scale(0.015625)"/>
       <path id="DejaVuSans-6c" d="M 603 4863 
L 1178 4863 
L 1178 0 
L 603 0 
L 603 4863 
z
" transform="scale(0.015625)"/>
       <path id="DejaVuSans-64" d="M 2906 2969 
L 2906 4863 
L 3481 4863 
L 3481 0 
L 2906 0 
L 2906 525 
Q 2725 213 2448 61 
Q 2172 -91 1784 -91 
Q 1150 -91 751 415 
Q 353 922 353 1747 
Q 353 2572 751 3078 
Q 1150 3584 1784 3584 
Q 2172 3584 2448 3432 
Q 2725 3281 2906 2969 
z
M 947 1747 
Q 947 1113 1208 752 
Q 1469 391 1925 391 
Q 2381 391 2643 752 
Q 2906 1113 2906 1747 
Q 2906 2381 2643 2742 
Q 2381 3103 1925 3103 
Q 1469 3103 1208 2742 
Q 947 2381 947 1747 
z
" transform="scale(0.015625)"/>
       <path id="DejaVuSans-20" transform="scale(0.015625)"/>
       <path id="DejaVuSans-28" d="M 1984 4856 
Q 1566 4138 1362 3434 
Q 1159 2731 1159 2009 
Q 1159 1288 1364 580 
Q 1569 -128 1984 -844 
L 1484 -844 
Q 1016 -109 783 600 
Q 550 1309 550 2009 
Q 550 2706 781 3412 
Q 1013 4119 1484 4856 
L 1984 4856 
z
" transform="scale(0.015625)"/>
       <path id="DejaVuSans-61" d="M 2194 1759 
Q 1497 1759 1228 1600 
Q 959 1441 959 1056 
Q 959 750 1161 570 
Q 1363 391 1709 391 
Q 2188 391 2477 730 
Q 2766 1069 2766 1631 
L 2766 1759 
L 2194 1759 
z
M 3341 1997 
L 3341 0 
L 2766 0 
L 2766 531 
Q 2569 213 2275 61 
Q 1981 -91 1556 -91 
Q 1019 -91 701 211 
Q 384 513 384 1019 
Q 384 1609 779 1909 
Q 1175 2209 1959 2209 
L 2766 2209 
L 2766 2266 
Q 2766 2663 2505 2880 
Q 2244 3097 1772 3097 
Q 1472 3097 1187 3025 
Q 903 2953 641 2809 
L 641 3341 
Q 956 3463 1253 3523 
Q 1550 3584 1831 3584 
Q 2591 3584 2966 3190 
Q 3341 2797 3341 1997 
z
" transform="scale(0.015625)"/>
       <path id="DejaVuSans-62" d="M 3116 1747 
Q 3116 2381 2855 2742 
Q 2594 3103 2138 3103 
Q 1681 3103 1420 2742 
Q 1159 2381 1159 1747 
Q 1159 1113 1420 752 
Q 1681 391 2138 391 
Q 2594 391 2855 752 
Q 3116 1113 3116 1747 
z
M 1159 2969 
Q 1341 3281 1617 3432 
Q 1894 3584 2278 3584 
Q 2916 3584 3314 3078 
Q 3713 2572 3713 1747 
Q 3713 922 3314 415 
Q 2916 -91 2278 -91 
Q 1894 -91 1617 61 
Q 1341 213 1159 525 
L 1159 0 
L 581 0 
L 581 4863 
L 1159 4863 
L 1159 2969 
z
" transform="scale(0.015625)"/>
       <path id="DejaVuSans-76" d="M 191 3500 
L 800 3500 
L 1894 563 
L 2988 3500 
L 3597 3500 
L 2284 0 
L 1503 0 
L 191 3500 
z
" transform="scale(0.015625)"/>
       <path id="DejaVuSans-74" d="M 1172 4494 
L 1172 3500 
L 2356 3500 
L 2356 3053 
L 1172 3053 
L 1172 1153 
Q 1172 725 1289 603 
Q 1406 481 1766 481 
L 2356 481 
L 2356 0 
L 1766 0 
Q 1100 0 847 248 
Q 594 497 594 1153 
L 594 3053 
L 172 3053 
L 172 3500 
L 594 3500 
L 594 4494 
L 1172 4494 
z
" transform="scale(0.015625)"/>
       <path id="DejaVuSans-69" d="M 603 3500 
L 1178 3500 
L 1178 0 
L 603 0 
L 603 3500 
z
M 603 4863 
L 1178 4863 
L 1178 4134 
L 603 4134 
L 603 4863 
z
" transform="scale(0.015625)"/>
       <path id="DejaVuSans-70" d="M 1159 525 
L 1159 -1331 
L 581 -1331 
L 581 3500 
L 1159 3500 
L 1159 2969 
Q 1341 3281 1617 3432 
Q 1894 3584 2278 3584 
Q 2916 3584 3314 3078 
Q 3713 2572 3713 1747 
Q 3713 922 3314 415 
Q 2916 -91 2278 -91 
Q 1894 -91 1617 61 
Q 1341 213 1159 525 
z
M 3116 1747 
Q 3116 2381 2855 2742 
Q 2594 3103 2138 3103 
Q 1681 3103 1420 2742 
Q 1159 2381 1159 1747 
Q 1159 1113 1420 752 
Q 1681 391 2138 391 
Q 2594 391 2855 752 
Q 3116 1113 3116 1747 
z
" transform="scale(0.015625)"/>
       <path id="DejaVuSans-79" d="M 2059 -325 
Q 1816 -950 1584 -1140 
Q 1353 -1331 966 -1331 
L 506 -1331 
L 506 -850 
L 844 -850 
Q 1081 -850 1212 -737 
Q 1344 -625 1503 -206 
L 1606 56 
L 191 3500 
L 800 3500 
L 1894 763 
L 2988 3500 
L 3597 3500 
L 2059 -325 
z
" transform="scale(0.015625)"/>
       <path id="DejaVuSans-2c" d="M 750 794 
L 1409 794 
L 1409 256 
L 897 -744 
L 494 -744 
L 750 256 
L 750 794 
z
" transform="scale(0.015625)"/>
       <path id="DejaVuSans-75" d="M 544 1381 
L 544 3500 
L 1119 3500 
L 1119 1403 
Q 1119 906 1312 657 
Q 1506 409 1894 409 
Q 2359 409 2629 706 
Q 2900 1003 2900 1516 
L 2900 3500 
L 3475 3500 
L 3475 0 
L 2900 0 
L 2900 538 
Q 2691 219 2414 64 
Q 2138 -91 1772 -91 
Q 1169 -91 856 284 
Q 544 659 544 1381 
z
M 1991 3584 
L 1991 3584 
z
" transform="scale(0.015625)"/>
       <path id="DejaVuSans-63" d="M 3122 3366 
L 3122 2828 
Q 2878 2963 2633 3030 
Q 2388 3097 2138 3097 
Q 1578 3097 1268 2742 
Q 959 2388 959 1747 
Q 959 1106 1268 751 
Q 1578 397 2138 397 
Q 2388 397 2633 464 
Q 2878 531 3122 666 
L 3122 134 
Q 2881 22 2623 -34 
Q 2366 -91 2075 -91 
Q 1284 -91 818 406 
Q 353 903 353 1747 
Q 353 2603 823 3093 
Q 1294 3584 2113 3584 
Q 2378 3584 2631 3529 
Q 2884 3475 3122 3366 
z
" transform="scale(0.015625)"/>
       <path id="DejaVuSans-29" d="M 513 4856 
L 1013 4856 
Q 1481 4119 1714 3412 
Q 1947 2706 1947 2009 
Q 1947 1309 1714 600 
Q 1481 -109 1013 -844 
L 513 -844 
Q 928 -128 1133 580 
Q 1338 1288 1338 2009 
Q 1338 2731 1133 3434 
Q 928 4138 513 4856 
z
" transform="scale(0.015625)"/>
      </defs>
      <use xlink:href="#DejaVuSans-54"/>
      <use xlink:href="#DejaVuSans-68" x="61.083984"/>
      <use xlink:href="#DejaVuSans-72" x="124.462891"/>
      <use xlink:href="#DejaVuSans-65" x="163.326172"/>
      <use xlink:href="#DejaVuSans-73" x="224.849609"/>
      <use xlink:href="#DejaVuSans-68" x="276.949219"/>
      <use xlink:href="#DejaVuSans-6f" x="340.328125"/>
      <use xlink:href="#DejaVuSans-6c" x="401.509766"/>
      <use xlink:href="#DejaVuSans-64" x="429.292969"/>
      <use xlink:href="#DejaVuSans-20" x="492.769531"/>
      <use xlink:href="#DejaVuSans-28" x="524.556641"/>
      <use xlink:href="#DejaVuSans-61" x="563.570312"/>
      <use xlink:href="#DejaVuSans-62" x="624.849609"/>
      <use xlink:href="#DejaVuSans-6f" x="688.326172"/>
      <use xlink:href="#DejaVuSans-76" x="749.507812"/>
      <use xlink:href="#DejaVuSans-65" x="808.6875"/>
      <use xlink:href="#DejaVuSans-20" x="870.210938"/>
      <use xlink:href="#DejaVuSans-74" x="901.998047"/>
      <use xlink:href="#DejaVuSans-68" x="941.207031"/>
      <use xlink:href="#DejaVuSans-69" x="1004.585938"/>
      <use xlink:href="#DejaVuSans-73" x="1032.369141"/>
      <use xlink:href="#DejaVuSans-20" x="1084.46875"/>
      <use xlink:href="#DejaVuSans-70" x="1116.255859"/>
      <use xlink:href="#DejaVuSans-72" x="1179.732422"/>
      <use xlink:href="#DejaVuSans-6f" x="1218.595703"/>
      <use xlink:href="#DejaVuSans-62" x="1279.777344"/>
      <use xlink:href="#DejaVuSans-61" x="1343.253906"/>
      <use xlink:href="#DejaVuSans-62" x="1404.533203"/>
      <use xlink:href="#DejaVuSans-69" x="1468.009766"/>
      <use xlink:href="#DejaVuSans-6c" x="1495.792969"/>
      <use xlink:href="#DejaVuSans-69" x="1523.576172"/>
      <use xlink:href="#DejaVuSans-74" x="1551.359375"/>
      <use xlink:href="#DejaVuSans-79" x="1590.568359"/>
      <use xlink:href="#DejaVuSans-2c" x="1649.748047"/>
      <use xlink:href="#DejaVuSans-20" x="1681.535156"/>
      <use xlink:href="#DejaVuSans-6c" x="1713.322266"/>
      <use xlink:href="#DejaVuSans-61" x="1741.105469"/>
      <use xlink:href="#DejaVuSans-62" x="1802.384766"/>
      <use xlink:href="#DejaVuSans-65" x="1865.861328"/>
      <use xlink:href="#DejaVuSans-6c" x="1927.384766"/>
      <use xlink:href="#DejaVuSans-20" x="1955.167969"/>
      <use xlink:href="#DejaVuSans-61" x="1986.955078"/>
      <use xlink:href="#DejaVuSans-73" x="2048.234375"/>
      <use xlink:href="#DejaVuSans-20" x="2100.333984"/>
      <use xlink:href="#DejaVuSans-73" x="2132.121094"/>
      <use xlink:href="#DejaVuSans-75" x="2184.220703"/>
      <use xlink:href="#DejaVuSans-63" x="2247.599609"/>
      <use xlink:href="#DejaVuSans-63" x="2302.580078"/>
      <use xlink:href="#DejaVuSans-65" x="2357.560547"/>
      <use xlink:href="#DejaVuSans-73" x="2419.083984"/>
      <use xlink:href="#DejaVuSans-73" x="2471.183594"/>
      <use xlink:href="#DejaVuSans-29" x="2523.283203"/>
     </g>
    </g>
   </g>
   <g id="matplotlib.axis_2">
    <g id="ytick_1">
     <g id="line2d_7">
      <defs>
       <path id="mb600fd48c7" d="M 0 0 
L -3.5 0 
" style="stroke: #000000; stroke-width: 0.8"/>
      </defs>
      <g>
       <use xlink:href="#mb600fd48c7" x="54" y="233.88" style="stroke: #000000; stroke-width: 0.8"/>
      </g>
     </g>
     <g id="text_8">
      <!-- 0.0 -->
      <g transform="translate(27.91625 238.439063)scale(0.12 -0.12)">
       <use xlink:href="#DejaVuSans-30"/>
       <use xlink:href="#DejaVuSans-2e" x="63.623047"/>
       <use xlink:href="#DejaVuSans-30" x="95.410156"/>
      </g>
     </g>
    </g>
    <g id="ytick_2">
     <g id="line2d_8">
      <g>
       <use xlink:href="#mb600fd48c7" x="54" y="197.64" style="stroke: #000000; stroke-width: 0.8"/>
      </g>
     </g>
     <g id="text_9">
      <!-- 0.2 -->
      <g transform="translate(27.91625 202.199062)scale(0.12 -0.12)">
       <use xlink:href="#DejaVuSans-30"/>
       <use xlink:href="#DejaVuSans-2e" x="63.623047"/>
       <use xlink:href="#DejaVuSans-32" x="95.410156"/>
      </g>
     </g>
    </g>
    <g id="ytick_3">
     <g id="line2d_9">
      <g>
       <use xlink:href="#mb600fd48c7" x="54" y="161.4" style="stroke: #000000; stroke-width: 0.8"/>
      </g>
     </g>
     <g id="text_10">
      <!-- 0.4 -->
      <g transform="translate(27.91625 165.959063)scale(0.12 -0.12)">
       <use xlink:href="#DejaVuSans-30"/>
       <use xlink:href="#DejaVuSans-2e" x="63.623047"/>
       <use xlink:href="#DejaVuSans-34" x="95.410156"/>
      </g>
     </g>
    </g>
    <g id="ytick_4">
     <g id="line2d_10">
      <g>
       <use xlink:href="#mb600fd48c7" x="54" y="125.16" style="stroke: #000000; stroke-width: 0.8"/>
      </g>
     </g>
     <g id="text_11">
      <!-- 0.6 -->
      <g transform="translate(27.91625 129.719063)scale(0.12 -0.12)">
       <use xlink:href="#DejaVuSans-30"/>
       <use xlink:href="#DejaVuSans-2e" x="63.623047"/>
       <use xlink:href="#DejaVuSans-36" x="95.410156"/>
      </g>
     </g>
    </g>
    <g id="ytick_5">
     <g id="line2d_11">
      <g>
       <use xlink:href="#mb600fd48c7" x="54" y="88.92" style="stroke: #000000; stroke-width: 0.8"/>
      </g>
     </g>
     <g id="text_12">
      <!-- 0.8 -->
      <g transform="translate(27.91625 93.479062)scale(0.12 -0.12)">
       <use xlink:href="#DejaVuSans-30"/>
       <use xlink:href="#DejaVuSans-2e" x="63.623047"/>
       <use xlink:href="#DejaVuSans-38" x="95.410156"/>
      </g>
     </g>
    </g>
    <g id="ytick_6">
     <g id="line2d_12">
      <g>
       <use xlink:href="#mb600fd48c7" x="54" y="52.68" style="stroke: #000000; stroke-width: 0.8"/>
      </g>
     </g>
     <g id="text_13">
      <!-- 1.0 -->
      <g transform="translate(27.91625 57.239062)scale(0.12 -0.12)">
       <use xlink:href="#DejaVuSans-31"/>
       <use xlink:href="#DejaVuSans-2e" x="63.623047"/>
       <use xlink:href="#DejaVuSans-30" x="95.410156"/>
      </g>
     </g>
    </g>
   </g>
   <g id="line2d_13">
    <path d="M 76.697203 200.340502 
L 78.998229 200.113891 
L 80.668777 199.928577 
L 81.776452 199.717009 
L 83.064534 199.428053 
L 83.070374 198.772091 
L 83.16591 198.779458 
L 83.693998 198.698726 
L 84.334603 198.617318 
L 84.43657 198.437214 
L 85.36143 198.184003 
L 85.466428 198.124366 
L 86.068802 197.836662 
L 86.441094 197.626358 
L 86.631895 197.578356 
L 86.725904 197.419654 
L 86.870016 197.280572 
L 87.820304 196.944158 
L 87.980953 196.83639 
L 88.270446 196.712584 
L 88.397105 196.595026 
L 88.5952 196.454379 
L 89.369351 196.120958 
L 89.384453 196.134524 
L 89.442748 196.089238 
L 89.815455 195.914632 
L 89.945095 195.884101 
L 90.496371 195.548523 
L 91.177177 195.110406 
L 91.373633 195.080997 
L 91.388427 195.110577 
L 91.629871 194.940714 
L 91.796169 194.850554 
L 92.168301 194.621915 
L 92.21573 194.662211 
L 92.300516 194.58732 
L 92.377907 194.44144 
L 94.274344 193.415507 
L 94.356252 193.392682 
L 94.447506 193.18158 
L 94.974414 192.927806 
L 95.600902 192.288279 
L 95.798931 192.146013 
L 95.934263 191.950124 
L 96.60443 191.589858 
L 97.000977 191.407141 
L 97.451435 191.112023 
L 97.54569 191.08313 
L 97.473864 191.114498 
L 97.557717 191.116977 
L 98.141037 190.698708 
L 98.274156 190.451528 
L 98.311395 190.485825 
L 98.435972 190.344935 
L 98.50342 190.203127 
L 98.635942 190.071405 
L 99.678466 189.670169 
L 99.804829 189.476914 
L 100.000725 189.410013 
L 100.147771 189.39938 
L 100.231479 189.214717 
L 101.000508 188.83054 
L 101.18229 188.687715 
L 101.92959 188.409608 
L 102.236249 188.138766 
L 102.32308 188.027111 
L 102.377876 187.989772 
L 102.425283 188.001597 
L 102.71604 187.771738 
L 102.730645 187.845943 
L 102.879671 187.931432 
L 102.889049 187.918777 
L 103.184859 187.829171 
L 103.202538 187.903881 
L 103.709731 187.736214 
L 103.825683 187.607572 
L 104.125441 187.436702 
L 104.264029 187.292996 
L 104.672927 187.020597 
L 104.688277 187.083759 
L 104.774415 186.975086 
L 104.784092 187.000069 
L 104.846717 186.87914 
L 104.893914 186.811688 
L 104.92587 186.911876 
L 104.948192 186.871304 
L 106.070152 185.837411 
L 106.086222 185.877136 
L 106.433203 185.661818 
L 107.449729 184.932612 
L 107.693977 184.655495 
L 108.665562 184.00844 
L 108.790066 184.028463 
L 108.798446 183.981015 
L 108.806013 184.006857 
L 108.983163 183.787958 
L 109.09888 183.739885 
L 109.102361 183.627355 
L 109.187675 183.789354 
L 109.204588 183.757131 
L 109.333719 183.63765 
L 109.34475 183.679935 
L 109.360237 183.722248 
L 109.446337 183.657361 
L 109.749439 183.207932 
L 110.187078 183.022084 
L 110.275434 181.993994 
L 110.301603 182.020375 
L 113.161581 180.273635 
L 113.184841 180.319797 
L 113.250345 180.261601 
L 113.382847 180.073886 
L 113.480705 179.837895 
L 113.494186 179.884388 
L 113.601528 179.759647 
L 113.735053 179.52 
L 114.204426 179.180674 
L 114.388858 179.288565 
L 114.392592 179.26805 
L 114.559408 179.026939 
L 114.60507 179.053979 
L 114.635404 179.149644 
L 114.691766 179.00425 
L 114.946803 178.801281 
L 115.059025 178.786341 
L 115.661543 178.487981 
L 115.721302 178.402002 
L 115.751415 178.429282 
L 116.26014 178.022421 
L 116.345284 177.91281 
L 116.371287 177.940016 
L 116.923758 177.511466 
L 116.944316 177.538688 
L 117.414628 176.981449 
L 117.922563 176.534486 
L 117.942478 176.612217 
L 118.277184 176.245842 
L 118.407958 175.959104 
L 118.509959 176.03741 
L 118.525798 175.989348 
L 118.622652 175.941206 
L 118.64532 175.992479 
L 118.663448 176.043795 
L 118.736366 175.923203 
L 118.745934 175.950451 
L 118.811989 175.902055 
L 119.384602 175.256471 
L 119.43856 175.206451 
L 119.447136 175.258745 
L 119.630573 175.313433 
L 119.902127 175.114536 
L 120.142811 174.784536 
L 120.167154 174.811777 
L 120.23941 174.760658 
L 120.602234 174.558102 
L 120.623377 174.611185 
L 120.628141 174.664314 
L 120.696887 174.612665 
L 120.793022 174.693275 
L 120.812061 174.641538 
L 121.656495 174.153506 
L 121.675761 174.207711 
L 121.729527 174.127721 
L 121.811139 174.15622 
L 121.858998 174.211629 
L 121.933643 174.184847 
L 122.038199 173.996704 
L 122.180355 173.671399 
L 122.273262 173.589669 
L 122.393077 173.61721 
L 122.412501 173.589818 
L 122.660162 173.259159 
L 122.672743 173.314294 
L 122.790639 172.641111 
L 123.018926 172.467709 
L 123.374341 171.915233 
L 123.387682 171.971423 
L 123.454955 171.795879 
L 123.568409 171.530688 
L 123.941999 171.183754 
L 124.057404 171.062835 
L 124.318649 170.785141 
L 124.318913 170.754527 
L 124.40872 170.976831 
L 124.414752 170.946146 
L 124.611821 170.598151 
L 124.63036 170.656181 
L 124.698909 170.625052 
L 124.815901 170.43763 
L 124.953319 170.185999 
L 124.959944 170.244286 
L 125.053738 170.117773 
L 125.070893 170.176171 
L 125.14035 170.080996 
L 125.490095 169.862687 
L 125.490501 169.921692 
L 125.552471 169.857218 
L 125.880489 169.55354 
L 125.923239 169.317672 
L 125.968758 169.403926 
L 126.328411 169.198952 
L 126.358224 169.258828 
L 126.374445 169.318766 
L 126.438799 169.185719 
L 126.457385 169.118989 
L 126.549291 169.179071 
L 126.758446 169.394672 
L 126.969753 169.016478 
L 127.090619 169.192934 
L 127.102127 169.124842 
L 127.217779 168.705676 
L 127.255168 168.53234 
L 127.338461 168.682772 
L 127.556668 168.589705 
L 127.584927 168.651888 
L 127.617053 168.546738 
L 127.634669 168.573921 
L 127.705448 168.503586 
L 127.718129 168.565991 
L 127.887257 168.585348 
L 128.018243 167.980109 
L 128.055167 168.07006 
L 128.105676 167.925977 
L 128.225673 167.771868 
L 128.810139 167.031481 
L 128.817249 167.095436 
L 128.834174 167.223561 
L 128.87609 166.961282 
L 128.899771 166.987935 
L 128.973833 166.863625 
L 128.998715 166.928136 
L 129.385844 166.577143 
L 129.601537 166.26806 
L 129.751073 166.099712 
L 129.769639 166.152444 
L 129.890114 166.244583 
L 129.912357 166.166211 
L 130.065921 166.035349 
L 130.316829 165.890286 
L 130.344244 165.850526 
L 130.378685 165.916747 
L 130.406166 165.320765 
L 130.52586 165.388134 
L 130.55958 165.306108 
L 130.561622 165.265021 
L 130.648897 165.533591 
L 131.160891 165.171783 
L 131.168351 165.240292 
L 131.209891 165.156585 
L 131.254108 165.183297 
L 131.279343 165.141332 
L 131.991335 165.041765 
L 132.103431 164.771682 
L 132.112425 164.798199 
L 132.114076 164.867407 
L 132.18525 164.782101 
L 132.537263 164.594339 
L 132.722114 164.647393 
L 133.116575 164.310113 
L 133.191902 164.380188 
L 133.225237 164.292822 
L 133.457494 164.275466 
L 133.650123 164.143722 
L 133.996998 163.99349 
L 134.00406 163.886607 
L 134.103875 163.912824 
L 134.113628 164.054522 
L 134.128265 163.965459 
L 134.455476 163.723077 
L 134.527992 163.633017 
L 134.528528 163.704277 
L 135.811498 162.84 
L 135.963885 162.891952 
L 136.066869 162.870818 
L 136.108727 162.944181 
L 136.283718 162.780802 
L 136.462432 162.663903 
L 136.721371 162.720486 
L 136.894708 162.527903 
L 136.918199 162.602275 
L 136.951193 162.505627 
L 137.182405 162.360163 
L 137.309022 162.61047 
L 137.313902 162.561855 
L 137.456306 162.366731 
L 137.65802 162.097882 
L 137.671981 162.173187 
L 137.758912 162.123802 
L 137.934103 162.149793 
L 138.178689 162.07668 
L 138.256436 162.152388 
L 138.269401 162.102715 
L 138.324038 162.052973 
L 138.327694 162.128821 
L 138.337658 162.204774 
L 138.42032 162.155 
L 138.682395 162.083774 
L 138.806866 162.136482 
L 138.855136 162.21324 
L 138.88702 162.162947 
L 139.147271 162.06215 
L 139.169381 162.139072 
L 139.190461 161.9367 
L 139.259194 161.835085 
L 139.261688 161.86133 
L 139.334831 161.938599 
L 139.794683 161.477713 
L 140.052303 161.607977 
L 140.089096 161.556095 
L 140.089704 161.504138 
L 140.181757 161.660719 
L 140.196736 161.608726 
L 140.331952 161.4 
L 140.381375 161.478555 
L 140.396613 161.426204 
L 140.478723 161.083493 
L 140.538861 161.109446 
L 140.575804 161.188534 
L 141.316982 160.543516 
L 141.382879 159.691078 
L 141.429931 159.771236 
L 141.656204 159.684658 
L 141.793689 159.951493 
L 141.7962 159.895698 
L 142.013356 159.665106 
L 142.056775 159.746464 
L 142.065909 159.633542 
L 142.176751 159.406662 
L 142.208798 159.513078 
L 142.55526 158.248696 
L 142.60729 158.332215 
L 142.643629 158.272399 
L 142.682681 158.212488 
L 142.69623 158.296178 
L 142.738666 158.463956 
L 142.813936 158.404006 
L 142.949265 158.283822 
L 143.069119 158.102825 
L 143.110231 158.126523 
L 143.187721 158.00522 
L 143.467645 157.770145 
L 143.475018 157.855101 
L 143.547621 157.670276 
L 143.959496 157.546558 
L 143.972322 157.484549 
L 144.237176 157.445472 
L 144.292491 157.616378 
L 144.306142 157.491765 
L 144.372292 157.264236 
L 144.49721 157.350173 
L 144.930344 157.166495 
L 144.943003 157.299634 
L 145.020897 157.002678 
L 145.076409 156.831933 
L 145.134592 156.919529 
L 145.160869 157.007273 
L 145.40689 156.877639 
L 145.413777 156.747568 
L 145.474236 156.770355 
L 145.632597 156.574148 
L 145.729798 156.442787 
L 145.939514 156.421638 
L 146.193053 156.245039 
L 146.405982 156.044948 
L 146.705354 155.843824 
L 146.710044 155.932759 
L 146.771289 155.798135 
L 147.15918 155.34423 
L 147.298494 153.829867 
L 147.319411 153.919858 
L 147.569658 153.599462 
L 147.677626 153.255812 
L 147.703518 153.182981 
L 147.836545 153.273852 
L 147.880008 153.200905 
L 147.889742 153.127826 
L 147.898877 153.218894 
L 147.9891 153.145699 
L 148.146956 152.869051 
L 148.148242 152.886581 
L 148.222471 152.904176 
L 148.267841 152.681102 
L 148.36962 152.773015 
L 148.37116 152.698399 
L 148.876558 152.356809 
L 148.899839 152.449359 
L 149.116733 152.542082 
L 149.120563 152.466419 
L 149.35012 152.238582 
L 150.188126 151.624737 
L 150.36933 151.811073 
L 150.534302 151.578584 
L 150.762637 151.188159 
L 151.263475 150.93144 
L 151.278891 151.025821 
L 151.3653 150.946154 
L 151.672916 151.055699 
L 151.83819 150.83 
L 151.840117 150.925199 
L 151.866357 150.84466 
L 151.985188 150.940058 
L 152.030795 150.859377 
L 152.188047 150.61639 
L 152.288315 150.712031 
L 152.313196 150.630733 
L 152.389638 150.645132 
L 152.422318 150.481766 
L 152.861846 149.944414 
L 152.892994 150.041194 
L 153.021088 150.235334 
L 153.051204 150.43025 
L 153.54238 149.927035 
L 153.685455 149.673145 
L 154.092169 149.784146 
L 154.106807 149.699028 
L 154.316997 149.270844 
L 154.443261 149.467768 
L 154.478053 149.39411 
L 154.516651 149.406639 
L 154.587601 149.32 
L 154.817428 149.245432 
L 154.855994 149.357399 
L 155.290732 148.830779 
L 155.311836 148.930728 
L 155.639918 149.244263 
L 156.379425 148.270678 
L 156.78146 148.393738 
L 156.808155 148.302601 
L 157.075291 148.21127 
L 157.290046 148.426624 
L 157.662573 148.334936 
L 157.805126 148.43768 
L 157.960088 148.161466 
L 158.021053 148.264466 
L 158.071166 148.367689 
L 158.096334 148.275243 
L 158.156232 148.182597 
L 158.320265 148.389761 
L 158.991506 147.839737 
L 159.150223 147.5564 
L 159.593599 147.096851 
L 159.619234 147.201643 
L 159.697095 147.306667 
L 159.727894 147.210367 
L 159.777077 147.017124 
L 160.085416 147.227933 
L 160.106656 147.333691 
L 160.130312 147.236775 
L 160.297268 147.34278 
L 160.481776 147.050754 
L 160.523024 146.952973 
L 160.562623 147.059256 
L 160.659288 146.961264 
L 160.857922 147.067797 
L 161.323344 146.879319 
L 161.516666 146.589589 
L 161.621477 146.696914 
L 161.725052 147.12868 
L 161.745959 147.028966 
L 162.046995 146.651163 
L 162.319129 146.760559 
L 162.33805 146.659021 
L 162.369913 146.557246 
L 162.680243 146.352982 
L 162.90124 145.941575 
L 162.910132 146.051294 
L 163.006503 145.947845 
L 163.140734 145.844151 
L 163.202051 145.954144 
L 163.207553 145.850213 
L 164.524723 144.490936 
L 164.5713 144.602628 
L 164.595154 144.826829 
L 164.946646 144.718095 
L 164.994931 144.830611 
L 165.009485 144.721616 
L 165.183619 144.393022 
L 165.504222 144.172611 
L 165.648024 144.285425 
L 166.124791 143.730746 
L 166.336977 143.052932 
L 166.364725 143.28 
L 166.665361 142.937251 
L 166.679861 142.822424 
L 166.753108 143.050633 
L 166.981448 143.28 
L 167.226985 143.627126 
L 167.748998 143.512905 
L 167.768271 143.629807 
L 167.833255 143.396903 
L 167.856823 143.28 
L 168.091552 143.397206 
L 168.40725 143.16249 
L 168.620834 142.687843 
L 168.734721 142.805654 
L 168.848046 142.686291 
L 169.195367 142.566614 
L 169.26432 142.684731 
L 169.313899 142.564737 
L 169.801802 142.32127 
L 169.886195 142.2 
L 169.888604 142.318727 
L 170.261878 142.197131 
L 170.346342 142.31617 
L 171.152815 141.822627 
L 171.171252 141.69906 
L 171.340315 141.575161 
L 171.363629 141.694805 
L 171.396736 141.814771 
L 171.872904 141.565946 
L 171.908328 141.441028 
L 172.360861 141.55663 
L 172.542757 141.178772 
L 172.711532 140.918683 
L 172.722015 141.03989 
L 172.783274 141.161431 
L 172.98179 140.905655 
L 173.071095 140.519335 
L 173.413043 140.885841 
L 173.497423 140.756323 
L 173.699794 140.879163 
L 173.811499 140.619021 
L 173.843363 140.742185 
L 173.961553 140.611557 
L 174.124035 140.735056 
L 175.033843 140.456771 
L 175.111009 140.831351 
L 175.173132 140.698803 
L 175.176596 140.950286 
L 175.356417 141.203209 
L 175.457798 141.070244 
L 175.483792 140.936897 
L 175.811806 140.930144 
L 175.924423 140.796017 
L 176.162784 141.044586 
L 176.191587 140.909651 
L 176.31061 140.774323 
L 176.455895 141.031533 
L 177.059803 141.284405 
L 177.271313 140.737312 
L 178.042672 140.452957 
L 178.042963 140.313929 
L 178.079969 140.444531 
L 178.345436 140.155862 
L 178.854726 139.873985 
L 179.019584 139.590407 
L 179.067299 139.721692 
L 179.119283 139.579244 
L 179.721392 139.436364 
L 180.079391 139.568012 
L 180.083902 139.700061 
L 180.892386 138.965714 
L 180.94073 139.098462 
L 180.966971 138.952419 
L 181.013134 138.65898 
L 181.307784 138.511579 
L 181.503665 138.778137 
L 181.879869 138.481869 
L 182.051514 138.18375 
L 182.252071 138.033991 
L 182.350736 138.167774 
L 182.515413 138.01752 
L 182.96146 138.286299 
L 183.027431 137.832532 
L 183.277668 137.96748 
L 183.302002 137.662512 
L 183.359043 137.797834 
L 183.405985 137.933589 
L 183.446775 137.780319 
L 183.541307 137.472308 
L 184.253586 136.850323 
L 184.33682 136.9863 
L 184.640078 137.122718 
L 184.745953 136.808571 
L 184.790921 136.945366 
L 184.797204 137.082606 
L 184.884148 136.924698 
L 184.900573 137.062353 
L 185.091987 136.903895 
L 185.12904 137.041967 
L 185.309483 136.723421 
L 185.602174 137.000792 
L 185.768159 136.518806 
L 186.023092 136.357076 
L 186.075759 136.007759 
L 186.406021 135.843819 
L 186.429265 136.123361 
L 186.509341 136.099224 
L 186.829935 135.602034 
L 187.093357 135.435178 
L 187.207406 135.575918 
L 187.246232 135.40845 
L 187.266173 135.549625 
L 187.355178 135.691282 
L 187.531866 135.354443 
L 188.061364 135.015284 
L 188.089446 134.844828 
L 188.465376 134.502145 
L 188.503744 134.329913 
L 188.810817 134.157083 
L 189.087691 134.583665 
L 189.737902 133.885624 
L 189.915321 134.172063 
L 189.931877 133.995901 
L 189.977502 133.819115 
L 190.043612 133.962979 
L 190.29639 133.607402 
L 190.311267 133.428663 
L 190.770145 132.888602 
L 191.216989 132.707289 
L 192.369336 133.14065 
L 192.6442 132.737455 
L 192.815363 132.883279 
L 193.036676 132.514004 
L 193.383729 132.328352 
L 193.714426 131.578893 
L 193.940872 131.724732 
L 194.08636 131.345677 
L 194.098172 131.491896 
L 194.343456 131.78597 
L 194.368837 131.933832 
L 194.44021 131.742921 
L 194.45966 131.551295 
L 194.779507 130.972075 
L 195.17112 131.120076 
L 195.343318 130.730095 
L 195.434881 130.533992 
L 195.494346 130.682286 
L 195.624794 130.485344 
L 196.255523 130.783448 
L 196.357551 130.386923 
L 196.548527 129.987336 
L 196.58824 129.786383 
L 196.812474 129.935814 
L 197.555804 129.327953 
L 197.724974 128.918748 
L 197.727415 129.068235 
L 197.905585 128.655591 
L 198.013672 128.805444 
L 198.547496 129.106931 
L 198.619132 128.899048 
L 198.851247 129.050577 
L 199.041788 128.841753 
L 199.08938 128.993772 
L 199.438322 128.784 
L 199.751816 128.149618 
L 199.943354 128.454545 
L 200.376163 128.241134 
L 200.477172 128.394402 
L 200.917954 128.548293 
L 201.019241 128.702811 
L 201.096089 128.488163 
L 201.316067 128.272638 
L 201.552643 128.427541 
L 201.653685 127.99358 
L 201.665409 128.148866 
L 201.715927 127.930413 
L 201.96023 128.399751 
L 202.064233 128.5575 
L 202.41048 128.715908 
L 202.669521 128.4959 
L 203.089292 128.814454 
L 203.12711 128.974737 
L 203.500534 129.297336 
L 203.790414 129.075763 
L 203.922702 129.400851 
L 203.939059 129.178081 
L 204.134987 129.341538 
L 204.147589 129.505696 
L 204.191522 129.281717 
L 204.310538 129.056774 
L 204.573366 129.221379 
L 204.585514 128.768312 
L 204.955053 129.09913 
L 205.031967 129.265621 
L 205.196159 129.037205 
L 205.337918 129.204289 
L 205.64477 128.512599 
L 205.752774 128.68 
L 205.954874 128.447257 
L 206.302823 128.784 
L 206.464431 128.484027 
L 206.760798 128.824719 
L 206.798754 128.350429 
L 207.225008 128.521629 
L 207.336883 128.282721 
L 207.437616 128.454545 
L 207.453611 128.214396 
L 207.632969 127.973151 
L 208.009183 127.730801 
L 208.287697 128.075862 
L 208.63539 127.587159 
L 209.127087 127.093921 
L 209.414665 127.440839 
L 209.591044 127.615514 
L 209.748758 127.366651 
L 209.881864 127.718118 
L 209.984438 127.467736 
L 210.323923 127.644539 
L 210.424221 127.392796 
L 210.952581 126.885714 
L 211.001174 126.630358 
L 211.134182 126.807273 
L 211.155815 126.550504 
L 211.298185 126.728077 
L 211.45821 126.210435 
L 211.682224 126.388475 
L 211.85257 126.127573 
L 211.883757 125.865401 
L 212.122296 125.601951 
L 212.27311 126.139459 
L 212.326877 126.320394 
L 212.375672 126.054815 
L 212.657188 125.787921 
L 212.820647 125.96933 
L 212.906892 125.431122 
L 213.010505 125.613 
L 213.317836 125.341654 
L 213.390397 125.068945 
L 213.438476 125.251285 
L 213.588327 124.97697 
L 213.598623 125.16 
L 213.623079 125.343959 
L 214.107914 125.528855 
L 214.224243 125.714694 
L 214.881719 125.438056 
L 214.899126 125.16 
L 215.167249 125.346324 
L 215.348551 124.785426 
L 215.555781 124.972228 
L 215.639005 125.34875 
L 215.764997 124.780524 
L 216.489073 124.969764 
L 216.5099 125.16 
L 216.51988 124.87314 
L 217.127495 125.064127 
L 217.217154 125.449149 
L 217.576841 125.6432 
L 217.649604 125.838289 
L 217.905886 125.548633 
L 217.94526 125.257419 
L 218.182724 125.453046 
L 218.373265 126.046304 
L 218.430007 125.75248 
L 218.463534 125.952131 
L 218.699122 125.656438 
L 218.910173 125.856923 
L 218.984894 125.26011 
L 219.011694 125.461163 
L 219.066398 125.86663 
L 219.11305 125.564916 
L 219.308229 125.261513 
L 219.797717 125.465393 
L 219.811818 125.670423 
L 219.99676 125.87661 
L 220.353412 125.570652 
L 220.504247 125.985983 
L 220.814973 125.677714 
L 220.834734 125.886877 
L 220.978967 126.097241 
L 221.119136 125.786628 
L 221.223415 125.997919 
L 221.989906 126.639184 
L 222.082466 125.692941 
L 222.944827 125.908319 
L 223.059627 125.588876 
L 223.372402 125.267537 
L 223.567024 125.700896 
L 223.572104 125.377006 
L 223.822473 124.723373 
L 224.477408 124.393595 
L 224.600386 124.061818 
L 225.046113 124.278784 
L 225.339392 123.944634 
L 225.418648 124.162569 
L 226.140173 124.602462 
L 227.354629 125.272547 
L 227.474269 125.498692 
L 227.619491 125.16 
L 227.798516 125.38721 
L 228.087409 125.046038 
L 228.110526 124.702713 
L 228.141302 124.930633 
L 228.422941 125.16 
L 228.523642 125.390828 
L 229.018398 125.044217 
L 229.144311 124.695385 
L 229.252671 124.926945 
L 229.364231 124.575484 
L 229.491075 124.808155 
L 229.566632 124.454026 
L 230.316238 124.923137 
L 230.730219 124.565902 
L 231.124942 125.040396 
L 231.180429 125.28 
L 231.643516 124.556 
L 231.840708 124.796388 
L 232.198303 125.038389 
L 232.872187 125.28202 
L 233.431672 124.915135 
L 233.464689 124.545763 
L 233.803907 124.173878 
L 233.953902 123.799454 
L 234.032521 124.043014 
L 234.404776 123.665567 
L 234.490449 123.285517 
L 234.514354 123.529827 
L 234.871056 123.775833 
L 234.974391 124.023554 
L 235.301761 123.639441 
L 235.316258 123.888421 
L 235.910531 124.139155 
L 236.469932 123.751378 
L 236.807988 124.003404 
L 236.937202 123.218571 
L 237.225025 122.821935 
L 237.523655 123.074245 
L 237.720055 122.674224 
L 238.075776 122.927826 
L 238.170364 123.183273 
L 238.529566 123.440584 
L 238.63931 122.628529 
L 239.11958 123.146667 
L 239.668821 123.408625 
L 239.736933 123.672537 
L 240.22346 123.938427 
L 240.400274 124.206316 
L 240.781402 124.476226 
L 240.86114 124.748182 
L 241.533918 125.022205 
L 241.694645 125.298321 
L 242.087324 124.882299 
L 242.342815 125.16 
L 242.379249 125.439846 
L 242.80216 125.019535 
L 243.074342 125.301012 
L 243.198166 124.876875 
L 243.332731 125.16 
L 243.34673 124.731969 
L 244.466137 125.016759 
L 244.690297 125.593147 
L 245.116846 125.8848 
L 245.221572 125.451084 
L 245.386759 125.744516 
L 245.861367 126.040324 
L 245.963167 125.899592 
L 246.080187 126.502222 
L 246.162448 126.058512 
L 246.473226 125.61112 
L 246.686082 125.915 
L 246.821666 125.463264 
L 246.952186 125.769076 
L 247.055559 125.312911 
L 247.09301 125.620678 
L 247.46662 126.244103 
L 247.529567 126.559828 
L 247.926327 126.097241 
L 248.118437 125.630649 
L 248.169666 125.16 
L 249.005815 125.795789 
L 249.331093 125.319648 
L 249.55345 125.641062 
L 250.055577 125.16 
L 250.262614 124.674643 
L 250.641755 124.184933 
L 250.70854 123.690811 
L 250.898587 124.012127 
L 250.957147 124.336364 
L 251.24524 123.836164 
L 251.694392 124.491982 
L 251.735128 124.824444 
L 252.157624 124.317209 
L 252.533372 124.651963 
L 253.103942 123.621509 
L 253.494016 123.098957 
L 253.585595 122.571429 
L 253.697401 122.905837 
L 254.227252 123.584348 
L 254.233367 123.928544 
L 254.349621 123.392195 
L 254.684098 124.088867 
L 254.727901 123.545347 
L 255.128365 123.89791 
L 255.353632 122.792563 
L 255.506344 123.146667 
L 255.621239 122.584569 
L 256.009451 122.016735 
L 256.026436 122.372308 
L 256.085275 121.797526 
L 256.18393 122.155648 
L 256.225906 121.57375 
L 256.256583 121.93445 
L 256.833217 121.345263 
L 257.002655 120.749841 
L 257.114372 121.477861 
L 257.36542 121.847742 
L 257.744356 121.242162 
L 258.387104 121.614783 
L 258.658351 119.12 
L 259.21183 119.491173 
L 259.427725 118.848539 
L 259.558483 119.222373 
L 259.838363 119.600455 
L 259.85994 119.982857 
L 260.16306 119.328276 
L 260.661684 118.666127 
L 260.823101 117.996279 
L 260.869314 118.378246 
L 261.017292 117.698824 
L 261.569642 118.472857 
L 261.620315 117.781796 
L 261.994986 118.173976 
L 262.062035 117.472727 
L 262.44868 116.762927 
L 262.918218 117.554074 
L 262.924496 117.957019 
L 263.559232 117.2325 
L 263.573944 116.498868 
L 263.663305 116.902785 
L 263.77675 115.403077 
L 264.119274 115.807742 
L 264.176966 116.217662 
L 264.537702 116.632941 
L 265.745579 117.48 
L 265.901911 118.793514 
L 266.040171 118.010612 
L 266.109818 118.458082 
L 266.160405 117.758873 
L 266.48836 118.220426 
L 266.506048 118.688571 
L 266.800138 117.859856 
L 266.819286 117.01913 
L 267.309145 116.166131 
L 267.543872 115.300588 
L 267.63371 114.422222 
L 267.7338 114.882985 
L 268.25389 115.350677 
L 268.54515 115.825455 
L 268.991085 116.307481 
L 269.017524 116.796923 
L 269.655614 115.889302 
L 269.863926 116.383125 
L 270.042667 113.5632 
L 271.000517 114.553171 
L 271.644939 113.575082 
L 271.725272 114.078347 
L 272.542732 114.59 
L 272.623248 115.110252 
L 272.686835 114.103729 
L 273.197006 114.628718 
L 273.985723 115.162759 
L 274.119992 115.706087 
L 274.40157 114.669474 
L 274.458462 113.614513 
L 274.747953 114.712432 
L 275.400172 113.629091 
L 275.747521 114.188257 
L 276.013245 113.08 
L 276.26465 113.644486 
L 276.362626 114.219623 
L 276.949014 114.805714 
L 277.268181 113.660769 
L 277.758655 114.252816 
L 277.9631 114.856471 
L 278.361182 113.67802 
L 278.960812 112.476 
L 279.115836 109.998367 
L 279.468214 110.589278 
L 280.102216 111.1925 
L 280.113165 108.582128 
L 281.960097 111.066667 
L 281.997248 109.686742 
L 282.187523 110.334545 
L 282.334532 108.914483 
L 282.808384 109.568372 
L 283.629011 110.237647 
L 284.135867 110.922857 
L 284.306169 111.624578 
L 285.062528 112.343415 
L 285.064594 113.08 
L 285.236005 113.835 
L 285.782744 114.609114 
L 285.937209 113.08 
L 285.981198 113.864416 
L 286.143601 114.669474 
L 286.459135 113.08 
L 287.18644 111.447568 
L 287.225294 112.252603 
L 287.579629 113.08 
L 288.067898 113.930704 
L 289.002427 112.217143 
L 289.522716 110.453913 
L 289.601014 111.303529 
L 289.982147 112.178507 
L 290.155116 110.334545 
L 290.931379 111.221538 
L 291.0217 112.13625 
L 291.536969 108.209032 
L 292.592951 109.119344 
L 294.079124 110.06 
L 294.139033 111.032542 
L 294.712991 108.914483 
L 294.973481 106.722105 
L 295.496468 107.687143 
L 295.776335 105.392727 
L 295.952329 100.544151 
L 296.038641 101.464615 
L 296.893696 102.421176 
L 297.001583 103.416 
L 297.025469 100.753469 
L 297.610325 101.755 
L 297.785588 98.94383 
L 297.827873 99.949565 
L 298.112875 101 
L 298.16144 102.098182 
L 298.742062 103.247442 
L 299.027174 105.714146 
L 299.375688 102.51 
L 300.158423 103.787692 
L 300.161177 105.132632 
L 301.262188 101.652973 
L 302.826794 103.013333 
L 305.353254 104.451429 
L 309.994446 105.974118 
L 310.705647 102.098182 
L 311.959353 97.98 
L 314.223611 93.596129 
L 314.261212 94.96 
L 315.073422 96.417931 
L 315.097531 91.508571 
L 315.314613 92.946667 
L 315.672071 94.495385 
L 316.825557 88.92 
L 316.996012 90.43 
L 318.436864 92.071304 
L 319.332557 93.861818 
L 319.924856 97.98 
L 323.651788 100.364211 
L 324.912275 103.013333 
L 326.103592 105.974118 
L 327.079275 109.305 
L 328.203592 101 
L 329.014115 91.508571 
L 330.065411 94.495385 
L 330.925944 97.98 
L 331.663215 102.098182 
L 333.73493 107.04 
L 336.878754 113.08 
L 337.729224 120.63 
L 338.668828 130.337143 
L 339.007357 143.28 
L 344.325331 161.4 
L 345.990367 188.58 
L 347.300771 173.48 
L 347.798834 233.88 
L 350.085127 233.88 
L 370.66256 52.68 
L 370.66256 52.68 
" clip-path="url(#p49d9bcda17)" style="fill: none; stroke: #1f77b4; stroke-width: 1.5; stroke-linecap: square"/>
   </g>
   <g id="line2d_14">
    <path d="M 76.697203 52.847159 
L 77.21498 52.847159 
L 77.253893 53.014317 
L 77.936077 53.014317 
L 78.061752 53.181476 
L 80.08931 53.181476 
L 80.247011 53.348635 
L 81.015632 53.348635 
L 81.090292 53.515793 
L 83.064534 53.515793 
L 83.16591 54.685904 
L 83.247616 54.853063 
L 83.378849 54.853063 
L 83.693998 55.020221 
L 84.051685 55.020221 
L 84.164981 55.18738 
L 84.259131 55.18738 
L 84.351667 55.521697 
L 84.561785 55.521697 
L 84.694392 55.856015 
L 84.823313 55.856015 
L 84.955654 56.023173 
L 85.041366 56.023173 
L 85.159842 56.190332 
L 86.476542 56.190332 
L 86.62752 56.691808 
L 86.652214 56.691808 
L 86.75967 56.858967 
L 86.89965 56.858967 
L 87.021134 57.360443 
L 87.058316 57.360443 
L 87.178948 57.69476 
L 87.380174 57.69476 
L 87.482014 57.861919 
L 87.625 57.861919 
L 87.736824 58.196236 
L 88.133578 58.196236 
L 88.278912 58.363395 
L 88.330851 58.363395 
L 88.40639 58.530554 
L 88.543233 58.530554 
L 88.620938 58.697712 
L 88.748518 58.697712 
L 88.843112 59.366347 
L 89.380197 59.366347 
L 89.487998 59.533506 
L 90.146251 59.533506 
L 90.261927 59.700664 
L 90.329692 59.700664 
L 90.464123 59.867823 
L 90.535249 59.867823 
L 90.666022 60.034982 
L 90.821196 60.034982 
L 90.963352 60.703616 
L 90.994993 60.703616 
L 91.094283 61.205092 
L 91.305853 61.205092 
L 91.420293 61.706568 
L 91.650592 61.706568 
L 91.76066 62.208044 
L 92.028701 62.208044 
L 92.128431 62.542362 
L 92.189839 62.542362 
L 92.300516 63.043838 
L 92.375103 63.043838 
L 92.473327 64.04679 
L 92.517754 64.04679 
L 92.631462 64.213948 
L 92.683211 64.213948 
L 92.800545 64.548266 
L 92.881075 64.548266 
L 92.968992 64.715424 
L 93.096453 64.715424 
L 93.23615 65.2169 
L 93.268846 65.2169 
L 93.369504 65.384059 
L 93.557839 65.384059 
L 93.731817 65.885535 
L 93.750769 65.885535 
L 93.869886 66.219852 
L 94.036437 66.219852 
L 94.162653 66.721328 
L 94.342116 66.721328 
L 94.509298 67.557122 
L 94.560283 67.557122 
L 94.666787 68.058598 
L 94.717255 68.058598 
L 94.829364 68.392915 
L 94.882734 68.392915 
L 95.002421 68.560074 
L 95.306657 68.560074 
L 95.4129 68.894391 
L 95.784871 68.894391 
L 95.892643 69.06155 
L 95.979459 69.06155 
L 96.175509 69.563026 
L 96.291856 69.563026 
L 96.401339 69.897343 
L 96.547569 69.897343 
L 96.660181 71.234613 
L 96.718477 71.234613 
L 96.778966 71.401771 
L 96.877889 71.401771 
L 97.000977 71.903247 
L 97.171948 71.903247 
L 97.236635 72.237565 
L 97.452567 72.237565 
L 97.607989 72.739041 
L 97.664313 72.739041 
L 97.773851 72.906199 
L 98.274156 72.906199 
L 98.422439 73.073358 
L 98.71003 73.073358 
L 98.801647 73.240517 
L 98.940203 73.240517 
L 99.043492 73.741993 
L 99.221736 74.07631 
L 99.289337 74.07631 
L 99.431542 74.577786 
L 99.885964 74.577786 
L 100.000725 74.912103 
L 100.082962 74.912103 
L 100.196721 75.079262 
L 100.262967 75.079262 
L 100.34827 75.413579 
L 100.411773 75.413579 
L 100.497077 75.580738 
L 100.772963 75.915055 
L 100.872082 75.915055 
L 100.993308 76.082214 
L 101.276716 76.082214 
L 101.546785 77.586642 
L 101.811887 77.586642 
L 101.898388 77.753801 
L 102.086967 77.753801 
L 102.231666 77.920959 
L 102.377876 77.920959 
L 102.472863 78.255277 
L 102.522128 78.255277 
L 102.678347 78.923911 
L 102.71604 78.923911 
L 102.825298 79.926863 
L 102.925189 79.926863 
L 103.013989 80.094022 
L 103.184859 80.094022 
L 103.202538 80.428339 
L 103.544057 80.428339 
L 103.669703 80.762657 
L 104.011054 80.762657 
L 104.132822 81.096974 
L 104.283612 81.096974 
L 104.396612 81.431292 
L 104.450232 81.431292 
L 104.5584 81.765609 
L 104.629496 81.765609 
L 104.857421 82.601402 
L 104.893914 82.601402 
L 105.214099 84.272989 
L 105.48555 84.272989 
L 105.586166 84.607306 
L 105.626013 84.607306 
L 105.768485 84.941624 
L 105.802423 84.941624 
L 105.905259 85.108782 
L 105.95785 85.108782 
L 106.070152 85.275941 
L 106.174881 85.610258 
L 106.278253 85.610258 
L 106.386221 86.111734 
L 106.522467 86.111734 
L 106.619874 86.278893 
L 106.673782 86.278893 
L 106.779104 86.446052 
L 106.953058 86.446052 
L 107.067411 86.780369 
L 107.075247 86.780369 
L 107.180183 86.947528 
L 107.587151 86.947528 
L 107.693977 87.114686 
L 107.714875 87.114686 
L 107.905862 87.616162 
L 108.160694 87.616162 
L 108.297647 87.783321 
L 108.407598 87.783321 
L 108.565805 88.284797 
L 109.127348 89.622066 
L 109.217453 90.123542 
L 109.306761 90.123542 
L 109.446337 90.625018 
L 109.719967 90.625018 
L 109.839522 90.792177 
L 109.933679 90.792177 
L 110.014807 91.126494 
L 110.187078 91.62797 
L 110.301603 93.466716 
L 110.380073 93.466716 
L 110.398596 93.633875 
L 110.513104 93.633875 
L 110.621784 93.968192 
L 110.845307 93.968192 
L 110.948621 94.302509 
L 111.109286 94.636827 
L 111.37855 94.636827 
L 111.542606 94.971144 
L 111.595356 94.971144 
L 111.699749 95.305461 
L 111.813292 95.305461 
L 111.946836 95.639779 
L 112.084087 95.806937 
L 112.294019 95.806937 
L 112.417892 95.974096 
L 112.652871 95.974096 
L 112.774274 96.308413 
L 112.867806 96.308413 
L 113.025717 96.809889 
L 113.027146 96.809889 
L 113.398532 97.478524 
L 113.480705 97.478524 
L 113.60925 97.98 
L 113.773543 97.98 
L 113.991557 98.982952 
L 114.122521 98.982952 
L 114.257841 99.317269 
L 114.293107 99.317269 
L 114.392592 99.818745 
L 114.506295 99.818745 
L 114.857306 100.654539 
L 114.946803 100.654539 
L 115.282831 101.490332 
L 115.478268 101.490332 
L 115.800691 102.158967 
L 116.10555 102.158967 
L 116.222173 102.326125 
L 116.345284 102.326125 
L 116.469361 102.827601 
L 116.814291 102.827601 
L 116.994233 103.161919 
L 117.027603 103.161919 
L 117.158383 103.496236 
L 117.666789 103.496236 
L 117.775176 104.164871 
L 117.922563 104.164871 
L 118.060684 104.666347 
L 118.158879 104.666347 
L 118.277184 105.000664 
L 118.407958 105.000664 
L 118.539609 105.334982 
L 118.622652 105.334982 
L 118.787262 105.836458 
L 118.863612 105.836458 
L 119.076894 106.170775 
L 119.202829 106.170775 
L 119.353038 106.83941 
L 119.372447 106.83941 
L 119.447136 107.173727 
L 119.764756 107.675203 
L 120.144996 107.675203 
L 120.276533 107.842362 
L 120.319367 107.842362 
L 120.423671 108.00952 
L 120.562472 108.176679 
L 120.602234 108.176679 
L 120.740338 108.678155 
L 120.790815 108.678155 
L 120.902075 109.012472 
L 120.960239 109.012472 
L 121.134993 109.179631 
L 121.206322 109.179631 
L 121.314286 109.681107 
L 121.407599 109.681107 
L 121.526092 109.848266 
L 121.601741 109.848266 
L 121.974745 111.185535 
L 122.236849 111.185535 
L 122.32586 111.519852 
L 122.660162 111.519852 
L 122.790639 111.85417 
L 122.913898 111.85417 
L 123.047996 112.188487 
L 123.283918 112.188487 
L 123.409648 112.689963 
L 123.737063 112.689963 
L 123.848557 112.857122 
L 123.967703 113.692915 
L 124.140822 113.692915 
L 124.230448 113.860074 
L 124.318913 113.860074 
L 124.48597 115.197343 
L 124.611821 115.197343 
L 124.698909 115.364502 
L 124.953319 115.364502 
L 125.070893 115.698819 
L 125.373457 115.698819 
L 125.449872 116.534613 
L 125.490095 116.534613 
L 125.552471 116.701771 
L 125.627871 116.701771 
L 125.775663 117.036089 
L 125.880489 117.036089 
L 126.153397 117.704723 
L 126.328411 117.704723 
L 126.457385 118.039041 
L 126.588633 118.373358 
L 126.790872 119.543469 
L 126.888701 119.543469 
L 127.124409 120.379262 
L 127.14385 120.379262 
L 127.270905 120.880738 
L 127.992247 122.385166 
L 128.018243 122.385166 
L 128.110899 122.886642 
L 128.431168 122.886642 
L 128.511429 123.220959 
L 128.585235 123.220959 
L 128.640365 123.388118 
L 128.76525 123.388118 
L 128.880991 124.223911 
L 128.937363 124.223911 
L 128.998715 124.558229 
L 129.107387 124.558229 
L 129.202843 124.892546 
L 129.290277 124.892546 
L 129.452131 125.226863 
L 129.656058 125.226863 
L 129.816414 125.895498 
L 129.840358 125.895498 
L 129.981674 126.062657 
L 130.032572 126.062657 
L 130.065921 126.229815 
L 130.271131 126.229815 
L 130.378685 126.731292 
L 130.406166 128.068561 
L 130.56511 128.402878 
L 130.648897 129.40583 
L 130.80706 129.40583 
L 130.926527 129.572989 
L 131.052836 129.572989 
L 131.160891 129.740148 
L 131.279343 130.074465 
L 131.783802 130.074465 
L 131.788409 130.241624 
L 132.008818 130.241624 
L 132.235234 130.7431 
L 132.474612 130.7431 
L 132.766784 131.244576 
L 132.967687 131.244576 
L 133.059276 131.411734 
L 133.225237 131.746052 
L 133.502437 131.91321 
L 133.841013 131.91321 
L 133.954971 132.080369 
L 133.996998 132.080369 
L 134.113628 132.749004 
L 134.230855 132.749004 
L 134.399943 132.916162 
L 134.527992 132.916162 
L 134.594843 133.083321 
L 134.657588 133.083321 
L 134.659164 133.25048 
L 134.973538 133.584797 
L 135.005667 133.584797 
L 135.184285 133.919114 
L 135.283027 133.919114 
L 135.403759 134.42059 
L 135.437691 134.42059 
L 135.442092 134.587749 
L 135.613714 134.587749 
L 135.735946 134.922066 
L 135.811498 134.922066 
L 136.246006 135.590701 
L 136.276246 135.590701 
L 136.375782 135.925018 
L 136.462432 135.925018 
L 136.743025 136.593653 
L 136.894708 136.593653 
L 136.993308 136.760812 
L 137.182405 136.760812 
L 137.313902 137.429446 
L 137.50807 137.429446 
L 137.934103 137.930923 
L 138.09027 137.930923 
L 138.467106 138.766716 
L 138.622364 139.101033 
L 138.682395 139.101033 
L 138.855136 139.602509 
L 139.147271 139.602509 
L 139.261688 139.936827 
L 139.452947 140.103985 
L 139.486884 140.103985 
L 139.59908 140.438303 
L 139.794683 140.438303 
L 140.147708 141.106937 
L 140.274334 141.274096 
L 140.331952 141.274096 
L 140.678329 142.109889 
L 140.726423 142.109889 
L 140.783279 142.277048 
L 141.316982 142.277048 
L 141.552859 142.778524 
L 141.656204 142.778524 
L 141.837538 143.447159 
L 141.918934 143.447159 
L 142.013356 143.781476 
L 142.168857 143.948635 
L 142.190665 143.948635 
L 142.309158 144.951587 
L 142.380045 144.951587 
L 142.517687 145.118745 
L 142.643629 145.78738 
L 142.682681 145.78738 
L 142.827143 146.288856 
L 143.075817 146.288856 
L 143.187721 146.456015 
L 143.326586 146.456015 
L 143.389382 146.957491 
L 143.467645 146.957491 
L 143.547621 147.124649 
L 144.136753 147.124649 
L 144.28278 147.458967 
L 144.372292 147.793284 
L 144.49721 147.960443 
L 144.662957 147.960443 
L 144.930344 148.461919 
L 145.058026 149.297712 
L 145.076409 149.297712 
L 145.160869 149.63203 
L 145.413777 149.63203 
L 145.474236 149.799188 
L 145.729798 149.799188 
L 145.99611 150.133506 
L 146.001657 150.300664 
L 146.705354 150.300664 
L 146.771289 150.467823 
L 147.131587 150.467823 
L 147.256042 150.80214 
L 147.298494 150.80214 
L 147.411328 150.969299 
L 147.461957 150.969299 
L 147.61808 151.470775 
L 147.703518 151.470775 
L 148.163945 152.13941 
L 148.37116 152.473727 
L 148.645558 152.473727 
L 149.120563 153.142362 
L 150.188126 153.142362 
L 150.492246 153.476679 
L 150.940624 153.476679 
L 151.041006 153.810996 
L 151.148377 153.810996 
L 151.278891 154.312472 
L 151.3653 154.312472 
L 152.128345 155.148266 
L 152.188047 155.148266 
L 152.81807 155.984059 
L 152.861846 155.984059 
L 153.051204 156.819852 
L 153.685455 156.819852 
L 154.014939 156.987011 
L 154.106807 157.15417 
L 154.316997 157.15417 
L 154.587601 157.822804 
L 154.786271 157.822804 
L 154.944513 158.32428 
L 155.290732 158.32428 
L 155.464204 159.160074 
L 156.148857 159.160074 
L 156.297987 159.327232 
L 156.379425 159.327232 
L 156.675027 159.494391 
L 156.808155 159.828708 
L 157.075291 159.828708 
L 157.290046 160.330185 
L 157.662573 160.330185 
L 157.909934 160.497343 
L 157.960088 160.497343 
L 158.320265 161.165978 
L 158.776123 161.165978 
L 158.933321 161.333137 
L 159.304145 161.333137 
L 159.343433 161.667454 
L 159.593599 161.667454 
L 159.74375 162.001771 
L 159.777077 162.001771 
L 160.057154 162.16893 
L 160.130312 162.503247 
L 160.393919 162.670406 
L 160.523024 162.670406 
L 160.659288 162.837565 
L 160.857922 163.004723 
L 161.239729 163.004723 
L 161.430956 163.339041 
L 161.516666 163.339041 
L 161.621477 163.506199 
L 161.745959 164.174834 
L 161.822485 164.174834 
L 161.914434 164.509151 
L 161.971907 164.509151 
L 162.046995 164.67631 
L 162.369913 164.843469 
L 162.90124 164.843469 
L 163.006503 165.010627 
L 163.140734 165.010627 
L 163.313995 165.177786 
L 163.589466 165.177786 
L 163.794585 165.512103 
L 164.147479 165.512103 
L 164.253968 165.846421 
L 164.459213 165.846421 
L 164.595154 166.515055 
L 164.946646 166.515055 
L 165.097837 166.682214 
L 165.504222 166.682214 
L 165.93767 167.016531 
L 166.336977 167.016531 
L 166.483339 167.350849 
L 166.679861 167.350849 
L 166.810775 167.852325 
L 166.981448 168.019483 
L 167.226985 168.688118 
L 167.668208 168.688118 
L 167.768271 169.189594 
L 167.856823 169.189594 
L 168.091552 169.356753 
L 168.541474 169.356753 
L 168.620834 169.523911 
L 168.848046 169.69107 
L 169.195367 169.69107 
L 169.313899 169.858229 
L 169.717223 169.858229 
L 169.801802 170.025387 
L 169.886195 170.025387 
L 169.888604 170.192546 
L 170.261878 170.192546 
L 170.346342 170.359705 
L 170.589384 170.359705 
L 170.708017 170.526863 
L 171.340315 170.526863 
L 171.396736 170.861181 
L 171.908328 170.861181 
L 172.711532 171.362657 
L 172.783274 171.696974 
L 173.071095 171.696974 
L 173.413043 172.19845 
L 173.497423 172.19845 
L 174.124035 172.699926 
L 174.500423 172.699926 
L 174.622086 172.867085 
L 174.931984 172.867085 
L 175.038726 173.201402 
L 175.176596 173.870037 
L 175.811806 174.371513 
L 175.924423 174.371513 
L 176.136139 174.70583 
L 176.191587 174.872989 
L 176.31061 174.872989 
L 176.455895 175.207306 
L 176.980863 175.541624 
L 177.128987 175.708782 
L 177.813537 175.708782 
L 178.345436 176.210258 
L 179.019584 176.210258 
L 179.119283 176.377417 
L 179.721392 176.377417 
L 180.079391 176.544576 
L 180.083902 176.711734 
L 180.608066 176.711734 
L 180.739822 176.878893 
L 180.892386 176.878893 
L 181.013134 177.046052 
L 181.307784 177.046052 
L 181.503665 177.380369 
L 182.252071 177.380369 
L 182.350736 177.547528 
L 182.515413 177.547528 
L 183.695383 178.383321 
L 184.253586 178.383321 
L 184.33682 178.55048 
L 184.790921 178.884797 
L 184.900573 179.219114 
L 185.091987 179.219114 
L 185.12904 179.386273 
L 185.309483 179.386273 
L 185.768159 179.72059 
L 186.043681 179.72059 
L 186.075759 179.887749 
L 186.406021 179.887749 
L 186.509341 180.389225 
L 187.093357 180.389225 
L 187.531866 180.890701 
L 188.810817 180.890701 
L 189.087691 181.392177 
L 189.737902 181.392177 
L 189.908898 181.559336 
L 189.977502 181.726494 
L 190.043612 181.893653 
L 191.216989 181.893653 
L 192.507388 182.395129 
L 192.514045 182.562288 
L 192.6442 182.562288 
L 192.915515 182.729446 
L 193.714426 182.729446 
L 194.272014 183.230923 
L 194.45966 183.56524 
L 194.779507 183.56524 
L 196.812474 184.401033 
L 197.724974 184.401033 
L 197.803823 184.568192 
L 197.905585 184.568192 
L 198.013672 184.735351 
L 199.041788 185.236827 
L 199.08938 185.403985 
L 199.751816 185.403985 
L 199.943354 185.738303 
L 200.376163 185.738303 
L 200.477172 185.905461 
L 200.917954 186.07262 
L 201.096089 186.239779 
L 201.316067 186.239779 
L 201.842989 186.741255 
L 202.064233 187.242731 
L 202.41048 187.409889 
L 202.669521 187.409889 
L 203.089292 187.744207 
L 203.12711 187.911365 
L 203.432199 188.078524 
L 203.500534 188.245683 
L 203.790414 188.245683 
L 204.191522 188.914317 
L 204.310538 188.914317 
L 204.955053 189.415793 
L 205.031967 189.582952 
L 205.196159 189.582952 
L 205.464068 189.750111 
L 205.64477 189.750111 
L 205.752774 189.917269 
L 205.954874 189.917269 
L 206.408167 190.251587 
L 206.464431 190.418745 
L 206.798754 190.753063 
L 207.632969 191.08738 
L 208.009183 191.08738 
L 208.63539 191.421697 
L 209.127087 191.421697 
L 209.414665 191.756015 
L 209.984438 192.257491 
L 210.424221 192.424649 
L 211.001174 192.424649 
L 211.341176 192.758967 
L 211.45821 192.758967 
L 211.85257 192.926125 
L 212.122296 192.926125 
L 212.27311 193.427601 
L 212.375672 193.59476 
L 212.657188 193.59476 
L 213.010505 193.929077 
L 213.390397 193.929077 
L 213.438476 194.096236 
L 213.588327 194.096236 
L 213.623079 194.430554 
L 214.107914 194.597712 
L 214.224243 194.764871 
L 214.899126 194.764871 
L 215.573148 195.266347 
L 215.696834 195.433506 
L 215.764997 195.433506 
L 216.489073 195.600664 
L 216.51988 195.767823 
L 217.127495 195.934982 
L 217.217154 196.269299 
L 217.576841 196.436458 
L 217.649604 196.603616 
L 217.94526 196.603616 
L 218.241852 196.937934 
L 218.373265 197.272251 
L 218.430007 197.272251 
L 218.463534 197.43941 
L 218.699122 197.43941 
L 219.011694 197.773727 
L 219.11305 198.108044 
L 219.308229 198.108044 
L 219.797717 198.275203 
L 219.811818 198.442362 
L 219.99676 198.60952 
L 220.353412 198.60952 
L 220.504247 198.943838 
L 220.814973 198.943838 
L 220.834734 199.110996 
L 221.223415 199.445314 
L 222.082466 199.94679 
L 223.517615 200.281107 
L 223.572104 200.448266 
L 224.600386 200.448266 
L 227.083558 201.451218 
L 228.087409 201.952694 
L 228.110526 201.952694 
L 228.141302 202.119852 
L 228.523642 202.45417 
L 229.144311 202.45417 
L 229.491075 202.788487 
L 229.566632 202.788487 
L 230.316238 203.122804 
L 230.730219 203.122804 
L 231.124942 203.457122 
L 231.180429 203.62428 
L 231.643516 203.62428 
L 232.198303 203.958598 
L 232.872187 204.125756 
L 233.953902 204.125756 
L 234.032521 204.292915 
L 234.490449 204.292915 
L 234.514354 204.460074 
L 235.301761 204.794391 
L 235.316258 204.96155 
L 235.910531 205.128708 
L 236.469932 205.128708 
L 236.937202 205.295867 
L 237.225025 205.295867 
L 237.720055 205.463026 
L 238.63931 205.964502 
L 239.11958 206.298819 
L 239.668821 206.465978 
L 239.736933 206.633137 
L 240.400274 206.967454 
L 240.781402 207.134613 
L 240.86114 207.301771 
L 241.533918 207.46893 
L 241.694645 207.636089 
L 242.087324 207.636089 
L 242.342815 207.803247 
L 242.379249 207.970406 
L 242.80216 207.970406 
L 243.34673 208.304723 
L 244.466137 208.471882 
L 244.690297 208.806199 
L 245.861367 209.307675 
L 246.162448 209.809151 
L 246.473226 209.809151 
L 247.46662 210.644945 
L 247.529567 210.812103 
L 248.169666 210.812103 
L 249.55345 211.313579 
L 250.70854 211.313579 
L 251.24524 211.647897 
L 251.735128 212.149373 
L 252.157624 212.149373 
L 252.782573 212.316531 
L 253.585595 212.316531 
L 253.697401 212.48369 
L 254.227252 212.818007 
L 254.233367 212.985166 
L 254.349621 212.985166 
L 255.128365 213.486642 
L 255.353632 213.486642 
L 255.621239 213.653801 
L 256.009451 213.653801 
L 256.085275 213.820959 
L 256.256583 214.155277 
L 257.002655 214.155277 
L 257.114372 214.489594 
L 257.36542 214.656753 
L 257.744356 214.656753 
L 259.558483 215.158229 
L 259.838363 215.325387 
L 259.85994 215.492546 
L 260.823101 215.492546 
L 260.869314 215.659705 
L 261.017292 215.659705 
L 261.994986 216.161181 
L 262.44868 216.161181 
L 262.918218 216.495498 
L 262.924496 216.662657 
L 263.573944 216.662657 
L 263.77675 216.829815 
L 264.119274 216.996974 
L 264.176966 217.164133 
L 264.537702 217.331292 
L 265.745579 217.665609 
L 265.901911 218.167085 
L 266.040171 218.167085 
L 266.160405 218.668561 
L 266.48836 218.83572 
L 266.506048 219.002878 
L 267.63371 219.002878 
L 267.7338 219.170037 
L 268.991085 219.671513 
L 269.017524 219.838672 
L 269.655614 219.838672 
L 269.973782 220.00583 
L 270.042667 220.00583 
L 271.000517 220.340148 
L 271.644939 220.340148 
L 271.725272 220.507306 
L 272.542732 220.674465 
L 272.686835 220.841624 
L 274.618852 221.510258 
L 274.747953 221.677417 
L 275.400172 221.677417 
L 275.747521 221.844576 
L 276.013245 221.844576 
L 276.949014 222.346052 
L 277.268181 222.346052 
L 278.361182 222.680369 
L 279.115836 222.680369 
L 279.468214 222.847528 
L 280.995877 223.349004 
L 281.960097 223.683321 
L 281.997248 223.683321 
L 282.334532 223.85048 
L 282.808384 224.017638 
L 284.135867 224.351956 
L 284.306169 224.519114 
L 285.062528 224.686273 
L 285.064594 224.853432 
L 285.236005 225.02059 
L 285.981198 225.354908 
L 286.143601 225.522066 
L 287.18644 225.522066 
L 287.225294 225.689225 
L 288.067898 226.023542 
L 289.522716 226.023542 
L 289.601014 226.190701 
L 290.155116 226.35786 
L 290.931379 226.525018 
L 291.0217 226.692177 
L 291.536969 226.692177 
L 295.952329 227.360812 
L 296.038641 227.52797 
L 296.893696 227.695129 
L 297.025469 227.862288 
L 297.827873 228.196605 
L 298.112875 228.363764 
L 298.16144 228.530923 
L 298.742062 228.698081 
L 299.027174 229.032399 
L 299.375688 229.032399 
L 300.158423 229.199557 
L 300.161177 229.366716 
L 301.262188 229.366716 
L 305.353254 229.701033 
L 311.959353 229.868192 
L 314.223611 229.868192 
L 314.261212 230.035351 
L 315.097531 230.202509 
L 315.672071 230.536827 
L 316.825557 230.536827 
L 316.996012 230.703985 
L 319.332557 231.038303 
L 319.924856 231.37262 
L 324.912275 231.706937 
L 327.079275 232.041255 
L 329.014115 232.041255 
L 333.73493 232.709889 
L 336.878754 232.877048 
L 339.007357 233.378524 
L 344.325331 233.545683 
L 345.990367 233.712841 
L 347.300771 233.712841 
L 347.798834 233.88 
L 370.66256 233.88 
L 370.66256 233.88 
" clip-path="url(#p49d9bcda17)" style="fill: none; stroke: #ff7f0e; stroke-width: 1.5; stroke-linecap: square"/>
   </g>
   <g id="line2d_15">
    <path d="M 69.218182 108.299283 
L 75.336044 108.210902 
L 78.394975 108.108072 
L 79.92444 107.78421 
L 81.453906 107.717001 
L 84.512837 106.765996 
L 86.042302 106.336893 
L 87.571768 106.200931 
L 89.101233 105.904895 
L 90.630699 105.351832 
L 92.160164 105.684252 
L 96.748561 107.334232 
L 98.278026 107.195232 
L 99.807492 107.325511 
L 101.336958 107.85694 
L 102.866423 109.236487 
L 104.395889 109.619229 
L 105.925354 110.934204 
L 107.45482 111.455096 
L 108.984285 112.236228 
L 110.513751 113.966133 
L 113.572682 115.829195 
L 115.102147 117.316884 
L 116.631613 118.317647 
L 118.161078 119.00458 
L 119.690544 120.620637 
L 121.220009 121.600203 
L 122.749475 122.910201 
L 124.27894 123.829586 
L 125.808406 125.88307 
L 127.337871 128.583688 
L 128.867337 130.736351 
L 130.396802 133.530394 
L 131.926268 135.23745 
L 134.985199 137.667611 
L 136.514664 139.614104 
L 138.04413 141.064722 
L 139.573595 143.109501 
L 141.103061 144.519309 
L 142.632526 147.226279 
L 144.161992 148.269804 
L 145.691457 150.522034 
L 147.220923 151.131169 
L 148.750388 152.473727 
L 150.279854 152.993124 
L 151.809319 154.4402 
L 153.338785 156.210823 
L 154.86825 157.514126 
L 156.397716 158.351776 
L 160.986112 161.679267 
L 162.515578 163.366856 
L 164.045043 163.904738 
L 165.574509 164.952672 
L 167.103974 166.495122 
L 168.63344 167.572615 
L 171.692371 168.808177 
L 174.751302 170.680764 
L 176.280767 172.635649 
L 177.810233 173.433681 
L 179.339698 174.042427 
L 180.869164 174.512975 
L 182.39863 175.130337 
L 183.928095 175.918347 
L 186.987026 177.835152 
L 188.516492 178.290723 
L 190.045957 179.274186 
L 191.575423 179.237122 
L 194.634354 180.865614 
L 196.163819 181.348042 
L 197.693285 181.644706 
L 199.22275 182.648646 
L 200.752216 183.13905 
L 202.281681 184.490785 
L 203.811147 185.515119 
L 205.340612 187.040873 
L 206.870078 188.042565 
L 208.399543 188.717798 
L 209.929009 189.563332 
L 211.458474 190.049912 
L 214.517405 192.09758 
L 216.046871 192.7713 
L 217.576336 193.641153 
L 219.105802 195.544063 
L 220.635267 196.410128 
L 222.164733 197.446165 
L 223.694198 197.963251 
L 225.223664 198.125117 
L 226.753129 198.826429 
L 228.282595 199.69811 
L 229.81206 200.391129 
L 231.341526 201.271927 
L 234.400457 201.960812 
L 235.929922 202.837769 
L 237.459388 203.00287 
L 240.518319 204.77084 
L 243.57725 206.184096 
L 245.106715 206.719013 
L 248.165646 208.84185 
L 249.695112 209.373889 
L 251.224577 209.722422 
L 255.812974 211.851265 
L 257.342439 212.740304 
L 258.871905 213.090145 
L 260.40137 213.807492 
L 261.930836 214.341151 
L 264.989767 215.776458 
L 266.519233 217.583719 
L 268.048698 217.757048 
L 269.578164 218.483682 
L 274.16656 220.112398 
L 275.696026 220.472743 
L 277.225491 221.200961 
L 280.284422 221.92264 
L 284.872819 223.566757 
L 286.402284 224.665191 
L 287.93175 225.030183 
L 289.461215 225.212791 
L 290.990681 225.761886 
L 294.049612 226.127734 
L 297.108543 227.227068 
L 298.638008 227.963265 
L 300.167474 228.884697 
L 301.696939 228.884187 
L 303.226405 229.068725 
L 304.75587 229.068725 
L 306.285336 229.253302 
L 309.344267 229.253302 
L 310.873732 229.437462 
L 313.932663 229.437009 
L 315.462129 229.990396 
L 316.991594 230.174857 
L 318.52106 230.54469 
L 320.050525 231.099722 
L 323.109456 231.099722 
L 324.638922 231.284808 
L 326.168387 231.655095 
L 327.697853 231.840295 
L 329.227318 231.839877 
L 330.756784 232.025153 
L 332.286249 232.395819 
L 333.815715 232.581208 
L 336.874646 232.581208 
L 339.933577 233.323147 
L 342.992508 233.323147 
L 346.051439 233.694344 
L 347.580905 233.694325 
L 349.11037 233.88 
L 373.581818 233.88 
L 373.581818 233.88 
" clip-path="url(#p49d9bcda17)" style="fill: none; stroke: #2ca02c; stroke-width: 1.5; stroke-linecap: square"/>
   </g>
   <g id="line2d_16">
    <path d="M 90.630699 289 
L 90.630699 105.351832 
" clip-path="url(#p49d9bcda17)" style="fill: none; stroke-dasharray: 5.55,2.4; stroke-dashoffset: 0; stroke: #000000; stroke-opacity: 0.5; stroke-width: 1.5"/>
   </g>
   <g id="line2d_17">
    <defs>
     <path id="m7b8d3bb511" d="M 0 3 
C 0.795609 3 1.55874 2.683901 2.12132 2.12132 
C 2.683901 1.55874 3 0.795609 3 0 
C 3 -0.795609 2.683901 -1.55874 2.12132 -2.12132 
C 1.55874 -2.683901 0.795609 -3 0 -3 
C -0.795609 -3 -1.55874 -2.683901 -2.12132 -2.12132 
C -2.683901 -1.55874 -3 -0.795609 -3 0 
C -3 0.795609 -2.683901 1.55874 -2.12132 2.12132 
C -1.55874 2.683901 -0.795609 3 0 3 
z
" style="stroke: #d62728"/>
    </defs>
    <g clip-path="url(#p49d9bcda17)">
     <use xlink:href="#m7b8d3bb511" x="90.630699" y="105.351832" style="fill: #d62728; stroke: #d62728"/>
    </g>
   </g>
   <g id="patch_3">
    <path d="M 54 252 
L 54 34.56 
" style="fill: none; stroke: #000000; stroke-width: 0.8; stroke-linejoin: miter; stroke-linecap: square"/>
   </g>
   <g id="patch_4">
    <path d="M 54 252 
L 388.8 252 
" style="fill: none; stroke: #000000; stroke-width: 0.8; stroke-linejoin: miter; stroke-linecap: square"/>
   </g>
   <g id="text_14">
    <!-- LogReg Precision, Recall, and fbeta Curves -->
    <g transform="translate(67.9275 28.56)scale(0.144 -0.144)">
     <defs>
      <path id="DejaVuSans-4c" d="M 628 4666 
L 1259 4666 
L 1259 531 
L 3531 531 
L 3531 0 
L 628 0 
L 628 4666 
z
" transform="scale(0.015625)"/>
      <path id="DejaVuSans-67" d="M 2906 1791 
Q 2906 2416 2648 2759 
Q 2391 3103 1925 3103 
Q 1463 3103 1205 2759 
Q 947 2416 947 1791 
Q 947 1169 1205 825 
Q 1463 481 1925 481 
Q 2391 481 2648 825 
Q 2906 1169 2906 1791 
z
M 3481 434 
Q 3481 -459 3084 -895 
Q 2688 -1331 1869 -1331 
Q 1566 -1331 1297 -1286 
Q 1028 -1241 775 -1147 
L 775 -588 
Q 1028 -725 1275 -790 
Q 1522 -856 1778 -856 
Q 2344 -856 2625 -561 
Q 2906 -266 2906 331 
L 2906 616 
Q 2728 306 2450 153 
Q 2172 0 1784 0 
Q 1141 0 747 490 
Q 353 981 353 1791 
Q 353 2603 747 3093 
Q 1141 3584 1784 3584 
Q 2172 3584 2450 3431 
Q 2728 3278 2906 2969 
L 2906 3500 
L 3481 3500 
L 3481 434 
z
" transform="scale(0.015625)"/>
      <path id="DejaVuSans-52" d="M 2841 2188 
Q 3044 2119 3236 1894 
Q 3428 1669 3622 1275 
L 4263 0 
L 3584 0 
L 2988 1197 
Q 2756 1666 2539 1819 
Q 2322 1972 1947 1972 
L 1259 1972 
L 1259 0 
L 628 0 
L 628 4666 
L 2053 4666 
Q 2853 4666 3247 4331 
Q 3641 3997 3641 3322 
Q 3641 2881 3436 2590 
Q 3231 2300 2841 2188 
z
M 1259 4147 
L 1259 2491 
L 2053 2491 
Q 2509 2491 2742 2702 
Q 2975 2913 2975 3322 
Q 2975 3731 2742 3939 
Q 2509 4147 2053 4147 
L 1259 4147 
z
" transform="scale(0.015625)"/>
      <path id="DejaVuSans-50" d="M 1259 4147 
L 1259 2394 
L 2053 2394 
Q 2494 2394 2734 2622 
Q 2975 2850 2975 3272 
Q 2975 3691 2734 3919 
Q 2494 4147 2053 4147 
L 1259 4147 
z
M 628 4666 
L 2053 4666 
Q 2838 4666 3239 4311 
Q 3641 3956 3641 3272 
Q 3641 2581 3239 2228 
Q 2838 1875 2053 1875 
L 1259 1875 
L 1259 0 
L 628 0 
L 628 4666 
z
" transform="scale(0.015625)"/>
      <path id="DejaVuSans-6e" d="M 3513 2113 
L 3513 0 
L 2938 0 
L 2938 2094 
Q 2938 2591 2744 2837 
Q 2550 3084 2163 3084 
Q 1697 3084 1428 2787 
Q 1159 2491 1159 1978 
L 1159 0 
L 581 0 
L 581 3500 
L 1159 3500 
L 1159 2956 
Q 1366 3272 1645 3428 
Q 1925 3584 2291 3584 
Q 2894 3584 3203 3211 
Q 3513 2838 3513 2113 
z
" transform="scale(0.015625)"/>
      <path id="DejaVuSans-66" d="M 2375 4863 
L 2375 4384 
L 1825 4384 
Q 1516 4384 1395 4259 
Q 1275 4134 1275 3809 
L 1275 3500 
L 2222 3500 
L 2222 3053 
L 1275 3053 
L 1275 0 
L 697 0 
L 697 3053 
L 147 3053 
L 147 3500 
L 697 3500 
L 697 3744 
Q 697 4328 969 4595 
Q 1241 4863 1831 4863 
L 2375 4863 
z
" transform="scale(0.015625)"/>
      <path id="DejaVuSans-43" d="M 4122 4306 
L 4122 3641 
Q 3803 3938 3442 4084 
Q 3081 4231 2675 4231 
Q 1875 4231 1450 3742 
Q 1025 3253 1025 2328 
Q 1025 1406 1450 917 
Q 1875 428 2675 428 
Q 3081 428 3442 575 
Q 3803 722 4122 1019 
L 4122 359 
Q 3791 134 3420 21 
Q 3050 -91 2638 -91 
Q 1578 -91 968 557 
Q 359 1206 359 2328 
Q 359 3453 968 4101 
Q 1578 4750 2638 4750 
Q 3056 4750 3426 4639 
Q 3797 4528 4122 4306 
z
" transform="scale(0.015625)"/>
     </defs>
     <use xlink:href="#DejaVuSans-4c"/>
     <use xlink:href="#DejaVuSans-6f" x="53.962891"/>
     <use xlink:href="#DejaVuSans-67" x="115.144531"/>
     <use xlink:href="#DejaVuSans-52" x="178.621094"/>
     <use xlink:href="#DejaVuSans-65" x="243.603516"/>
     <use xlink:href="#DejaVuSans-67" x="305.126953"/>
     <use xlink:href="#DejaVuSans-20" x="368.603516"/>
     <use xlink:href="#DejaVuSans-50" x="400.390625"/>
     <use xlink:href="#DejaVuSans-72" x="458.943359"/>
     <use xlink:href="#DejaVuSans-65" x="497.806641"/>
     <use xlink:href="#DejaVuSans-63" x="559.330078"/>
     <use xlink:href="#DejaVuSans-69" x="614.310547"/>
     <use xlink:href="#DejaVuSans-73" x="642.09375"/>
     <use xlink:href="#DejaVuSans-69" x="694.193359"/>
     <use xlink:href="#DejaVuSans-6f" x="721.976562"/>
     <use xlink:href="#DejaVuSans-6e" x="783.158203"/>
     <use xlink:href="#DejaVuSans-2c" x="846.537109"/>
     <use xlink:href="#DejaVuSans-20" x="878.324219"/>
     <use xlink:href="#DejaVuSans-52" x="910.111328"/>
     <use xlink:href="#DejaVuSans-65" x="975.09375"/>
     <use xlink:href="#DejaVuSans-63" x="1036.617188"/>
     <use xlink:href="#DejaVuSans-61" x="1091.597656"/>
     <use xlink:href="#DejaVuSans-6c" x="1152.876953"/>
     <use xlink:href="#DejaVuSans-6c" x="1180.660156"/>
     <use xlink:href="#DejaVuSans-2c" x="1208.443359"/>
     <use xlink:href="#DejaVuSans-20" x="1240.230469"/>
     <use xlink:href="#DejaVuSans-61" x="1272.017578"/>
     <use xlink:href="#DejaVuSans-6e" x="1333.296875"/>
     <use xlink:href="#DejaVuSans-64" x="1396.675781"/>
     <use xlink:href="#DejaVuSans-20" x="1460.152344"/>
     <use xlink:href="#DejaVuSans-66" x="1491.939453"/>
     <use xlink:href="#DejaVuSans-62" x="1527.144531"/>
     <use xlink:href="#DejaVuSans-65" x="1590.621094"/>
     <use xlink:href="#DejaVuSans-74" x="1652.144531"/>
     <use xlink:href="#DejaVuSans-61" x="1691.353516"/>
     <use xlink:href="#DejaVuSans-20" x="1752.632812"/>
     <use xlink:href="#DejaVuSans-43" x="1784.419922"/>
     <use xlink:href="#DejaVuSans-75" x="1854.244141"/>
     <use xlink:href="#DejaVuSans-72" x="1917.623047"/>
     <use xlink:href="#DejaVuSans-76" x="1958.736328"/>
     <use xlink:href="#DejaVuSans-65" x="2017.916016"/>
     <use xlink:href="#DejaVuSans-73" x="2079.439453"/>
    </g>
   </g>
   <g id="legend_1">
    <g id="patch_5">
     <path d="M 62.4 246 
L 154.929375 246 
Q 157.329375 246 157.329375 243.6 
L 157.329375 191.95875 
Q 157.329375 189.55875 154.929375 189.55875 
L 62.4 189.55875 
Q 60 189.55875 60 191.95875 
L 60 243.6 
Q 60 246 62.4 246 
z
" style="fill: #ffffff; opacity: 0.8; stroke: #cccccc; stroke-linejoin: miter"/>
    </g>
    <g id="line2d_18">
     <path d="M 64.8 199.276875 
L 76.8 199.276875 
L 88.8 199.276875 
" style="fill: none; stroke: #1f77b4; stroke-width: 1.5; stroke-linecap: square"/>
    </g>
    <g id="text_15">
     <!-- precision -->
     <g transform="translate(98.4 203.476875)scale(0.12 -0.12)">
      <use xlink:href="#DejaVuSans-70"/>
      <use xlink:href="#DejaVuSans-72" x="63.476562"/>
      <use xlink:href="#DejaVuSans-65" x="102.339844"/>
      <use xlink:href="#DejaVuSans-63" x="163.863281"/>
      <use xlink:href="#DejaVuSans-69" x="218.84375"/>
      <use xlink:href="#DejaVuSans-73" x="246.626953"/>
      <use xlink:href="#DejaVuSans-69" x="298.726562"/>
      <use xlink:href="#DejaVuSans-6f" x="326.509766"/>
      <use xlink:href="#DejaVuSans-6e" x="387.691406"/>
     </g>
    </g>
    <g id="line2d_19">
     <path d="M 64.8 216.890625 
L 76.8 216.890625 
L 88.8 216.890625 
" style="fill: none; stroke: #ff7f0e; stroke-width: 1.5; stroke-linecap: square"/>
    </g>
    <g id="text_16">
     <!-- recall -->
     <g transform="translate(98.4 221.090625)scale(0.12 -0.12)">
      <use xlink:href="#DejaVuSans-72"/>
      <use xlink:href="#DejaVuSans-65" x="38.863281"/>
      <use xlink:href="#DejaVuSans-63" x="100.386719"/>
      <use xlink:href="#DejaVuSans-61" x="155.367188"/>
      <use xlink:href="#DejaVuSans-6c" x="216.646484"/>
      <use xlink:href="#DejaVuSans-6c" x="244.429688"/>
     </g>
    </g>
    <g id="line2d_20">
     <path d="M 64.8 234.504375 
L 76.8 234.504375 
L 88.8 234.504375 
" style="fill: none; stroke: #2ca02c; stroke-width: 1.5; stroke-linecap: square"/>
    </g>
    <g id="text_17">
     <!-- fbeta -->
     <g transform="translate(98.4 238.704375)scale(0.12 -0.12)">
      <use xlink:href="#DejaVuSans-66"/>
      <use xlink:href="#DejaVuSans-62" x="35.205078"/>
      <use xlink:href="#DejaVuSans-65" x="98.681641"/>
      <use xlink:href="#DejaVuSans-74" x="160.205078"/>
      <use xlink:href="#DejaVuSans-61" x="199.414062"/>
     </g>
    </g>
   </g>
  </g>
 </g>
 <defs>
  <clipPath id="p49d9bcda17">
   <rect x="54" y="34.56" width="334.8" height="217.44"/>
  </clipPath>
 </defs>
</svg>
