<?xml version="1.0" encoding="utf-8" standalone="no"?>
<!DOCTYPE svg PUBLIC "-//W3C//DTD SVG 1.1//EN"
  "http://www.w3.org/Graphics/SVG/1.1/DTD/svg11.dtd">
<svg xmlns:xlink="http://www.w3.org/1999/xlink" width="432pt" height="288pt" viewBox="0 0 432 288" xmlns="http://www.w3.org/2000/svg" version="1.1">
 <metadata>
  <rdf:RDF xmlns:dc="http://purl.org/dc/elements/1.1/" xmlns:cc="http://creativecommons.org/ns#" xmlns:rdf="http://www.w3.org/1999/02/22-rdf-syntax-ns#">
   <cc:Work>
    <dc:type rdf:resource="http://purl.org/dc/dcmitype/StillImage"/>
    <dc:date>2022-01-24T10:44:17.181122</dc:date>
    <dc:format>image/svg+xml</dc:format>
    <dc:creator>
     <cc:Agent>
      <dc:title>Matplotlib v3.5.1, https://matplotlib.org/</dc:title>
     </cc:Agent>
    </dc:creator>
   </cc:Work>
  </rdf:RDF>
 </metadata>
 <defs>
  <style type="text/css">*{stroke-linejoin: round; stroke-linecap: butt}</style>
 </defs>
 <g id="figure_1">
  <g id="patch_1">
   <path d="M 0 288 
L 432 288 
L 432 0 
L 0 0 
L 0 288 
z
" style="fill: none"/>
  </g>
  <g id="axes_1">
   <g id="patch_2">
    <path d="M 54 252 
L 388.8 252 
L 388.8 34.56 
L 54 34.56 
z
" style="fill: #ffffff"/>
   </g>
   <g id="matplotlib.axis_1">
    <g id="xtick_1">
     <g id="line2d_1">
      <defs>
       <path id="m223f15a317" d="M 0 0 
L 0 3.5 
" style="stroke: #000000; stroke-width: 0.8"/>
      </defs>
      <g>
       <use xlink:href="#m223f15a317" x="69.218182" y="252" style="stroke: #000000; stroke-width: 0.8"/>
      </g>
     </g>
     <g id="text_1">
      <!-- 0.0 -->
      <g transform="translate(59.676307 268.118125)scale(0.12 -0.12)">
       <defs>
        <path id="DejaVuSans-30" d="M 2034 4250 
Q 1547 4250 1301 3770 
Q 1056 3291 1056 2328 
Q 1056 1369 1301 889 
Q 1547 409 2034 409 
Q 2525 409 2770 889 
Q 3016 1369 3016 2328 
Q 3016 3291 2770 3770 
Q 2525 4250 2034 4250 
z
M 2034 4750 
Q 2819 4750 3233 4129 
Q 3647 3509 3647 2328 
Q 3647 1150 3233 529 
Q 2819 -91 2034 -91 
Q 1250 -91 836 529 
Q 422 1150 422 2328 
Q 422 3509 836 4129 
Q 1250 4750 2034 4750 
z
" transform="scale(0.015625)"/>
        <path id="DejaVuSans-2e" d="M 684 794 
L 1344 794 
L 1344 0 
L 684 0 
L 684 794 
z
" transform="scale(0.015625)"/>
       </defs>
       <use xlink:href="#DejaVuSans-30"/>
       <use xlink:href="#DejaVuSans-2e" x="63.623047"/>
       <use xlink:href="#DejaVuSans-30" x="95.410156"/>
      </g>
     </g>
    </g>
    <g id="xtick_2">
     <g id="line2d_2">
      <g>
       <use xlink:href="#m223f15a317" x="130.396802" y="252" style="stroke: #000000; stroke-width: 0.8"/>
      </g>
     </g>
     <g id="text_2">
      <!-- 0.2 -->
      <g transform="translate(120.854927 268.118125)scale(0.12 -0.12)">
       <defs>
        <path id="DejaVuSans-32" d="M 1228 531 
L 3431 531 
L 3431 0 
L 469 0 
L 469 531 
Q 828 903 1448 1529 
Q 2069 2156 2228 2338 
Q 2531 2678 2651 2914 
Q 2772 3150 2772 3378 
Q 2772 3750 2511 3984 
Q 2250 4219 1831 4219 
Q 1534 4219 1204 4116 
Q 875 4013 500 3803 
L 500 4441 
Q 881 4594 1212 4672 
Q 1544 4750 1819 4750 
Q 2544 4750 2975 4387 
Q 3406 4025 3406 3419 
Q 3406 3131 3298 2873 
Q 3191 2616 2906 2266 
Q 2828 2175 2409 1742 
Q 1991 1309 1228 531 
z
" transform="scale(0.015625)"/>
       </defs>
       <use xlink:href="#DejaVuSans-30"/>
       <use xlink:href="#DejaVuSans-2e" x="63.623047"/>
       <use xlink:href="#DejaVuSans-32" x="95.410156"/>
      </g>
     </g>
    </g>
    <g id="xtick_3">
     <g id="line2d_3">
      <g>
       <use xlink:href="#m223f15a317" x="191.575423" y="252" style="stroke: #000000; stroke-width: 0.8"/>
      </g>
     </g>
     <g id="text_3">
      <!-- 0.4 -->
      <g transform="translate(182.033548 268.118125)scale(0.12 -0.12)">
       <defs>
        <path id="DejaVuSans-34" d="M 2419 4116 
L 825 1625 
L 2419 1625 
L 2419 4116 
z
M 2253 4666 
L 3047 4666 
L 3047 1625 
L 3713 1625 
L 3713 1100 
L 3047 1100 
L 3047 0 
L 2419 0 
L 2419 1100 
L 313 1100 
L 313 1709 
L 2253 4666 
z
" transform="scale(0.015625)"/>
       </defs>
       <use xlink:href="#DejaVuSans-30"/>
       <use xlink:href="#DejaVuSans-2e" x="63.623047"/>
       <use xlink:href="#DejaVuSans-34" x="95.410156"/>
      </g>
     </g>
    </g>
    <g id="xtick_4">
     <g id="line2d_4">
      <g>
       <use xlink:href="#m223f15a317" x="252.754043" y="252" style="stroke: #000000; stroke-width: 0.8"/>
      </g>
     </g>
     <g id="text_4">
      <!-- 0.6 -->
      <g transform="translate(243.212168 268.118125)scale(0.12 -0.12)">
       <defs>
        <path id="DejaVuSans-36" d="M 2113 2584 
Q 1688 2584 1439 2293 
Q 1191 2003 1191 1497 
Q 1191 994 1439 701 
Q 1688 409 2113 409 
Q 2538 409 2786 701 
Q 3034 994 3034 1497 
Q 3034 2003 2786 2293 
Q 2538 2584 2113 2584 
z
M 3366 4563 
L 3366 3988 
Q 3128 4100 2886 4159 
Q 2644 4219 2406 4219 
Q 1781 4219 1451 3797 
Q 1122 3375 1075 2522 
Q 1259 2794 1537 2939 
Q 1816 3084 2150 3084 
Q 2853 3084 3261 2657 
Q 3669 2231 3669 1497 
Q 3669 778 3244 343 
Q 2819 -91 2113 -91 
Q 1303 -91 875 529 
Q 447 1150 447 2328 
Q 447 3434 972 4092 
Q 1497 4750 2381 4750 
Q 2619 4750 2861 4703 
Q 3103 4656 3366 4563 
z
" transform="scale(0.015625)"/>
       </defs>
       <use xlink:href="#DejaVuSans-30"/>
       <use xlink:href="#DejaVuSans-2e" x="63.623047"/>
       <use xlink:href="#DejaVuSans-36" x="95.410156"/>
      </g>
     </g>
    </g>
    <g id="xtick_5">
     <g id="line2d_5">
      <g>
       <use xlink:href="#m223f15a317" x="313.932663" y="252" style="stroke: #000000; stroke-width: 0.8"/>
      </g>
     </g>
     <g id="text_5">
      <!-- 0.8 -->
      <g transform="translate(304.390788 268.118125)scale(0.12 -0.12)">
       <defs>
        <path id="DejaVuSans-38" d="M 2034 2216 
Q 1584 2216 1326 1975 
Q 1069 1734 1069 1313 
Q 1069 891 1326 650 
Q 1584 409 2034 409 
Q 2484 409 2743 651 
Q 3003 894 3003 1313 
Q 3003 1734 2745 1975 
Q 2488 2216 2034 2216 
z
M 1403 2484 
Q 997 2584 770 2862 
Q 544 3141 544 3541 
Q 544 4100 942 4425 
Q 1341 4750 2034 4750 
Q 2731 4750 3128 4425 
Q 3525 4100 3525 3541 
Q 3525 3141 3298 2862 
Q 3072 2584 2669 2484 
Q 3125 2378 3379 2068 
Q 3634 1759 3634 1313 
Q 3634 634 3220 271 
Q 2806 -91 2034 -91 
Q 1263 -91 848 271 
Q 434 634 434 1313 
Q 434 1759 690 2068 
Q 947 2378 1403 2484 
z
M 1172 3481 
Q 1172 3119 1398 2916 
Q 1625 2713 2034 2713 
Q 2441 2713 2670 2916 
Q 2900 3119 2900 3481 
Q 2900 3844 2670 4047 
Q 2441 4250 2034 4250 
Q 1625 4250 1398 4047 
Q 1172 3844 1172 3481 
z
" transform="scale(0.015625)"/>
       </defs>
       <use xlink:href="#DejaVuSans-30"/>
       <use xlink:href="#DejaVuSans-2e" x="63.623047"/>
       <use xlink:href="#DejaVuSans-38" x="95.410156"/>
      </g>
     </g>
    </g>
    <g id="xtick_6">
     <g id="line2d_6">
      <g>
       <use xlink:href="#m223f15a317" x="375.111284" y="252" style="stroke: #000000; stroke-width: 0.8"/>
      </g>
     </g>
     <g id="text_6">
      <!-- 1.0 -->
      <g transform="translate(365.569409 268.118125)scale(0.12 -0.12)">
       <defs>
        <path id="DejaVuSans-31" d="M 794 531 
L 1825 531 
L 1825 4091 
L 703 3866 
L 703 4441 
L 1819 4666 
L 2450 4666 
L 2450 531 
L 3481 531 
L 3481 0 
L 794 0 
L 794 531 
z
" transform="scale(0.015625)"/>
       </defs>
       <use xlink:href="#DejaVuSans-31"/>
       <use xlink:href="#DejaVuSans-2e" x="63.623047"/>
       <use xlink:href="#DejaVuSans-30" x="95.410156"/>
      </g>
     </g>
    </g>
    <g id="text_7">
     <!-- Threshold (above this probability, label as success) -->
     <g transform="translate(67.662188 283.731875)scale(0.12 -0.12)">
      <defs>
       <path id="DejaVuSans-54" d="M -19 4666 
L 3928 4666 
L 3928 4134 
L 2272 4134 
L 2272 0 
L 1638 0 
L 1638 4134 
L -19 4134 
L -19 4666 
z
" transform="scale(0.015625)"/>
       <path id="DejaVuSans-68" d="M 3513 2113 
L 3513 0 
L 2938 0 
L 2938 2094 
Q 2938 2591 2744 2837 
Q 2550 3084 2163 3084 
Q 1697 3084 1428 2787 
Q 1159 2491 1159 1978 
L 1159 0 
L 581 0 
L 581 4863 
L 1159 4863 
L 1159 2956 
Q 1366 3272 1645 3428 
Q 1925 3584 2291 3584 
Q 2894 3584 3203 3211 
Q 3513 2838 3513 2113 
z
" transform="scale(0.015625)"/>
       <path id="DejaVuSans-72" d="M 2631 2963 
Q 2534 3019 2420 3045 
Q 2306 3072 2169 3072 
Q 1681 3072 1420 2755 
Q 1159 2438 1159 1844 
L 1159 0 
L 581 0 
L 581 3500 
L 1159 3500 
L 1159 2956 
Q 1341 3275 1631 3429 
Q 1922 3584 2338 3584 
Q 2397 3584 2469 3576 
Q 2541 3569 2628 3553 
L 2631 2963 
z
" transform="scale(0.015625)"/>
       <path id="DejaVuSans-65" d="M 3597 1894 
L 3597 1613 
L 953 1613 
Q 991 1019 1311 708 
Q 1631 397 2203 397 
Q 2534 397 2845 478 
Q 3156 559 3463 722 
L 3463 178 
Q 3153 47 2828 -22 
Q 2503 -91 2169 -91 
Q 1331 -91 842 396 
Q 353 884 353 1716 
Q 353 2575 817 3079 
Q 1281 3584 2069 3584 
Q 2775 3584 3186 3129 
Q 3597 2675 3597 1894 
z
M 3022 2063 
Q 3016 2534 2758 2815 
Q 2500 3097 2075 3097 
Q 1594 3097 1305 2825 
Q 1016 2553 972 2059 
L 3022 2063 
z
" transform="scale(0.015625)"/>
       <path id="DejaVuSans-73" d="M 2834 3397 
L 2834 2853 
Q 2591 2978 2328 3040 
Q 2066 3103 1784 3103 
Q 1356 3103 1142 2972 
Q 928 2841 928 2578 
Q 928 2378 1081 2264 
Q 1234 2150 1697 2047 
L 1894 2003 
Q 2506 1872 2764 1633 
Q 3022 1394 3022 966 
Q 3022 478 2636 193 
Q 2250 -91 1575 -91 
Q 1294 -91 989 -36 
Q 684 19 347 128 
L 347 722 
Q 666 556 975 473 
Q 1284 391 1588 391 
Q 1994 391 2212 530 
Q 2431 669 2431 922 
Q 2431 1156 2273 1281 
Q 2116 1406 1581 1522 
L 1381 1569 
Q 847 1681 609 1914 
Q 372 2147 372 2553 
Q 372 3047 722 3315 
Q 1072 3584 1716 3584 
Q 2034 3584 2315 3537 
Q 2597 3491 2834 3397 
z
" transform="scale(0.015625)"/>
       <path id="DejaVuSans-6f" d="M 1959 3097 
Q 1497 3097 1228 2736 
Q 959 2375 959 1747 
Q 959 1119 1226 758 
Q 1494 397 1959 397 
Q 2419 397 2687 759 
Q 2956 1122 2956 1747 
Q 2956 2369 2687 2733 
Q 2419 3097 1959 3097 
z
M 1959 3584 
Q 2709 3584 3137 3096 
Q 3566 2609 3566 1747 
Q 3566 888 3137 398 
Q 2709 -91 1959 -91 
Q 1206 -91 779 398 
Q 353 888 353 1747 
Q 353 2609 779 3096 
Q 1206 3584 1959 3584 
z
" transform="scale(0.015625)"/>
       <path id="DejaVuSans-6c" d="M 603 4863 
L 1178 4863 
L 1178 0 
L 603 0 
L 603 4863 
z
" transform="scale(0.015625)"/>
       <path id="DejaVuSans-64" d="M 2906 2969 
L 2906 4863 
L 3481 4863 
L 3481 0 
L 2906 0 
L 2906 525 
Q 2725 213 2448 61 
Q 2172 -91 1784 -91 
Q 1150 -91 751 415 
Q 353 922 353 1747 
Q 353 2572 751 3078 
Q 1150 3584 1784 3584 
Q 2172 3584 2448 3432 
Q 2725 3281 2906 2969 
z
M 947 1747 
Q 947 1113 1208 752 
Q 1469 391 1925 391 
Q 2381 391 2643 752 
Q 2906 1113 2906 1747 
Q 2906 2381 2643 2742 
Q 2381 3103 1925 3103 
Q 1469 3103 1208 2742 
Q 947 2381 947 1747 
z
" transform="scale(0.015625)"/>
       <path id="DejaVuSans-20" transform="scale(0.015625)"/>
       <path id="DejaVuSans-28" d="M 1984 4856 
Q 1566 4138 1362 3434 
Q 1159 2731 1159 2009 
Q 1159 1288 1364 580 
Q 1569 -128 1984 -844 
L 1484 -844 
Q 1016 -109 783 600 
Q 550 1309 550 2009 
Q 550 2706 781 3412 
Q 1013 4119 1484 4856 
L 1984 4856 
z
" transform="scale(0.015625)"/>
       <path id="DejaVuSans-61" d="M 2194 1759 
Q 1497 1759 1228 1600 
Q 959 1441 959 1056 
Q 959 750 1161 570 
Q 1363 391 1709 391 
Q 2188 391 2477 730 
Q 2766 1069 2766 1631 
L 2766 1759 
L 2194 1759 
z
M 3341 1997 
L 3341 0 
L 2766 0 
L 2766 531 
Q 2569 213 2275 61 
Q 1981 -91 1556 -91 
Q 1019 -91 701 211 
Q 384 513 384 1019 
Q 384 1609 779 1909 
Q 1175 2209 1959 2209 
L 2766 2209 
L 2766 2266 
Q 2766 2663 2505 2880 
Q 2244 3097 1772 3097 
Q 1472 3097 1187 3025 
Q 903 2953 641 2809 
L 641 3341 
Q 956 3463 1253 3523 
Q 1550 3584 1831 3584 
Q 2591 3584 2966 3190 
Q 3341 2797 3341 1997 
z
" transform="scale(0.015625)"/>
       <path id="DejaVuSans-62" d="M 3116 1747 
Q 3116 2381 2855 2742 
Q 2594 3103 2138 3103 
Q 1681 3103 1420 2742 
Q 1159 2381 1159 1747 
Q 1159 1113 1420 752 
Q 1681 391 2138 391 
Q 2594 391 2855 752 
Q 3116 1113 3116 1747 
z
M 1159 2969 
Q 1341 3281 1617 3432 
Q 1894 3584 2278 3584 
Q 2916 3584 3314 3078 
Q 3713 2572 3713 1747 
Q 3713 922 3314 415 
Q 2916 -91 2278 -91 
Q 1894 -91 1617 61 
Q 1341 213 1159 525 
L 1159 0 
L 581 0 
L 581 4863 
L 1159 4863 
L 1159 2969 
z
" transform="scale(0.015625)"/>
       <path id="DejaVuSans-76" d="M 191 3500 
L 800 3500 
L 1894 563 
L 2988 3500 
L 3597 3500 
L 2284 0 
L 1503 0 
L 191 3500 
z
" transform="scale(0.015625)"/>
       <path id="DejaVuSans-74" d="M 1172 4494 
L 1172 3500 
L 2356 3500 
L 2356 3053 
L 1172 3053 
L 1172 1153 
Q 1172 725 1289 603 
Q 1406 481 1766 481 
L 2356 481 
L 2356 0 
L 1766 0 
Q 1100 0 847 248 
Q 594 497 594 1153 
L 594 3053 
L 172 3053 
L 172 3500 
L 594 3500 
L 594 4494 
L 1172 4494 
z
" transform="scale(0.015625)"/>
       <path id="DejaVuSans-69" d="M 603 3500 
L 1178 3500 
L 1178 0 
L 603 0 
L 603 3500 
z
M 603 4863 
L 1178 4863 
L 1178 4134 
L 603 4134 
L 603 4863 
z
" transform="scale(0.015625)"/>
       <path id="DejaVuSans-70" d="M 1159 525 
L 1159 -1331 
L 581 -1331 
L 581 3500 
L 1159 3500 
L 1159 2969 
Q 1341 3281 1617 3432 
Q 1894 3584 2278 3584 
Q 2916 3584 3314 3078 
Q 3713 2572 3713 1747 
Q 3713 922 3314 415 
Q 2916 -91 2278 -91 
Q 1894 -91 1617 61 
Q 1341 213 1159 525 
z
M 3116 1747 
Q 3116 2381 2855 2742 
Q 2594 3103 2138 3103 
Q 1681 3103 1420 2742 
Q 1159 2381 1159 1747 
Q 1159 1113 1420 752 
Q 1681 391 2138 391 
Q 2594 391 2855 752 
Q 3116 1113 3116 1747 
z
" transform="scale(0.015625)"/>
       <path id="DejaVuSans-79" d="M 2059 -325 
Q 1816 -950 1584 -1140 
Q 1353 -1331 966 -1331 
L 506 -1331 
L 506 -850 
L 844 -850 
Q 1081 -850 1212 -737 
Q 1344 -625 1503 -206 
L 1606 56 
L 191 3500 
L 800 3500 
L 1894 763 
L 2988 3500 
L 3597 3500 
L 2059 -325 
z
" transform="scale(0.015625)"/>
       <path id="DejaVuSans-2c" d="M 750 794 
L 1409 794 
L 1409 256 
L 897 -744 
L 494 -744 
L 750 256 
L 750 794 
z
" transform="scale(0.015625)"/>
       <path id="DejaVuSans-75" d="M 544 1381 
L 544 3500 
L 1119 3500 
L 1119 1403 
Q 1119 906 1312 657 
Q 1506 409 1894 409 
Q 2359 409 2629 706 
Q 2900 1003 2900 1516 
L 2900 3500 
L 3475 3500 
L 3475 0 
L 2900 0 
L 2900 538 
Q 2691 219 2414 64 
Q 2138 -91 1772 -91 
Q 1169 -91 856 284 
Q 544 659 544 1381 
z
M 1991 3584 
L 1991 3584 
z
" transform="scale(0.015625)"/>
       <path id="DejaVuSans-63" d="M 3122 3366 
L 3122 2828 
Q 2878 2963 2633 3030 
Q 2388 3097 2138 3097 
Q 1578 3097 1268 2742 
Q 959 2388 959 1747 
Q 959 1106 1268 751 
Q 1578 397 2138 397 
Q 2388 397 2633 464 
Q 2878 531 3122 666 
L 3122 134 
Q 2881 22 2623 -34 
Q 2366 -91 2075 -91 
Q 1284 -91 818 406 
Q 353 903 353 1747 
Q 353 2603 823 3093 
Q 1294 3584 2113 3584 
Q 2378 3584 2631 3529 
Q 2884 3475 3122 3366 
z
" transform="scale(0.015625)"/>
       <path id="DejaVuSans-29" d="M 513 4856 
L 1013 4856 
Q 1481 4119 1714 3412 
Q 1947 2706 1947 2009 
Q 1947 1309 1714 600 
Q 1481 -109 1013 -844 
L 513 -844 
Q 928 -128 1133 580 
Q 1338 1288 1338 2009 
Q 1338 2731 1133 3434 
Q 928 4138 513 4856 
z
" transform="scale(0.015625)"/>
      </defs>
      <use xlink:href="#DejaVuSans-54"/>
      <use xlink:href="#DejaVuSans-68" x="61.083984"/>
      <use xlink:href="#DejaVuSans-72" x="124.462891"/>
      <use xlink:href="#DejaVuSans-65" x="163.326172"/>
      <use xlink:href="#DejaVuSans-73" x="224.849609"/>
      <use xlink:href="#DejaVuSans-68" x="276.949219"/>
      <use xlink:href="#DejaVuSans-6f" x="340.328125"/>
      <use xlink:href="#DejaVuSans-6c" x="401.509766"/>
      <use xlink:href="#DejaVuSans-64" x="429.292969"/>
      <use xlink:href="#DejaVuSans-20" x="492.769531"/>
      <use xlink:href="#DejaVuSans-28" x="524.556641"/>
      <use xlink:href="#DejaVuSans-61" x="563.570312"/>
      <use xlink:href="#DejaVuSans-62" x="624.849609"/>
      <use xlink:href="#DejaVuSans-6f" x="688.326172"/>
      <use xlink:href="#DejaVuSans-76" x="749.507812"/>
      <use xlink:href="#DejaVuSans-65" x="808.6875"/>
      <use xlink:href="#DejaVuSans-20" x="870.210938"/>
      <use xlink:href="#DejaVuSans-74" x="901.998047"/>
      <use xlink:href="#DejaVuSans-68" x="941.207031"/>
      <use xlink:href="#DejaVuSans-69" x="1004.585938"/>
      <use xlink:href="#DejaVuSans-73" x="1032.369141"/>
      <use xlink:href="#DejaVuSans-20" x="1084.46875"/>
      <use xlink:href="#DejaVuSans-70" x="1116.255859"/>
      <use xlink:href="#DejaVuSans-72" x="1179.732422"/>
      <use xlink:href="#DejaVuSans-6f" x="1218.595703"/>
      <use xlink:href="#DejaVuSans-62" x="1279.777344"/>
      <use xlink:href="#DejaVuSans-61" x="1343.253906"/>
      <use xlink:href="#DejaVuSans-62" x="1404.533203"/>
      <use xlink:href="#DejaVuSans-69" x="1468.009766"/>
      <use xlink:href="#DejaVuSans-6c" x="1495.792969"/>
      <use xlink:href="#DejaVuSans-69" x="1523.576172"/>
      <use xlink:href="#DejaVuSans-74" x="1551.359375"/>
      <use xlink:href="#DejaVuSans-79" x="1590.568359"/>
      <use xlink:href="#DejaVuSans-2c" x="1649.748047"/>
      <use xlink:href="#DejaVuSans-20" x="1681.535156"/>
      <use xlink:href="#DejaVuSans-6c" x="1713.322266"/>
      <use xlink:href="#DejaVuSans-61" x="1741.105469"/>
      <use xlink:href="#DejaVuSans-62" x="1802.384766"/>
      <use xlink:href="#DejaVuSans-65" x="1865.861328"/>
      <use xlink:href="#DejaVuSans-6c" x="1927.384766"/>
      <use xlink:href="#DejaVuSans-20" x="1955.167969"/>
      <use xlink:href="#DejaVuSans-61" x="1986.955078"/>
      <use xlink:href="#DejaVuSans-73" x="2048.234375"/>
      <use xlink:href="#DejaVuSans-20" x="2100.333984"/>
      <use xlink:href="#DejaVuSans-73" x="2132.121094"/>
      <use xlink:href="#DejaVuSans-75" x="2184.220703"/>
      <use xlink:href="#DejaVuSans-63" x="2247.599609"/>
      <use xlink:href="#DejaVuSans-63" x="2302.580078"/>
      <use xlink:href="#DejaVuSans-65" x="2357.560547"/>
      <use xlink:href="#DejaVuSans-73" x="2419.083984"/>
      <use xlink:href="#DejaVuSans-73" x="2471.183594"/>
      <use xlink:href="#DejaVuSans-29" x="2523.283203"/>
     </g>
    </g>
   </g>
   <g id="matplotlib.axis_2">
    <g id="ytick_1">
     <g id="line2d_7">
      <defs>
       <path id="m765afb3abf" d="M 0 0 
L -3.5 0 
" style="stroke: #000000; stroke-width: 0.8"/>
      </defs>
      <g>
       <use xlink:href="#m765afb3abf" x="54" y="233.88" style="stroke: #000000; stroke-width: 0.8"/>
      </g>
     </g>
     <g id="text_8">
      <!-- 0.0 -->
      <g transform="translate(27.91625 238.439063)scale(0.12 -0.12)">
       <use xlink:href="#DejaVuSans-30"/>
       <use xlink:href="#DejaVuSans-2e" x="63.623047"/>
       <use xlink:href="#DejaVuSans-30" x="95.410156"/>
      </g>
     </g>
    </g>
    <g id="ytick_2">
     <g id="line2d_8">
      <g>
       <use xlink:href="#m765afb3abf" x="54" y="197.64" style="stroke: #000000; stroke-width: 0.8"/>
      </g>
     </g>
     <g id="text_9">
      <!-- 0.2 -->
      <g transform="translate(27.91625 202.199062)scale(0.12 -0.12)">
       <use xlink:href="#DejaVuSans-30"/>
       <use xlink:href="#DejaVuSans-2e" x="63.623047"/>
       <use xlink:href="#DejaVuSans-32" x="95.410156"/>
      </g>
     </g>
    </g>
    <g id="ytick_3">
     <g id="line2d_9">
      <g>
       <use xlink:href="#m765afb3abf" x="54" y="161.4" style="stroke: #000000; stroke-width: 0.8"/>
      </g>
     </g>
     <g id="text_10">
      <!-- 0.4 -->
      <g transform="translate(27.91625 165.959063)scale(0.12 -0.12)">
       <use xlink:href="#DejaVuSans-30"/>
       <use xlink:href="#DejaVuSans-2e" x="63.623047"/>
       <use xlink:href="#DejaVuSans-34" x="95.410156"/>
      </g>
     </g>
    </g>
    <g id="ytick_4">
     <g id="line2d_10">
      <g>
       <use xlink:href="#m765afb3abf" x="54" y="125.16" style="stroke: #000000; stroke-width: 0.8"/>
      </g>
     </g>
     <g id="text_11">
      <!-- 0.6 -->
      <g transform="translate(27.91625 129.719063)scale(0.12 -0.12)">
       <use xlink:href="#DejaVuSans-30"/>
       <use xlink:href="#DejaVuSans-2e" x="63.623047"/>
       <use xlink:href="#DejaVuSans-36" x="95.410156"/>
      </g>
     </g>
    </g>
    <g id="ytick_5">
     <g id="line2d_11">
      <g>
       <use xlink:href="#m765afb3abf" x="54" y="88.92" style="stroke: #000000; stroke-width: 0.8"/>
      </g>
     </g>
     <g id="text_12">
      <!-- 0.8 -->
      <g transform="translate(27.91625 93.479062)scale(0.12 -0.12)">
       <use xlink:href="#DejaVuSans-30"/>
       <use xlink:href="#DejaVuSans-2e" x="63.623047"/>
       <use xlink:href="#DejaVuSans-38" x="95.410156"/>
      </g>
     </g>
    </g>
    <g id="ytick_6">
     <g id="line2d_12">
      <g>
       <use xlink:href="#m765afb3abf" x="54" y="52.68" style="stroke: #000000; stroke-width: 0.8"/>
      </g>
     </g>
     <g id="text_13">
      <!-- 1.0 -->
      <g transform="translate(27.91625 57.239062)scale(0.12 -0.12)">
       <use xlink:href="#DejaVuSans-31"/>
       <use xlink:href="#DejaVuSans-2e" x="63.623047"/>
       <use xlink:href="#DejaVuSans-30" x="95.410156"/>
      </g>
     </g>
    </g>
   </g>
   <g id="line2d_13">
    <path d="M 76.406947 200.334769 
L 79.825466 199.985347 
L 79.995555 199.975634 
L 82.000917 199.744992 
L 83.07022 199.518875 
L 83.184826 198.841687 
L 83.188431 198.842771 
L 83.480649 198.780488 
L 84.233934 198.617318 
L 84.39473 198.417711 
L 85.852243 198.031565 
L 86.693905 197.633148 
L 86.917611 197.37084 
L 88.333395 196.660732 
L 88.505249 196.579352 
L 88.548437 196.600299 
L 88.611183 196.548949 
L 89.851841 195.849919 
L 90.795273 195.417736 
L 90.926901 195.322845 
L 91.254168 195.110406 
L 91.375917 194.908607 
L 91.381503 194.930115 
L 91.630929 194.772359 
L 91.63519 194.802111 
L 92.122918 194.723346 
L 92.246018 194.634094 
L 92.447333 194.412618 
L 93.229064 193.972622 
L 93.372245 193.87275 
L 94.070019 193.371249 
L 94.180661 193.285048 
L 94.417207 193.111018 
L 94.512689 192.817875 
L 94.925434 192.579197 
L 95.001855 192.503294 
L 95.402045 192.315759 
L 95.498172 192.251839 
L 95.837062 192.045112 
L 95.946577 191.911194 
L 97.235933 191.270439 
L 97.306823 191.32977 
L 97.341521 191.298877 
L 97.76406 191.067796 
L 97.875404 190.931518 
L 97.880401 190.965378 
L 97.980843 190.891678 
L 98.091828 190.669051 
L 98.402028 190.390201 
L 98.523248 190.31451 
L 99.441839 189.9569 
L 99.502752 190.050183 
L 99.558895 190.007134 
L 100.012757 189.813128 
L 100.606463 189.416054 
L 100.735208 189.405351 
L 100.889131 189.371421 
L 100.958175 189.091126 
L 101.27424 188.961474 
L 101.960187 188.519292 
L 103.024915 188.022881 
L 103.110748 187.909073 
L 103.137991 187.920955 
L 104.709867 187.00547 
L 104.73772 187.080342 
L 104.740724 187.11871 
L 104.837628 187.031393 
L 105.025369 186.944857 
L 105.137866 187.098408 
L 105.255796 187.149197 
L 105.274775 187.09497 
L 105.293388 187.120406 
L 107.474536 185.009557 
L 107.553705 184.959914 
L 107.513628 185.035268 
L 107.58932 184.996316 
L 108.019976 184.708447 
L 108.146923 184.801462 
L 108.190932 184.750632 
L 108.303481 184.627269 
L 108.40755 184.518817 
L 108.599074 184.456612 
L 108.714459 184.357362 
L 108.80783 184.199847 
L 108.817652 184.073112 
L 108.89577 184.083256 
L 109.544051 183.686256 
L 109.728329 183.527082 
L 109.756526 183.569523 
L 109.804903 183.504164 
L 110.10169 183.335984 
L 110.120952 182.300641 
L 110.218843 182.318527 
L 110.950167 181.816027 
L 111.086499 181.672995 
L 111.20744 181.671945 
L 111.211275 181.653967 
L 111.46169 181.499917 
L 111.685522 181.371035 
L 111.708202 181.468862 
L 111.720987 181.513705 
L 111.793173 181.385759 
L 112.189105 181.123144 
L 112.302168 180.973955 
L 112.444789 180.869362 
L 112.766741 180.70735 
L 112.790782 180.71508 
L 112.903908 180.589696 
L 112.968047 180.532436 
L 112.993444 180.578244 
L 113.164973 180.432518 
L 113.264886 180.324316 
L 113.281398 180.397197 
L 113.518218 180.288409 
L 113.529857 180.315256 
L 113.53215 180.361567 
L 113.617112 180.147104 
L 113.753389 179.990047 
L 113.797033 179.83207 
L 113.875988 179.892785 
L 114.110048 179.807407 
L 114.184817 179.834374 
L 114.207662 179.794444 
L 114.27812 179.654222 
L 114.300037 179.728276 
L 114.448075 179.546964 
L 114.960419 179.199955 
L 114.966942 179.247519 
L 115.043232 179.062045 
L 115.664433 178.702035 
L 115.882756 178.692888 
L 115.962075 178.774579 
L 115.99902 178.710947 
L 116.642836 178.393258 
L 116.653864 178.442441 
L 116.698955 178.491663 
L 116.747307 178.383059 
L 116.814089 178.438209 
L 116.842102 178.394623 
L 116.870415 178.444058 
L 116.934698 178.356723 
L 117.037465 178.296739 
L 117.603708 178.064898 
L 117.658509 177.99792 
L 117.707583 177.756106 
L 117.764304 177.794286 
L 117.943022 177.612632 
L 118.105298 177.457561 
L 118.334478 177.278122 
L 118.440433 177.120344 
L 118.852467 176.46117 
L 119.072759 176.252955 
L 119.080753 176.35619 
L 119.176975 176.211658 
L 119.623096 175.911356 
L 119.724988 175.994528 
L 119.728088 175.969928 
L 119.797135 175.896 
L 119.816504 175.648205 
L 119.819367 175.700778 
L 120.043022 175.55382 
L 120.673274 175.263413 
L 120.776041 174.673676 
L 120.785883 174.727276 
L 121.00027 174.570925 
L 121.134839 174.255731 
L 121.224876 174.391091 
L 121.242168 174.445113 
L 121.290009 174.312918 
L 121.509822 174.127721 
L 121.774738 173.833534 
L 121.867588 173.806928 
L 122.013795 173.807815 
L 122.081433 173.862624 
L 122.124196 173.781042 
L 122.295382 173.589968 
L 122.447415 173.452445 
L 122.687868 173.175089 
L 122.708632 173.230413 
L 122.78739 173.146759 
L 122.896107 172.866236 
L 122.944734 172.893592 
L 123.069121 172.667193 
L 123.240446 172.494911 
L 123.365652 172.405971 
L 123.486712 172.514055 
L 123.49333 172.427339 
L 123.591817 172.194894 
L 123.623726 172.306351 
L 123.882447 171.865489 
L 123.982167 171.597929 
L 124.154122 171.433533 
L 124.268701 171.25165 
L 124.530141 171.085286 
L 124.616709 170.989278 
L 124.737834 171.012874 
L 124.747935 170.98192 
L 124.960668 170.446484 
L 125.000531 170.32006 
L 125.074685 170.3694 
L 125.380997 169.884036 
L 125.406274 169.910909 
L 125.512019 169.547548 
L 125.744851 169.370946 
L 125.860742 168.965567 
L 125.901553 169.085573 
L 125.905121 169.112231 
L 125.968583 168.978137 
L 126.515094 168.250011 
L 126.593017 168.337536 
L 126.665305 168.294626 
L 126.72879 168.417294 
L 126.741598 168.443994 
L 126.858393 168.234822 
L 127.333603 167.989091 
L 127.398702 167.953628 
L 127.400266 168.015703 
L 127.415234 168.077845 
L 127.492487 168.042372 
L 127.532249 168.006861 
L 127.534786 168.069099 
L 127.572928 168.131404 
L 127.623108 168.060324 
L 128.066882 167.383675 
L 128.325394 167.50674 
L 128.480387 166.930196 
L 129.778262 166.227856 
L 129.919354 165.943025 
L 130.073224 165.956125 
L 130.146034 166.086928 
L 130.2035 165.9693 
L 130.322855 165.204555 
L 130.388146 165.163798 
L 130.3978 165.230594 
L 130.417064 165.297469 
L 130.444662 165.256694 
L 130.601635 165.242001 
L 130.692909 165.358992 
L 130.629969 165.223885 
L 130.70482 165.317838 
L 131.160692 165.107361 
L 131.211858 165.065706 
L 131.261382 165.133818 
L 131.300218 165.270291 
L 131.351203 165.103358 
L 131.407051 165.171783 
L 131.458199 165.129939 
L 131.680142 165.156585 
L 131.9724 164.846135 
L 132.041703 164.983931 
L 132.089144 164.856738 
L 132.242021 164.686416 
L 132.270129 164.782101 
L 132.302931 164.851429 
L 132.38287 164.765944 
L 132.56915 164.335327 
L 133.067036 164.152693 
L 133.071847 164.222714 
L 133.285895 164.047254 
L 133.520529 163.693671 
L 133.821616 163.477452 
L 133.824168 163.342668 
L 134.101976 163.16215 
L 134.165182 163.213162 
L 134.226846 163.076915 
L 134.255362 163.14791 
L 134.327836 163.056819 
L 134.922395 162.694286 
L 134.975991 162.648031 
L 135.003415 162.347451 
L 135.299868 162.112918 
L 135.358094 161.971459 
L 135.40812 162.043314 
L 135.488432 162.020711 
L 135.5293 162.16496 
L 135.620702 162.070225 
L 135.749265 162.047571 
L 135.979001 161.593409 
L 136.112649 161.642408 
L 136.538928 161.375464 
L 136.682809 161.449273 
L 137.052378 161.101933 
L 137.083251 161.176296 
L 137.097403 161.076429 
L 137.235814 161.000661 
L 137.274998 161.099876 
L 137.329701 161.049613 
L 137.430187 160.898408 
L 137.479812 160.695822 
L 137.564414 160.770833 
L 137.565118 160.845949 
L 137.649404 160.819554 
L 137.985853 161.120645 
L 138.089562 160.96736 
L 138.238061 161.068459 
L 138.240851 161.017183 
L 138.504512 160.836153 
L 138.584795 160.912696 
L 138.629594 160.86102 
L 138.758183 160.757447 
L 139.237622 160.93439 
L 139.308803 160.777854 
L 139.350505 160.802923 
L 139.39775 160.9057 
L 139.439902 160.800776 
L 139.524807 160.878561 
L 139.532745 160.826004 
L 139.670248 160.798615 
L 139.704456 160.954855 
L 139.802298 160.84932 
L 139.842564 160.927647 
L 140.521952 160.628936 
L 140.658968 160.275864 
L 141.031949 160.082671 
L 141.051095 159.973016 
L 141.087839 160.052788 
L 141.215032 159.88775 
L 141.289277 159.721972 
L 141.744918 159.604324 
L 141.755326 159.684658 
L 141.778494 159.517048 
L 142.08275 159.260167 
L 142.107626 159.421774 
L 142.243478 159.576951 
L 142.253594 159.488257 
L 142.419004 159.284608 
L 142.438264 159.227271 
L 142.448886 159.309231 
L 142.479607 159.251824 
L 142.598805 159.581004 
L 142.705845 158.699765 
L 143.001222 158.522453 
L 143.00747 158.463163 
L 143.098798 158.629882 
L 143.150844 158.570536 
L 143.341469 158.82166 
L 143.458038 157.685327 
L 143.547009 157.770145 
L 143.599601 157.708618 
L 143.736064 157.461509 
L 143.799962 157.631747 
L 143.809865 157.593029 
L 144.093374 157.366743 
L 144.174514 157.624381 
L 144.177715 157.561773 
L 144.460925 157.459572 
L 144.474401 157.545952 
L 144.530977 157.632475 
L 144.541767 157.506446 
L 144.571279 156.309941 
L 144.620709 156.484549 
L 144.812704 156.353924 
L 144.929601 155.959389 
L 145.033209 155.980935 
L 145.041004 155.914694 
L 145.085202 155.715294 
L 145.109742 155.824615 
L 145.48786 155.422268 
L 145.610804 155.287229 
L 145.783062 155.172228 
L 145.902952 155.438442 
L 146.030093 155.527487 
L 146.065461 155.459532 
L 146.421251 154.842587 
L 146.509922 154.931969 
L 146.525687 154.862837 
L 146.794873 154.445493 
L 146.809358 154.535154 
L 146.851365 154.624974 
L 146.864225 154.484947 
L 146.910764 154.273977 
L 146.958808 154.454268 
L 147.651321 153.564324 
L 147.979477 153.054615 
L 148.086264 152.760437 
L 148.296809 152.538394 
L 148.587967 152.34832 
L 148.611256 152.439926 
L 148.636394 152.214747 
L 148.679131 152.306568 
L 148.7321 152.155786 
L 148.740781 152.247808 
L 149.02168 151.900522 
L 149.099381 151.993165 
L 149.127037 151.916636 
L 149.158752 151.763146 
L 149.222388 151.856007 
L 149.274745 151.949043 
L 149.301612 151.795038 
L 149.316533 151.717817 
L 150.459326 151.248642 
L 150.538727 151.342967 
L 150.922973 151.055699 
L 150.991769 151.245797 
L 151.039802 151.16588 
L 151.346781 150.925199 
L 151.363701 151.020583 
L 151.448981 150.940058 
L 151.500514 150.778539 
L 151.671606 150.697544 
L 151.735664 150.793171 
L 151.787646 150.467659 
L 151.822503 150.659588 
L 151.938293 150.413858 
L 151.983309 150.249231 
L 152.034908 150.442055 
L 152.301406 150.193974 
L 152.525653 150.484771 
L 152.782558 150.151856 
L 152.981973 149.9844 
L 153.181527 149.731956 
L 153.762054 149.842575 
L 154.326807 149.50303 
L 154.354297 149.60093 
L 154.423659 149.712049 
L 154.507869 149.39411 
L 154.584116 149.592295 
L 154.648965 149.505846 
L 155.008045 149.257732 
L 155.133579 149.470062 
L 155.159508 149.382591 
L 155.182758 149.207103 
L 155.370124 149.307443 
L 155.800355 149.042878 
L 155.809414 149.143466 
L 155.854943 148.966192 
L 155.975278 148.799748 
L 156.064306 148.90082 
L 156.116137 148.811368 
L 156.11736 148.721728 
L 156.47258 148.643214 
L 156.473258 148.744762 
L 156.631418 148.846525 
L 156.67417 148.756352 
L 156.817983 148.57543 
L 156.827272 148.484681 
L 157.669219 148.140515 
L 157.707074 148.24305 
L 157.782332 148.150968 
L 158.009174 147.79039 
L 158.110916 148.006957 
L 158.346225 147.631965 
L 158.496415 147.357497 
L 158.723046 147.461538 
L 158.760689 147.366469 
L 158.807946 147.1757 
L 158.993142 147.28 
L 159.04193 147.184309 
L 159.194956 147.000533 
L 159.374239 146.904 
L 159.639567 147.017124 
L 159.73217 146.920179 
L 159.741809 147.025475 
L 160.033179 146.936502 
L 160.108929 147.148315 
L 160.113105 146.952973 
L 160.133107 146.854972 
L 160.331887 146.961264 
L 160.361445 146.863051 
L 160.404947 146.764615 
L 160.680064 146.567075 
L 160.874916 146.069282 
L 161.055247 146.182517 
L 161.163707 145.77931 
L 161.174574 145.677929 
L 161.735576 145.270058 
L 162.026418 144.96951 
L 162.051299 145.0772 
L 162.348283 144.869474 
L 162.42649 144.660774 
L 162.4311 144.768732 
L 162.658594 145.094134 
L 162.85457 144.884486 
L 162.957494 145.102722 
L 163.031632 144.997536 
L 163.387211 144.8921 
L 163.470469 145.001615 
L 163.85579 144.899785 
L 164.180481 145.12898 
L 164.256095 145.022308 
L 164.69529 145.13343 
L 164.886899 144.811884 
L 164.988141 144.923289 
L 164.99878 145.034964 
L 165.088613 144.81932 
L 165.354654 144.931276 
L 165.752649 144.605854 
L 165.817287 144.718095 
L 165.845396 144.609095 
L 165.853315 144.499829 
L 166.099456 144.280491 
L 166.619009 143.28 
L 166.896249 143.167173 
L 167.085041 143.28 
L 167.511779 143.0535 
L 167.646823 142.938971 
L 167.780565 143.052362 
L 167.802393 142.938113 
L 167.863823 142.47823 
L 167.887623 142.591899 
L 168.053992 142.476198 
L 168.086283 142.590152 
L 169.048869 141.768062 
L 169.27954 141.292645 
L 169.63313 141.053092 
L 169.6868 140.812296 
L 169.868007 141.041508 
L 169.907322 141.271917 
L 169.946457 141.266667 
L 170.479677 141.023906 
L 170.771994 141.372632 
L 170.842278 141.128549 
L 170.997114 141.24539 
L 171.237427 140.746578 
L 171.677982 140.6224 
L 171.781754 140.85754 
L 172.019259 140.60815 
L 172.023181 140.726174 
L 172.26808 140.475424 
L 172.286722 140.349542 
L 172.310502 140.586486 
L 172.359521 140.70544 
L 172.414689 140.579187 
L 172.480724 140.325652 
L 172.647415 140.198367 
L 172.783239 140.317602 
L 173.235537 139.924444 
L 173.300434 139.795385 
L 173.338865 139.915213 
L 173.602272 140.035372 
L 173.821827 139.766427 
L 173.829164 139.635895 
L 174.143209 139.362845 
L 174.143541 139.483911 
L 174.216549 139.605315 
L 174.385431 139.34087 
L 174.433168 139.20809 
L 174.451859 139.329789 
L 174.761943 139.574217 
L 174.911327 139.943456 
L 174.948313 140.067234 
L 175.17314 140.315846 
L 175.254751 140.684011 
L 175.465914 140.542446 
L 175.757923 140.26437 
L 175.81138 140.128696 
L 177.102284 139.167848 
L 177.248577 139.42185 
L 177.249252 139.282941 
L 177.305861 139.143623 
L 177.317513 139.27115 
L 177.383048 139.399055 
L 177.560932 139.25929 
L 178.008157 139.516202 
L 178.060007 139.64523 
L 178.097988 139.505 
L 178.242986 139.223284 
L 178.287776 139.352646 
L 178.474932 139.211138 
L 178.572407 139.34087 
L 178.615545 139.198919 
L 178.831436 139.459518 
L 178.860458 139.590407 
L 179.602751 139.305113 
L 179.616596 139.436364 
L 179.681212 139.29305 
L 179.699929 139.149301 
L 179.921457 138.860488 
L 179.936485 138.71542 
L 180.085415 138.569908 
L 180.406195 138.423951 
L 180.670369 138.819692 
L 181.124125 138.67322 
L 181.134631 138.378918 
L 181.237126 138.644651 
L 181.965461 137.581887 
L 181.995899 137.715591 
L 182.405233 137.563912 
L 182.51629 137.698009 
L 183.063937 137.086359 
L 183.111854 137.220764 
L 183.172678 137.066603 
L 183.520249 136.601154 
L 183.924915 136.870997 
L 184.094114 136.714783 
L 184.459111 136.558065 
L 184.465603 136.40084 
L 184.653027 136.536311 
L 184.768542 136.22026 
L 184.864949 136.356098 
L 185.069625 136.197264 
L 185.158315 136.333507 
L 185.196004 136.174118 
L 185.415769 136.310769 
L 185.494742 136.15082 
L 185.500849 136.287882 
L 185.643277 136.701782 
L 185.958128 136.541157 
L 186.033251 135.893311 
L 186.563277 136.007759 
L 186.565927 136.287383 
L 186.665505 136.123361 
L 187.451094 135.602034 
L 187.464673 135.742818 
L 187.524602 135.24041 
L 187.630561 134.73283 
L 187.779913 134.873814 
L 187.867128 134.703408 
L 188.085849 134.532414 
L 188.092218 134.360829 
L 188.158243 134.502145 
L 188.308855 134.157083 
L 188.479802 134.298783 
L 188.633703 134.125296 
L 188.890663 134.267435 
L 189.054309 133.918529 
L 189.317261 134.061053 
L 189.44469 133.709577 
L 189.886982 133.852487 
L 190.090595 133.498407 
L 190.462995 133.141812 
L 190.532057 133.284982 
L 190.567318 133.572857 
L 190.588602 133.538065 
L 190.698628 133.357917 
L 190.871976 133.503022 
L 190.936195 133.322162 
L 191.157312 133.467726 
L 191.230086 133.760435 
L 191.245559 133.57873 
L 191.33118 133.396364 
L 191.35117 133.543388 
L 191.967656 133.360292 
L 192.046043 132.621176 
L 192.176989 132.059667 
L 192.35019 132.206667 
L 193.105614 132.502305 
L 193.122538 132.31352 
L 193.175078 132.082247 
L 193.509828 131.699549 
L 193.59409 131.848362 
L 193.663935 131.655849 
L 193.790631 131.805142 
L 194.093676 131.611818 
L 194.391419 131.761594 
L 194.605668 131.567452 
L 195.027968 131.372571 
L 195.042967 131.522748 
L 195.100694 131.327036 
L 195.40998 131.477701 
L 195.467514 131.281152 
L 195.577523 131.432308 
L 195.708764 131.234913 
L 195.749817 131.386564 
L 195.756414 131.188317 
L 195.885599 131.340465 
L 196.124119 131.141359 
L 196.126169 131.294008 
L 196.268032 131.447251 
L 196.356264 131.2 
L 196.845534 130.795748 
L 197.038116 131.259802 
L 197.302852 131.05619 
L 197.693561 131.212008 
L 197.947737 131.6832 
L 198.337296 131.841523 
L 198.441999 131.430905 
L 198.855586 131.224355 
L 199.216626 131.38303 
L 199.32939 130.967221 
L 199.672399 130.758049 
L 199.756849 130.337143 
L 199.788418 130.495951 
L 200.111067 130.071376 
L 200.163581 129.857778 
L 200.478312 130.016907 
L 200.608586 129.370456 
L 200.682179 129.529896 
L 200.919385 129.3125 
L 200.952306 129.094196 
L 201.256139 128.874979 
L 201.265337 129.034717 
L 201.316233 128.814454 
L 201.54645 128.593263 
L 201.564213 128.753418 
L 201.674784 128.307966 
L 201.808217 128.468535 
L 203.127104 128.629787 
L 203.207008 128.405373 
L 203.24159 128.567179 
L 203.547251 128.115193 
L 203.557585 128.277419 
L 203.603849 128.440345 
L 204.06528 127.754187 
L 204.322472 128.245939 
L 204.374291 128.411291 
L 205.36556 128.18 
L 205.392644 128.345934 
L 205.410672 128.11348 
L 205.460227 128.28 
L 205.738178 128.784 
L 205.759473 128.719286 
L 206.091784 128.484027 
L 206.647401 128.824719 
L 206.741876 128.996216 
L 206.750299 128.759458 
L 206.921717 128.521629 
L 206.943782 128.693605 
L 207.152212 128.866364 
L 207.281723 128.627153 
L 207.612343 128.800548 
L 207.750115 128.318532 
L 207.865895 127.832074 
L 208.378028 127.587159 
L 208.392255 127.341111 
L 208.458523 127.514339 
L 208.484162 127.688372 
L 208.540395 127.440839 
L 208.691982 127.791007 
L 209.038711 127.21617 
L 209.238563 127.570261 
L 209.350641 127.062816 
L 209.378634 127.240766 
L 209.46978 126.985036 
L 209.681546 127.163654 
L 209.854352 126.648116 
L 210.276978 126.827215 
L 210.351124 127.007184 
L 210.64832 127.188029 
L 211.293049 127.369756 
L 211.31197 127.552372 
L 211.517909 127.291765 
L 211.549596 127.475086 
L 211.592307 127.213005 
L 211.778646 126.94963 
L 212.039065 127.133465 
L 212.180731 126.868586 
L 212.529568 127.053134 
L 212.67303 127.425 
L 212.832176 127.612331 
L 212.879003 127.345327 
L 212.920095 127.533401 
L 213.19687 127.264848 
L 213.261543 126.994937 
L 213.357452 127.183553 
L 213.366427 126.912061 
L 213.739688 126.639184 
L 213.854215 127.018462 
L 213.880217 126.743753 
L 213.904684 126.190078 
L 214.050499 126.380518 
L 214.051714 126.101299 
L 214.150881 126.4847 
L 214.167062 126.677906 
L 214.454602 126.396535 
L 214.966853 127.178674 
L 214.972105 126.894894 
L 215.284345 126.6096 
L 215.821643 126.322781 
L 215.873557 126.034424 
L 216.024419 126.231613 
L 216.033043 126.429865 
L 216.10713 126.139459 
L 216.320568 125.553913 
L 216.640545 125.952131 
L 216.646531 125.656438 
L 216.932058 125.359121 
L 216.96736 125.559339 
L 216.9751 125.26011 
L 217.62315 124.656667 
L 217.808676 125.058771 
L 217.819776 124.75395 
L 218.02716 124.956404 
L 218.619574 125.16 
L 218.642981 125.364746 
L 218.765304 125.057337 
L 219.013521 125.469744 
L 219.263917 125.16 
L 219.474375 125.367679 
L 219.858066 125.576552 
L 219.95968 125.786628 
L 220.564126 125.47422 
L 221.522269 125.16 
L 221.628763 125.582624 
L 222.572678 124.304779 
L 222.772727 124.516686 
L 223.206484 124.729852 
L 223.294835 124.405 
L 223.325989 124.619104 
L 223.612021 125.051171 
L 223.620136 124.723373 
L 223.690031 124.941027 
L 223.884161 124.278784 
L 223.949759 123.944634 
L 224.095416 124.162569 
L 224.394633 123.487385 
L 224.860444 123.146667 
L 224.963081 123.36483 
L 225.045476 123.021615 
L 225.151246 123.240748 
L 225.566911 123.46125 
L 225.676496 123.683135 
L 226.100601 123.906415 
L 226.634976 123.559495 
L 227.502233 124.236688 
L 227.785324 123.88639 
L 228.655978 124.344309 
L 229.196885 124.575484 
L 229.275497 124.808155 
L 229.800557 125.278046 
L 231.441407 124.206316 
L 231.563124 124.68 
L 231.597261 124.317209 
L 231.621917 123.952 
L 231.693014 124.190368 
L 232.000123 123.822282 
L 232.065529 123.451717 
L 232.433372 123.690811 
L 232.672014 124.173878 
L 232.866187 123.799454 
L 232.98386 124.043014 
L 233.667454 123.665567 
L 233.740585 123.285517 
L 234.091451 123.529827 
L 234.262973 124.023554 
L 235.146829 123.639441 
L 235.185928 123.888421 
L 235.378861 124.139155 
L 236.193831 123.360851 
L 236.546945 123.612384 
L 236.649624 123.865714 
L 236.91689 123.471398 
L 236.918219 123.074245 
L 237.061497 123.328375 
L 237.20224 122.927826 
L 237.52543 123.183273 
L 238.167274 123.440584 
L 238.30818 123.69978 
L 238.746121 123.960882 
L 238.893554 124.223911 
L 239.444592 124.488889 
L 239.674715 125.024776 
L 239.857055 124.617079 
L 239.886197 124.887519 
L 240.091541 124.476226 
L 240.10086 125.022205 
L 240.1601 124.606718 
L 240.493033 124.882299 
L 240.841284 124.463077 
L 242.396424 124.040618 
L 242.468166 124.595953 
L 242.750792 124.876875 
L 243.072458 124.731969 
L 243.256466 125.593147 
L 243.613431 125.8848 
L 244.197198 125.013871 
L 244.600718 125.306721 
L 244.80566 126.199672 
L 245.216649 126.807273 
L 245.702035 126.362988 
L 245.711124 126.67 
L 246.432129 127.924068 
L 246.715229 127.473191 
L 247.101873 128.115193 
L 247.243734 127.65931 
L 247.463247 127.983896 
L 247.843347 128.311304 
L 248.04365 128.641572 
L 248.194459 128.18 
L 248.300385 128.512599 
L 248.418881 128.046372 
L 248.420726 128.381333 
L 248.707591 127.435157 
L 248.981804 127.771892 
L 249.454219 127.291765 
L 249.505461 127.630909 
L 250.298729 126.656147 
L 250.430862 126.997051 
L 250.708086 126.502222 
L 250.747051 126.002791 
L 251.00828 126.345421 
L 251.489955 126.691268 
L 251.56618 126.18566 
L 251.774081 126.534028 
L 251.947645 125.335072 
L 252.544379 125.687767 
L 252.786862 125.16 
L 252.789775 124.627059 
L 252.926288 124.088867 
L 253.381848 124.442376 
L 253.968183 123.348 
L 253.978252 122.792563 
L 254.408914 122.231515 
L 255.145143 122.584569 
L 255.154427 122.941224 
L 255.351605 123.301538 
L 256.011561 122.731546 
L 256.224705 122.155648 
L 256.248514 122.5175 
L 256.30153 121.93445 
L 256.333216 122.298947 
L 256.655195 121.708571 
L 257.116216 122.075745 
L 257.517439 120.63 
L 257.802742 120.011148 
L 257.871789 119.385495 
L 258.237543 119.754033 
L 258.66207 117.830562 
L 259.077981 118.570909 
L 259.277492 117.912 
L 259.320518 117.245517 
L 259.995067 118.378246 
L 259.998857 117.698824 
L 260.432224 117.011361 
L 260.839628 117.394286 
L 260.87008 117.781796 
L 261.285302 116.044417 
L 261.319199 116.435556 
L 261.772344 116.831553 
L 262.803994 115.359245 
L 263.098946 115.755949 
L 264.409935 115.003567 
L 264.590928 114.241538 
L 264.930174 114.63871 
L 265.029362 113.864416 
L 265.565461 112.285263 
L 266.213898 112.68 
L 266.611805 114.312653 
L 266.730194 113.502378 
L 267.11493 113.930704 
L 267.263329 113.08 
L 267.310818 113.511429 
L 267.659282 111.766957 
L 267.870347 112.198248 
L 269.047514 113.08 
L 269.47017 110.334545 
L 269.962336 110.774656 
L 270.084879 111.675349 
L 271.171451 112.604409 
L 271.593983 111.641905 
L 272.942843 110.664 
L 272.983938 111.131613 
L 273.353362 110.133659 
L 273.713226 110.60459 
L 273.787662 111.083306 
L 274.052984 111.57 
L 274.529579 113.08 
L 274.850307 113.60069 
L 274.869591 114.130435 
L 275.392418 113.08 
L 275.643778 113.614513 
L 276.215941 112.540714 
L 276.525745 110.334545 
L 276.930514 111.402222 
L 276.98959 110.25757 
L 277.030371 110.800755 
L 277.702373 111.354286 
L 277.790516 112.493592 
L 278.1819 111.303529 
L 278.911915 111.88396 
L 279.159762 112.476 
L 279.231154 113.08 
L 279.633886 111.847347 
L 280.086374 112.45732 
L 280.210782 111.1925 
L 280.230543 111.808421 
L 280.610012 109.797391 
L 280.957456 110.425055 
L 281.741711 109.053333 
L 281.927186 109.686742 
L 282.000011 110.334545 
L 282.197852 110.997241 
L 282.507296 109.568372 
L 282.595109 110.237647 
L 282.802256 110.922857 
L 283.680795 109.441446 
L 283.81362 107.923902 
L 284.221366 108.605926 
L 284.334273 107.04 
L 285.071947 107.728101 
L 286.290317 106.110769 
L 286.347513 106.804675 
L 286.603082 107.516842 
L 288.050719 108.998919 
L 288.273776 109.770411 
L 288.647517 110.563333 
L 289.435686 111.378592 
L 289.567183 109.628571 
L 290.458542 110.453913 
L 290.534105 111.303529 
L 291.035012 112.178507 
L 292.249904 113.08 
L 292.4984 111.221538 
L 292.557112 109.305 
L 292.752459 107.327619 
L 293.112105 105.286452 
L 293.118701 106.148852 
L 293.203335 104.02 
L 293.229669 101.818983 
L 293.273409 102.666207 
L 293.631898 100.364211 
L 294.328803 101.215714 
L 294.765304 98.803636 
L 294.824041 96.302222 
L 295.022472 97.125283 
L 295.25271 94.495385 
L 295.866349 95.315294 
L 296.030157 97.05551 
L 297.736011 98.94383 
L 297.959907 99.949565 
L 298.364903 101 
L 299.297187 97.98 
L 299.584236 94.819535 
L 299.785948 95.822857 
L 300.171222 96.875122 
L 300.439324 97.98 
L 302.756804 101.652973 
L 304.46192 97.98 
L 304.517042 99.274286 
L 304.517614 95.315294 
L 307.949587 96.607273 
L 311.620578 99.44129 
L 312.897603 94.96 
L 313.565134 96.417931 
L 315.909426 97.98 
L 315.999517 101.464615 
L 316.012646 96.168 
L 317.286579 97.98 
L 317.571498 92.071304 
L 318.249385 95.822857 
L 321.967763 97.98 
L 325.433834 100.364211 
L 325.996271 103.013333 
L 326.207146 95.315294 
L 327.326309 97.98 
L 327.631579 101 
L 328.442585 104.451429 
L 328.696811 94.495385 
L 329.842392 97.98 
L 334.555383 102.098182 
L 334.592091 107.04 
L 336.874152 113.08 
L 336.908578 120.63 
L 337.214509 130.337143 
L 338.389763 143.28 
L 342.950553 161.4 
L 345.869637 143.28 
L 346.84684 173.48 
L 347.592613 233.88 
L 348.850621 233.88 
L 370.404356 52.68 
L 370.404356 52.68 
" clip-path="url(#p1fe6c561e5)" style="fill: none; stroke: #1f77b4; stroke-width: 1.5; stroke-linecap: square"/>
   </g>
   <g id="line2d_14">
    <path d="M 76.406947 52.847159 
L 77.549472 52.847159 
L 77.594974 53.014317 
L 78.034965 53.014317 
L 78.134662 53.181476 
L 79.897618 53.181476 
L 79.995555 53.348635 
L 83.047294 53.348635 
L 83.263228 54.853063 
L 83.578355 54.853063 
L 83.708911 55.18738 
L 83.925235 55.18738 
L 83.928121 55.354539 
L 84.233934 55.354539 
L 84.386452 55.521697 
L 85.339011 55.521697 
L 85.454785 56.023173 
L 85.567757 56.190332 
L 85.750954 56.190332 
L 85.883127 56.524649 
L 86.326837 56.524649 
L 86.423126 56.858967 
L 86.681943 56.858967 
L 86.793206 57.026125 
L 86.965281 57.026125 
L 87.087585 57.360443 
L 87.208576 57.360443 
L 87.357312 57.527601 
L 87.574224 57.527601 
L 87.67748 57.861919 
L 87.806644 57.861919 
L 87.924836 58.196236 
L 88.024052 58.196236 
L 88.08386 58.363395 
L 88.244661 58.363395 
L 88.368518 58.530554 
L 88.477591 58.530554 
L 88.593399 58.864871 
L 88.683867 58.864871 
L 88.803908 59.199188 
L 88.835186 59.199188 
L 88.954763 59.366347 
L 89.119947 59.366347 
L 89.238549 59.533506 
L 89.486905 59.533506 
L 89.609996 59.867823 
L 89.979106 59.867823 
L 90.103505 60.369299 
L 90.273167 60.536458 
L 90.604772 60.536458 
L 90.714158 60.870775 
L 90.957783 60.870775 
L 91.077563 61.037934 
L 91.120512 61.037934 
L 91.230062 61.205092 
L 91.375917 61.205092 
L 91.476632 61.372251 
L 91.498496 61.372251 
L 91.613557 61.53941 
L 91.630929 61.53941 
L 91.735909 61.873727 
L 91.871315 61.873727 
L 91.98531 62.375203 
L 92.002879 62.375203 
L 92.204427 63.043838 
L 92.223255 63.043838 
L 92.340235 64.213948 
L 92.624868 64.213948 
L 92.736914 64.381107 
L 93.003344 64.381107 
L 93.101795 64.715424 
L 93.334896 64.715424 
L 93.431277 65.049742 
L 93.569382 65.049742 
L 93.662491 65.551218 
L 93.824063 65.551218 
L 93.948507 66.052694 
L 94.097039 66.052694 
L 94.208679 66.219852 
L 94.270956 66.219852 
L 94.369531 66.387011 
L 94.396399 66.387011 
L 94.512689 67.055646 
L 94.601076 67.055646 
L 94.703054 67.557122 
L 94.842318 67.557122 
L 94.960527 67.72428 
L 95.112559 67.72428 
L 95.247147 67.891439 
L 95.414582 67.891439 
L 95.536247 68.058598 
L 95.54821 68.058598 
L 95.668142 68.225756 
L 95.779088 68.225756 
L 95.897907 68.560074 
L 96.065011 68.560074 
L 96.200536 68.727232 
L 96.460179 68.727232 
L 96.57951 70.064502 
L 96.810876 70.064502 
L 97.296642 71.401771 
L 97.415154 71.56893 
L 97.431365 71.56893 
L 97.53706 71.903247 
L 97.657315 72.070406 
L 97.875404 72.070406 
L 97.98951 72.237565 
L 98.581763 72.237565 
L 98.700541 72.404723 
L 98.789423 72.404723 
L 98.903333 73.073358 
L 99.080686 73.073358 
L 99.210877 73.407675 
L 99.242103 73.407675 
L 99.342708 73.909151 
L 99.441839 73.909151 
L 99.616953 74.577786 
L 99.800421 74.577786 
L 99.985938 75.580738 
L 100.071566 75.580738 
L 100.190235 75.747897 
L 100.329768 75.915055 
L 100.532122 75.915055 
L 100.648397 76.249373 
L 100.833363 76.249373 
L 100.958175 76.416531 
L 101.504401 76.416531 
L 101.599781 77.419483 
L 101.715781 77.753801 
L 102.042473 77.753801 
L 102.166277 78.088118 
L 102.260509 78.088118 
L 102.345499 78.422435 
L 102.40462 78.422435 
L 102.535143 78.589594 
L 102.620767 78.589594 
L 102.725387 78.923911 
L 102.753152 78.923911 
L 102.895576 79.09107 
L 103.028626 79.09107 
L 103.159221 79.425387 
L 103.204818 79.425387 
L 103.323899 79.592546 
L 103.404323 79.592546 
L 103.508691 80.094022 
L 103.777011 80.094022 
L 103.905737 80.762657 
L 104.033576 80.762657 
L 104.15284 81.264133 
L 104.192259 81.264133 
L 104.266308 81.765609 
L 104.492983 81.765609 
L 104.635033 81.932768 
L 104.666726 81.932768 
L 104.849432 83.437196 
L 104.862709 83.437196 
L 104.962071 83.938672 
L 105.025369 83.938672 
L 105.137866 84.774465 
L 105.372704 85.275941 
L 105.56987 85.275941 
L 105.684737 85.4431 
L 105.761724 85.4431 
L 105.850894 85.610258 
L 105.958848 85.610258 
L 106.080518 85.944576 
L 106.137858 85.944576 
L 106.352474 86.446052 
L 106.448122 86.446052 
L 106.560293 86.780369 
L 106.979287 86.780369 
L 107.103338 87.114686 
L 107.15516 87.114686 
L 107.330489 87.449004 
L 107.478652 87.449004 
L 107.775083 88.451956 
L 108.019976 88.451956 
L 108.252473 89.12059 
L 108.40755 89.12059 
L 108.503236 89.454908 
L 108.568557 89.454908 
L 108.656674 89.789225 
L 108.817652 89.789225 
L 108.951144 89.956384 
L 109.102478 89.956384 
L 109.220524 90.123542 
L 109.268862 90.123542 
L 109.378176 90.290701 
L 109.588489 90.290701 
L 109.728329 90.625018 
L 109.837493 90.792177 
L 109.871921 90.792177 
L 109.980502 91.126494 
L 110.004565 91.126494 
L 110.161097 92.96524 
L 110.184978 92.96524 
L 110.282459 93.132399 
L 110.375402 93.132399 
L 110.487624 93.299557 
L 110.531903 93.299557 
L 110.638322 93.466716 
L 110.820589 93.466716 
L 110.977705 93.633875 
L 111.086499 93.633875 
L 111.269445 93.968192 
L 111.293009 93.968192 
L 111.296171 94.135351 
L 111.563254 94.135351 
L 111.725491 95.138303 
L 112.036446 95.138303 
L 112.176317 95.806937 
L 112.412395 95.806937 
L 112.444789 95.974096 
L 112.729625 95.974096 
L 112.87229 96.475572 
L 112.968047 96.475572 
L 113.130034 96.809889 
L 113.235748 96.809889 
L 113.394913 97.478524 
L 113.518218 97.478524 
L 113.617112 97.812841 
L 113.797033 97.812841 
L 113.907866 98.314317 
L 114.072103 98.314317 
L 114.207662 98.815793 
L 114.27812 98.815793 
L 114.38835 99.150111 
L 114.629077 99.150111 
L 114.727271 99.317269 
L 114.804404 99.317269 
L 114.960419 99.651587 
L 115.06899 99.818745 
L 115.088356 99.818745 
L 115.222318 100.153063 
L 115.264534 100.153063 
L 115.375998 100.320221 
L 115.444767 100.320221 
L 115.548621 100.654539 
L 115.580041 100.654539 
L 115.664433 100.821697 
L 115.756154 100.821697 
L 115.882756 101.156015 
L 116.108502 101.824649 
L 116.167498 101.824649 
L 116.264176 102.158967 
L 116.34372 102.660443 
L 116.557848 102.660443 
L 116.759121 103.329077 
L 117.037465 103.997712 
L 117.221243 103.997712 
L 117.334094 104.499188 
L 117.495621 105.000664 
L 117.658509 105.000664 
L 117.764304 105.669299 
L 118.080788 105.669299 
L 118.192221 105.836458 
L 118.317302 105.836458 
L 118.402487 106.170775 
L 118.991188 106.170775 
L 119.284652 107.006568 
L 119.321929 107.006568 
L 119.44363 107.508044 
L 119.518841 107.508044 
L 119.746361 108.176679 
L 119.816504 108.176679 
L 119.819367 108.343838 
L 119.933081 108.343838 
L 120.043022 108.510996 
L 120.299125 108.510996 
L 120.415622 108.678155 
L 120.428442 108.678155 
L 120.555866 109.012472 
L 120.673274 109.34679 
L 120.904318 109.681107 
L 121.134839 109.681107 
L 121.265817 110.349742 
L 121.374135 110.349742 
L 121.472714 110.5169 
L 121.551311 110.5169 
L 121.582492 110.684059 
L 121.743658 110.684059 
L 121.867588 111.018376 
L 122.142498 111.519852 
L 122.189395 111.519852 
L 122.295382 111.687011 
L 122.558774 111.687011 
L 122.806685 112.021328 
L 122.908589 112.021328 
L 123.05786 112.188487 
L 123.200324 112.188487 
L 123.545768 113.525756 
L 123.591817 113.525756 
L 123.730762 114.027232 
L 124.067828 114.027232 
L 124.12209 114.194391 
L 124.203535 114.863026 
L 124.372802 114.863026 
L 124.522763 115.531661 
L 124.535525 115.531661 
L 124.616709 115.698819 
L 124.847354 116.033137 
L 124.885271 116.033137 
L 125.038976 116.701771 
L 125.149222 116.701771 
L 125.291308 116.86893 
L 125.386913 116.86893 
L 125.512019 117.203247 
L 125.591567 117.203247 
L 125.686598 117.537565 
L 125.744851 117.537565 
L 126.029703 118.373358 
L 126.055228 118.373358 
L 126.131415 118.707675 
L 126.188627 118.707675 
L 126.259906 118.874834 
L 126.305135 118.874834 
L 126.432353 119.209151 
L 126.515094 119.209151 
L 126.62354 119.710627 
L 126.665305 119.710627 
L 126.782222 120.212103 
L 126.974162 120.212103 
L 127.235123 120.880738 
L 127.398702 120.880738 
L 127.492487 121.215055 
L 127.532249 121.215055 
L 127.640051 121.549373 
L 127.845715 121.549373 
L 127.963485 122.050849 
L 128.066882 122.050849 
L 128.176006 122.385166 
L 128.33678 123.220959 
L 128.429996 123.220959 
L 128.55597 123.388118 
L 128.657398 123.555277 
L 128.718325 123.555277 
L 128.850999 123.722435 
L 129.011479 124.056753 
L 129.029259 124.056753 
L 129.21593 124.39107 
L 129.527441 124.39107 
L 129.577588 124.558229 
L 130.073224 125.226863 
L 130.2035 125.561181 
L 130.322855 127.065609 
L 130.388146 127.065609 
L 130.444662 127.399926 
L 130.551553 127.399926 
L 130.629969 128.23572 
L 130.70482 128.570037 
L 130.861185 128.570037 
L 131.049019 129.071513 
L 131.211858 129.071513 
L 131.458199 129.740148 
L 131.730552 129.907306 
L 131.759833 129.907306 
L 131.823796 130.074465 
L 131.9724 130.074465 
L 132.134219 130.408782 
L 132.242021 130.408782 
L 132.390536 130.910258 
L 132.712209 130.910258 
L 133.21344 131.578893 
L 133.638768 131.578893 
L 133.824168 131.91321 
L 134.15492 131.91321 
L 134.255362 132.414686 
L 134.473025 132.414686 
L 134.592691 132.749004 
L 134.975991 132.749004 
L 135.003415 132.916162 
L 135.358094 132.916162 
L 135.671208 133.751956 
L 135.828284 133.751956 
L 135.979001 133.919114 
L 136.170942 134.253432 
L 136.302425 134.253432 
L 136.45324 135.089225 
L 136.538928 135.089225 
L 136.722069 135.590701 
L 136.97753 135.590701 
L 137.083251 136.092177 
L 137.14777 136.092177 
L 137.235814 136.259336 
L 137.415912 136.593653 
L 137.479812 136.593653 
L 137.711951 137.262288 
L 137.882586 137.930923 
L 138.308585 138.432399 
L 138.422924 138.432399 
L 138.584795 138.766716 
L 138.758183 138.766716 
L 139.08443 139.268192 
L 139.190342 139.602509 
L 139.308803 139.602509 
L 139.439902 140.103985 
L 139.842564 140.939779 
L 140.042667 140.939779 
L 140.122052 141.274096 
L 140.250939 141.274096 
L 140.358238 141.608413 
L 140.658968 141.942731 
L 140.842318 141.942731 
L 140.992155 142.109889 
L 141.051095 142.109889 
L 141.195743 142.277048 
L 141.483236 142.277048 
L 141.543871 142.611365 
L 141.744918 142.611365 
L 141.778494 142.778524 
L 141.90734 142.778524 
L 142.072182 142.945683 
L 142.08275 142.945683 
L 142.192487 143.447159 
L 142.375707 144.282952 
L 142.438264 144.282952 
L 142.598805 145.118745 
L 142.705845 145.453063 
L 143.00747 145.453063 
L 143.341469 146.288856 
L 143.458038 146.790332 
L 143.619939 146.957491 
L 143.736064 146.957491 
L 143.809865 147.458967 
L 144.021506 147.458967 
L 144.79991 149.130554 
L 144.929601 149.130554 
L 145.370585 149.63203 
L 145.668593 149.63203 
L 145.783062 149.799188 
L 145.902952 150.300664 
L 146.124272 150.467823 
L 146.421251 150.467823 
L 146.609972 150.634982 
L 146.794873 150.634982 
L 146.958808 151.303616 
L 147.201784 151.303616 
L 147.217326 151.470775 
L 147.400948 151.470775 
L 147.476475 151.637934 
L 148.3922 151.637934 
L 148.684514 152.306568 
L 148.7321 152.306568 
L 148.851301 152.640886 
L 148.931734 152.640886 
L 149.127037 152.975203 
L 149.158752 152.975203 
L 149.316533 153.30952 
L 149.516492 153.30952 
L 149.603864 153.476679 
L 149.871595 153.978155 
L 150.106987 153.978155 
L 150.179993 154.145314 
L 150.459326 154.145314 
L 150.770991 154.64679 
L 150.922973 154.64679 
L 151.039802 154.981107 
L 151.346781 154.981107 
L 151.46248 155.148266 
L 151.671606 155.148266 
L 151.962822 155.649742 
L 151.983309 155.649742 
L 152.034908 155.984059 
L 152.301406 155.984059 
L 152.479475 156.318376 
L 152.567669 156.485535 
L 153.181527 156.485535 
L 154.354297 156.987011 
L 154.648965 157.989963 
L 154.939971 157.989963 
L 155.043161 158.491439 
L 155.101307 158.491439 
L 155.182758 158.658598 
L 155.495159 158.825756 
L 155.800355 158.825756 
L 155.908689 159.160074 
L 155.975278 159.160074 
L 156.11736 159.327232 
L 156.276607 159.327232 
L 156.47258 159.494391 
L 156.473258 159.66155 
L 156.783914 159.828708 
L 157.390506 159.828708 
L 157.474206 160.163026 
L 157.669219 160.163026 
L 157.813295 160.330185 
L 157.941753 160.330185 
L 158.150527 160.998819 
L 158.478653 160.998819 
L 158.496415 161.165978 
L 159.194956 161.667454 
L 159.374239 161.667454 
L 160.078735 162.503247 
L 160.133107 162.670406 
L 160.404947 162.837565 
L 160.874916 162.837565 
L 161.353345 163.171882 
L 161.845883 163.171882 
L 161.990658 163.506199 
L 162.026418 163.506199 
L 162.051299 163.673358 
L 162.42649 163.673358 
L 162.477075 164.007675 
L 163.031632 164.67631 
L 163.387211 164.67631 
L 163.470469 164.843469 
L 163.724894 164.843469 
L 164.024964 165.177786 
L 164.256095 165.679262 
L 164.988141 166.013579 
L 165.088613 166.180738 
L 165.522351 166.347897 
L 165.752649 166.347897 
L 165.853315 166.515055 
L 166.21485 166.515055 
L 166.315295 166.682214 
L 166.896249 166.682214 
L 167.085041 166.849373 
L 167.575449 166.849373 
L 167.646823 167.016531 
L 168.086283 167.518007 
L 168.983202 167.518007 
L 169.096691 167.685166 
L 169.6868 167.685166 
L 169.864052 167.852325 
L 169.946457 168.520959 
L 170.479677 168.520959 
L 170.842278 169.022435 
L 171.074174 169.189594 
L 171.149129 169.189594 
L 171.237427 169.356753 
L 171.677982 169.356753 
L 171.844025 169.69107 
L 172.019259 169.69107 
L 172.023181 169.858229 
L 172.286722 169.858229 
L 172.359521 170.359705 
L 172.647415 170.359705 
L 172.783239 170.526863 
L 173.037064 170.526863 
L 173.131077 170.694022 
L 173.300434 170.694022 
L 173.338865 170.861181 
L 173.744731 171.028339 
L 173.810387 171.028339 
L 173.829164 171.195498 
L 173.998839 171.195498 
L 174.089746 171.362657 
L 174.143209 171.362657 
L 174.216549 171.696974 
L 174.433168 171.696974 
L 174.451859 171.864133 
L 174.720906 172.031292 
L 174.948313 172.867085 
L 175.168829 173.034244 
L 175.254751 173.870037 
L 175.345933 173.870037 
L 175.465914 174.037196 
L 175.696317 174.037196 
L 175.81138 174.204354 
L 177.102284 174.204354 
L 177.383048 174.872989 
L 177.560932 174.872989 
L 178.008157 175.207306 
L 178.097988 175.374465 
L 178.242986 175.374465 
L 178.287776 175.541624 
L 178.474932 175.541624 
L 178.860458 176.210258 
L 179.602751 176.210258 
L 179.699929 176.377417 
L 180.406195 176.377417 
L 180.670369 176.878893 
L 181.134631 176.878893 
L 181.336475 177.21321 
L 181.585331 177.21321 
L 181.705163 177.380369 
L 181.965461 177.380369 
L 181.995899 177.547528 
L 182.405233 177.547528 
L 182.51629 177.714686 
L 183.063937 177.714686 
L 183.172678 177.881845 
L 183.520249 177.881845 
L 184.094114 178.216162 
L 184.465603 178.216162 
L 184.864949 178.55048 
L 185.069625 178.55048 
L 185.196004 178.717638 
L 185.500849 179.051956 
L 185.643277 179.553432 
L 186.033251 179.553432 
L 186.414852 179.72059 
L 186.665505 180.222066 
L 187.285243 180.222066 
L 187.598183 180.556384 
L 187.630561 180.556384 
L 187.867128 180.723542 
L 188.092218 180.723542 
L 188.255573 180.890701 
L 188.308855 180.890701 
L 188.633703 181.05786 
L 189.317261 181.392177 
L 189.44469 181.392177 
L 190.090595 181.559336 
L 190.462995 181.559336 
L 190.567318 182.060812 
L 190.698628 182.22797 
L 191.17704 182.729446 
L 191.35117 183.063764 
L 192.176989 183.063764 
L 192.35019 183.230923 
L 192.942485 183.398081 
L 193.331694 183.732399 
L 193.509828 183.732399 
L 193.790631 184.066716 
L 194.093676 184.066716 
L 194.605668 184.233875 
L 195.027968 184.233875 
L 195.100694 184.401033 
L 195.708764 184.735351 
L 195.885599 185.069668 
L 196.124119 185.069668 
L 196.126169 185.236827 
L 196.531649 185.571144 
L 196.845534 185.571144 
L 197.038116 186.07262 
L 197.302852 186.07262 
L 197.693561 186.239779 
L 197.947737 186.741255 
L 198.441999 186.908413 
L 198.855586 186.908413 
L 199.32939 187.075572 
L 199.756849 187.075572 
L 199.788418 187.242731 
L 200.163581 187.242731 
L 200.952306 187.577048 
L 201.256139 187.577048 
L 201.316233 187.744207 
L 201.54645 187.744207 
L 201.674784 187.911365 
L 201.808217 188.078524 
L 203.207008 188.245683 
L 203.24159 188.412841 
L 203.547251 188.412841 
L 203.603849 188.747159 
L 204.06528 188.747159 
L 204.322472 189.248635 
L 204.374291 189.415793 
L 205.36556 189.415793 
L 205.460227 189.750111 
L 205.742102 190.251587 
L 205.759473 190.418745 
L 206.091784 190.418745 
L 206.647401 190.753063 
L 206.750299 190.920221 
L 206.921717 190.920221 
L 206.943782 191.08738 
L 207.281723 191.254539 
L 207.839105 191.421697 
L 208.392255 191.421697 
L 208.691982 192.090332 
L 208.811346 192.090332 
L 208.892928 192.257491 
L 209.038711 192.257491 
L 209.28842 192.591808 
L 209.350641 192.591808 
L 209.46978 192.758967 
L 209.854352 192.926125 
L 210.276978 193.093284 
L 210.351124 193.260443 
L 210.64832 193.427601 
L 211.293049 193.59476 
L 211.31197 193.761919 
L 211.517909 193.761919 
L 211.592307 193.929077 
L 211.778646 193.929077 
L 212.180731 194.096236 
L 212.529568 194.263395 
L 212.67303 194.597712 
L 212.920095 194.93203 
L 213.261543 194.93203 
L 213.366427 195.099188 
L 213.739688 195.099188 
L 214.051714 195.600664 
L 214.150881 195.934982 
L 214.167062 196.10214 
L 214.454602 196.10214 
L 214.972105 196.770775 
L 215.873557 196.770775 
L 216.320568 197.105092 
L 216.9751 197.606568 
L 217.62315 197.606568 
L 218.02716 198.108044 
L 218.619574 198.275203 
L 218.642981 198.442362 
L 218.765304 198.442362 
L 219.013521 198.776679 
L 219.263917 198.776679 
L 219.95968 199.278155 
L 221.522269 199.278155 
L 221.628763 199.612472 
L 222.572678 199.612472 
L 222.772727 199.779631 
L 223.294835 199.94679 
L 223.449585 200.281107 
L 223.884161 200.615424 
L 223.949759 200.615424 
L 224.239144 200.782583 
L 224.860444 200.782583 
L 225.151246 201.1169 
L 225.566911 201.284059 
L 225.676496 201.451218 
L 226.100601 201.618376 
L 226.634976 201.618376 
L 227.785324 202.119852 
L 229.196885 202.621328 
L 229.275497 202.788487 
L 229.800557 203.122804 
L 231.441407 203.122804 
L 231.693014 203.62428 
L 232.065529 203.62428 
L 232.558467 203.958598 
L 232.672014 204.125756 
L 232.866187 204.125756 
L 232.98386 204.292915 
L 233.740585 204.292915 
L 234.091451 204.460074 
L 234.262973 204.794391 
L 235.146829 204.794391 
L 235.185928 204.96155 
L 235.378861 205.128708 
L 236.193831 205.128708 
L 239.603221 206.800295 
L 239.674715 206.967454 
L 239.857055 206.967454 
L 239.886197 207.134613 
L 240.091541 207.134613 
L 240.1601 207.46893 
L 240.493033 207.636089 
L 242.396424 207.636089 
L 242.468166 207.970406 
L 243.164381 208.471882 
L 243.256466 208.806199 
L 243.859342 208.973358 
L 244.197198 208.973358 
L 244.600718 209.140517 
L 244.80566 209.641993 
L 245.216649 209.97631 
L 245.702035 209.97631 
L 245.711124 210.143469 
L 246.432129 210.812103 
L 246.715229 210.812103 
L 247.463247 211.313579 
L 248.194459 211.647897 
L 248.420726 211.982214 
L 248.707591 211.982214 
L 248.981804 212.149373 
L 249.454219 212.149373 
L 249.505461 212.316531 
L 250.298729 212.316531 
L 250.430862 212.48369 
L 250.747051 212.48369 
L 251.00828 212.650849 
L 251.858981 212.985166 
L 251.947645 213.152325 
L 253.381848 213.486642 
L 254.408914 213.486642 
L 255.145143 213.653801 
L 255.154427 213.820959 
L 255.351605 213.988118 
L 256.224705 213.988118 
L 256.333216 214.322435 
L 256.655195 214.322435 
L 258.35236 214.823911 
L 258.66207 214.823911 
L 259.998857 215.659705 
L 260.432224 215.659705 
L 260.839628 215.826863 
L 260.87008 215.994022 
L 261.148689 215.994022 
L 261.319199 216.328339 
L 261.772344 216.495498 
L 262.803994 216.495498 
L 263.098946 216.662657 
L 264.590928 216.662657 
L 265.029362 216.829815 
L 265.565461 216.829815 
L 266.213898 216.996974 
L 266.730194 217.999926 
L 268.501664 218.668561 
L 269.419986 218.83572 
L 269.47017 218.83572 
L 269.962336 219.002878 
L 270.084879 219.337196 
L 271.593983 219.671513 
L 272.942843 219.671513 
L 272.983938 219.838672 
L 273.353362 219.838672 
L 273.713226 220.00583 
L 273.787662 220.172989 
L 274.189947 220.507306 
L 274.529579 220.841624 
L 274.850307 221.008782 
L 274.869591 221.175941 
L 275.392418 221.175941 
L 275.643778 221.3431 
L 276.525745 221.3431 
L 276.930514 221.677417 
L 276.98959 221.677417 
L 277.030371 221.844576 
L 277.702373 222.011734 
L 277.790516 222.346052 
L 278.1819 222.346052 
L 279.159762 222.680369 
L 279.231154 222.847528 
L 279.633886 222.847528 
L 280.427232 223.181845 
L 280.438804 223.349004 
L 280.610012 223.349004 
L 280.957456 223.516162 
L 281.741711 223.516162 
L 282.197852 224.017638 
L 282.507296 224.017638 
L 282.802256 224.351956 
L 283.81362 224.351956 
L 284.334273 224.519114 
L 285.071947 224.686273 
L 286.290317 224.686273 
L 286.347513 224.853432 
L 286.603082 225.02059 
L 288.050719 225.354908 
L 288.647517 225.689225 
L 290.534105 226.190701 
L 291.035012 226.35786 
L 292.752459 226.525018 
L 293.112105 226.525018 
L 293.229669 226.692177 
L 293.273409 226.859336 
L 293.631898 226.859336 
L 294.765304 227.026494 
L 294.824041 227.026494 
L 295.022472 227.193653 
L 295.25271 227.193653 
L 295.866349 227.360812 
L 296.030157 227.695129 
L 297.736011 228.029446 
L 298.364903 228.363764 
L 299.584236 228.363764 
L 299.785948 228.530923 
L 301.202288 229.032399 
L 302.756804 229.366716 
L 304.46192 229.366716 
L 304.517614 229.533875 
L 309.804017 229.868192 
L 311.620578 230.035351 
L 312.897603 230.035351 
L 313.565134 230.202509 
L 315.909426 230.369668 
L 316.012646 230.703985 
L 317.872666 231.038303 
L 318.249385 231.205461 
L 325.433834 231.539779 
L 326.207146 231.706937 
L 327.326309 231.874096 
L 327.631579 232.041255 
L 328.696811 232.208413 
L 329.842392 232.375572 
L 334.555383 232.542731 
L 334.592091 232.709889 
L 336.874152 232.877048 
L 336.908578 233.044207 
L 337.214509 233.211365 
L 338.389763 233.378524 
L 346.84684 233.712841 
L 347.592613 233.88 
L 370.404356 233.88 
L 370.404356 233.88 
" clip-path="url(#p1fe6c561e5)" style="fill: none; stroke: #ff7f0e; stroke-width: 1.5; stroke-linecap: square"/>
   </g>
   <g id="line2d_15">
    <path d="M 69.218182 108.299283 
L 75.336044 108.202861 
L 79.92444 107.86841 
L 81.453906 107.665231 
L 84.512837 106.732558 
L 86.042302 106.635841 
L 87.571768 105.966986 
L 90.630699 105.767532 
L 92.160164 105.916725 
L 93.68963 106.208296 
L 95.219095 106.287034 
L 98.278026 106.881087 
L 99.807492 107.649298 
L 101.336958 107.927816 
L 104.395889 109.845097 
L 105.925354 111.63753 
L 107.45482 111.835405 
L 110.513751 113.879055 
L 112.043216 114.612752 
L 113.572682 115.95803 
L 115.102147 116.712863 
L 116.631613 118.661874 
L 118.161078 120.259175 
L 119.690544 121.097434 
L 121.220009 122.242335 
L 122.749475 123.182941 
L 125.808406 126.234902 
L 127.337871 128.420508 
L 128.867337 130.341632 
L 131.926268 135.069673 
L 133.455733 136.098147 
L 134.985199 136.822895 
L 136.514664 138.554025 
L 138.04413 141.027559 
L 139.573595 142.832894 
L 141.103061 144.430761 
L 144.161992 149.025044 
L 147.220923 151.72089 
L 148.750388 152.451191 
L 150.279854 153.872224 
L 151.809319 155.016971 
L 153.338785 155.859355 
L 154.86825 157.204821 
L 156.397716 158.38 
L 157.927181 159.249278 
L 160.986112 161.454532 
L 164.045043 163.582473 
L 165.574509 164.668692 
L 167.103974 165.059011 
L 168.63344 165.629146 
L 170.162905 166.539253 
L 171.692371 167.305471 
L 174.751302 169.821143 
L 176.280767 171.941662 
L 177.810233 172.565199 
L 179.339698 173.874241 
L 185.457561 176.375611 
L 186.987026 177.681739 
L 188.516492 178.455356 
L 190.045957 178.933672 
L 191.575423 180.42556 
L 193.104888 180.725653 
L 194.634354 181.539599 
L 196.163819 182.537059 
L 197.693285 183.370058 
L 199.22275 184.386292 
L 202.281681 185.333212 
L 205.340612 186.686032 
L 206.870078 188.220229 
L 208.399543 188.704499 
L 209.929009 190.228083 
L 211.458474 191.097905 
L 214.517405 193.482249 
L 216.046871 194.515924 
L 217.576336 195.014328 
L 219.105802 196.230846 
L 220.635267 196.750323 
L 222.164733 197.090855 
L 223.694198 198.132206 
L 228.282595 199.687925 
L 229.81206 200.747932 
L 231.341526 200.741346 
L 232.870991 201.783672 
L 234.400457 202.486193 
L 235.929922 202.834677 
L 237.459388 203.35488 
L 238.988853 204.243219 
L 240.518319 205.47988 
L 242.047784 205.477045 
L 243.57725 206.719013 
L 246.636181 208.85438 
L 248.165646 209.744196 
L 249.695112 210.448966 
L 251.224577 210.798355 
L 252.754043 211.507384 
L 254.283508 211.673672 
L 257.342439 212.738177 
L 258.871905 213.085959 
L 261.930836 214.877479 
L 264.989767 215.23163 
L 266.519233 215.950275 
L 268.048698 217.029297 
L 269.578164 217.387282 
L 271.107629 218.113913 
L 272.637095 218.294086 
L 274.16656 219.018518 
L 275.696026 220.109608 
L 278.754957 221.197103 
L 280.284422 222.107794 
L 281.813888 222.469884 
L 283.343353 223.383659 
L 284.872819 223.563611 
L 287.93175 224.295624 
L 289.461215 225.029283 
L 295.579077 226.490114 
L 297.108543 227.226389 
L 298.638008 227.77899 
L 300.167474 227.962058 
L 301.696939 228.515222 
L 303.226405 228.884187 
L 304.75587 229.067743 
L 307.814801 229.067743 
L 313.932663 229.806009 
L 315.462129 229.806009 
L 318.52106 230.914673 
L 321.579991 230.914673 
L 323.109456 231.099722 
L 324.638922 231.099722 
L 327.697853 231.840086 
L 330.756784 232.210467 
L 333.815715 232.210467 
L 335.34518 232.581208 
L 336.874646 232.766636 
L 338.404111 233.323147 
L 341.463042 233.323147 
L 342.992508 233.508727 
L 346.051439 233.508689 
L 349.11037 233.88 
L 373.581818 233.88 
L 373.581818 233.88 
" clip-path="url(#p1fe6c561e5)" style="fill: none; stroke: #2ca02c; stroke-width: 1.5; stroke-linecap: square"/>
   </g>
   <g id="line2d_16">
    <path d="M 90.630699 289 
L 90.630699 105.767532 
" clip-path="url(#p1fe6c561e5)" style="fill: none; stroke-dasharray: 5.55,2.4; stroke-dashoffset: 0; stroke: #000000; stroke-opacity: 0.5; stroke-width: 1.5"/>
   </g>
   <g id="line2d_17">
    <defs>
     <path id="mc728f2a122" d="M 0 3 
C 0.795609 3 1.55874 2.683901 2.12132 2.12132 
C 2.683901 1.55874 3 0.795609 3 0 
C 3 -0.795609 2.683901 -1.55874 2.12132 -2.12132 
C 1.55874 -2.683901 0.795609 -3 0 -3 
C -0.795609 -3 -1.55874 -2.683901 -2.12132 -2.12132 
C -2.683901 -1.55874 -3 -0.795609 -3 0 
C -3 0.795609 -2.683901 1.55874 -2.12132 2.12132 
C -1.55874 2.683901 -0.795609 3 0 3 
z
" style="stroke: #d62728"/>
    </defs>
    <g clip-path="url(#p1fe6c561e5)">
     <use xlink:href="#mc728f2a122" x="90.630699" y="105.767532" style="fill: #d62728; stroke: #d62728"/>
    </g>
   </g>
   <g id="patch_3">
    <path d="M 54 252 
L 54 34.56 
" style="fill: none; stroke: #000000; stroke-width: 0.8; stroke-linejoin: miter; stroke-linecap: square"/>
   </g>
   <g id="patch_4">
    <path d="M 54 252 
L 388.8 252 
" style="fill: none; stroke: #000000; stroke-width: 0.8; stroke-linejoin: miter; stroke-linecap: square"/>
   </g>
   <g id="text_14">
    <!-- LogReg Precision, Recall, and fbeta Curves -->
    <g transform="translate(67.9275 28.56)scale(0.144 -0.144)">
     <defs>
      <path id="DejaVuSans-4c" d="M 628 4666 
L 1259 4666 
L 1259 531 
L 3531 531 
L 3531 0 
L 628 0 
L 628 4666 
z
" transform="scale(0.015625)"/>
      <path id="DejaVuSans-67" d="M 2906 1791 
Q 2906 2416 2648 2759 
Q 2391 3103 1925 3103 
Q 1463 3103 1205 2759 
Q 947 2416 947 1791 
Q 947 1169 1205 825 
Q 1463 481 1925 481 
Q 2391 481 2648 825 
Q 2906 1169 2906 1791 
z
M 3481 434 
Q 3481 -459 3084 -895 
Q 2688 -1331 1869 -1331 
Q 1566 -1331 1297 -1286 
Q 1028 -1241 775 -1147 
L 775 -588 
Q 1028 -725 1275 -790 
Q 1522 -856 1778 -856 
Q 2344 -856 2625 -561 
Q 2906 -266 2906 331 
L 2906 616 
Q 2728 306 2450 153 
Q 2172 0 1784 0 
Q 1141 0 747 490 
Q 353 981 353 1791 
Q 353 2603 747 3093 
Q 1141 3584 1784 3584 
Q 2172 3584 2450 3431 
Q 2728 3278 2906 2969 
L 2906 3500 
L 3481 3500 
L 3481 434 
z
" transform="scale(0.015625)"/>
      <path id="DejaVuSans-52" d="M 2841 2188 
Q 3044 2119 3236 1894 
Q 3428 1669 3622 1275 
L 4263 0 
L 3584 0 
L 2988 1197 
Q 2756 1666 2539 1819 
Q 2322 1972 1947 1972 
L 1259 1972 
L 1259 0 
L 628 0 
L 628 4666 
L 2053 4666 
Q 2853 4666 3247 4331 
Q 3641 3997 3641 3322 
Q 3641 2881 3436 2590 
Q 3231 2300 2841 2188 
z
M 1259 4147 
L 1259 2491 
L 2053 2491 
Q 2509 2491 2742 2702 
Q 2975 2913 2975 3322 
Q 2975 3731 2742 3939 
Q 2509 4147 2053 4147 
L 1259 4147 
z
" transform="scale(0.015625)"/>
      <path id="DejaVuSans-50" d="M 1259 4147 
L 1259 2394 
L 2053 2394 
Q 2494 2394 2734 2622 
Q 2975 2850 2975 3272 
Q 2975 3691 2734 3919 
Q 2494 4147 2053 4147 
L 1259 4147 
z
M 628 4666 
L 2053 4666 
Q 2838 4666 3239 4311 
Q 3641 3956 3641 3272 
Q 3641 2581 3239 2228 
Q 2838 1875 2053 1875 
L 1259 1875 
L 1259 0 
L 628 0 
L 628 4666 
z
" transform="scale(0.015625)"/>
      <path id="DejaVuSans-6e" d="M 3513 2113 
L 3513 0 
L 2938 0 
L 2938 2094 
Q 2938 2591 2744 2837 
Q 2550 3084 2163 3084 
Q 1697 3084 1428 2787 
Q 1159 2491 1159 1978 
L 1159 0 
L 581 0 
L 581 3500 
L 1159 3500 
L 1159 2956 
Q 1366 3272 1645 3428 
Q 1925 3584 2291 3584 
Q 2894 3584 3203 3211 
Q 3513 2838 3513 2113 
z
" transform="scale(0.015625)"/>
      <path id="DejaVuSans-66" d="M 2375 4863 
L 2375 4384 
L 1825 4384 
Q 1516 4384 1395 4259 
Q 1275 4134 1275 3809 
L 1275 3500 
L 2222 3500 
L 2222 3053 
L 1275 3053 
L 1275 0 
L 697 0 
L 697 3053 
L 147 3053 
L 147 3500 
L 697 3500 
L 697 3744 
Q 697 4328 969 4595 
Q 1241 4863 1831 4863 
L 2375 4863 
z
" transform="scale(0.015625)"/>
      <path id="DejaVuSans-43" d="M 4122 4306 
L 4122 3641 
Q 3803 3938 3442 4084 
Q 3081 4231 2675 4231 
Q 1875 4231 1450 3742 
Q 1025 3253 1025 2328 
Q 1025 1406 1450 917 
Q 1875 428 2675 428 
Q 3081 428 3442 575 
Q 3803 722 4122 1019 
L 4122 359 
Q 3791 134 3420 21 
Q 3050 -91 2638 -91 
Q 1578 -91 968 557 
Q 359 1206 359 2328 
Q 359 3453 968 4101 
Q 1578 4750 2638 4750 
Q 3056 4750 3426 4639 
Q 3797 4528 4122 4306 
z
" transform="scale(0.015625)"/>
     </defs>
     <use xlink:href="#DejaVuSans-4c"/>
     <use xlink:href="#DejaVuSans-6f" x="53.962891"/>
     <use xlink:href="#DejaVuSans-67" x="115.144531"/>
     <use xlink:href="#DejaVuSans-52" x="178.621094"/>
     <use xlink:href="#DejaVuSans-65" x="243.603516"/>
     <use xlink:href="#DejaVuSans-67" x="305.126953"/>
     <use xlink:href="#DejaVuSans-20" x="368.603516"/>
     <use xlink:href="#DejaVuSans-50" x="400.390625"/>
     <use xlink:href="#DejaVuSans-72" x="458.943359"/>
     <use xlink:href="#DejaVuSans-65" x="497.806641"/>
     <use xlink:href="#DejaVuSans-63" x="559.330078"/>
     <use xlink:href="#DejaVuSans-69" x="614.310547"/>
     <use xlink:href="#DejaVuSans-73" x="642.09375"/>
     <use xlink:href="#DejaVuSans-69" x="694.193359"/>
     <use xlink:href="#DejaVuSans-6f" x="721.976562"/>
     <use xlink:href="#DejaVuSans-6e" x="783.158203"/>
     <use xlink:href="#DejaVuSans-2c" x="846.537109"/>
     <use xlink:href="#DejaVuSans-20" x="878.324219"/>
     <use xlink:href="#DejaVuSans-52" x="910.111328"/>
     <use xlink:href="#DejaVuSans-65" x="975.09375"/>
     <use xlink:href="#DejaVuSans-63" x="1036.617188"/>
     <use xlink:href="#DejaVuSans-61" x="1091.597656"/>
     <use xlink:href="#DejaVuSans-6c" x="1152.876953"/>
     <use xlink:href="#DejaVuSans-6c" x="1180.660156"/>
     <use xlink:href="#DejaVuSans-2c" x="1208.443359"/>
     <use xlink:href="#DejaVuSans-20" x="1240.230469"/>
     <use xlink:href="#DejaVuSans-61" x="1272.017578"/>
     <use xlink:href="#DejaVuSans-6e" x="1333.296875"/>
     <use xlink:href="#DejaVuSans-64" x="1396.675781"/>
     <use xlink:href="#DejaVuSans-20" x="1460.152344"/>
     <use xlink:href="#DejaVuSans-66" x="1491.939453"/>
     <use xlink:href="#DejaVuSans-62" x="1527.144531"/>
     <use xlink:href="#DejaVuSans-65" x="1590.621094"/>
     <use xlink:href="#DejaVuSans-74" x="1652.144531"/>
     <use xlink:href="#DejaVuSans-61" x="1691.353516"/>
     <use xlink:href="#DejaVuSans-20" x="1752.632812"/>
     <use xlink:href="#DejaVuSans-43" x="1784.419922"/>
     <use xlink:href="#DejaVuSans-75" x="1854.244141"/>
     <use xlink:href="#DejaVuSans-72" x="1917.623047"/>
     <use xlink:href="#DejaVuSans-76" x="1958.736328"/>
     <use xlink:href="#DejaVuSans-65" x="2017.916016"/>
     <use xlink:href="#DejaVuSans-73" x="2079.439453"/>
    </g>
   </g>
   <g id="legend_1">
    <g id="patch_5">
     <path d="M 62.4 246 
L 154.929375 246 
Q 157.329375 246 157.329375 243.6 
L 157.329375 191.95875 
Q 157.329375 189.55875 154.929375 189.55875 
L 62.4 189.55875 
Q 60 189.55875 60 191.95875 
L 60 243.6 
Q 60 246 62.4 246 
z
" style="fill: #ffffff; opacity: 0.8; stroke: #cccccc; stroke-linejoin: miter"/>
    </g>
    <g id="line2d_18">
     <path d="M 64.8 199.276875 
L 76.8 199.276875 
L 88.8 199.276875 
" style="fill: none; stroke: #1f77b4; stroke-width: 1.5; stroke-linecap: square"/>
    </g>
    <g id="text_15">
     <!-- precision -->
     <g transform="translate(98.4 203.476875)scale(0.12 -0.12)">
      <use xlink:href="#DejaVuSans-70"/>
      <use xlink:href="#DejaVuSans-72" x="63.476562"/>
      <use xlink:href="#DejaVuSans-65" x="102.339844"/>
      <use xlink:href="#DejaVuSans-63" x="163.863281"/>
      <use xlink:href="#DejaVuSans-69" x="218.84375"/>
      <use xlink:href="#DejaVuSans-73" x="246.626953"/>
      <use xlink:href="#DejaVuSans-69" x="298.726562"/>
      <use xlink:href="#DejaVuSans-6f" x="326.509766"/>
      <use xlink:href="#DejaVuSans-6e" x="387.691406"/>
     </g>
    </g>
    <g id="line2d_19">
     <path d="M 64.8 216.890625 
L 76.8 216.890625 
L 88.8 216.890625 
" style="fill: none; stroke: #ff7f0e; stroke-width: 1.5; stroke-linecap: square"/>
    </g>
    <g id="text_16">
     <!-- recall -->
     <g transform="translate(98.4 221.090625)scale(0.12 -0.12)">
      <use xlink:href="#DejaVuSans-72"/>
      <use xlink:href="#DejaVuSans-65" x="38.863281"/>
      <use xlink:href="#DejaVuSans-63" x="100.386719"/>
      <use xlink:href="#DejaVuSans-61" x="155.367188"/>
      <use xlink:href="#DejaVuSans-6c" x="216.646484"/>
      <use xlink:href="#DejaVuSans-6c" x="244.429688"/>
     </g>
    </g>
    <g id="line2d_20">
     <path d="M 64.8 234.504375 
L 76.8 234.504375 
L 88.8 234.504375 
" style="fill: none; stroke: #2ca02c; stroke-width: 1.5; stroke-linecap: square"/>
    </g>
    <g id="text_17">
     <!-- fbeta -->
     <g transform="translate(98.4 238.704375)scale(0.12 -0.12)">
      <use xlink:href="#DejaVuSans-66"/>
      <use xlink:href="#DejaVuSans-62" x="35.205078"/>
      <use xlink:href="#DejaVuSans-65" x="98.681641"/>
      <use xlink:href="#DejaVuSans-74" x="160.205078"/>
      <use xlink:href="#DejaVuSans-61" x="199.414062"/>
     </g>
    </g>
   </g>
  </g>
 </g>
 <defs>
  <clipPath id="p1fe6c561e5">
   <rect x="54" y="34.56" width="334.8" height="217.44"/>
  </clipPath>
 </defs>
</svg>
